G04 ================== begin FILE IDENTIFICATION RECORD ==================*
G04 Layout Name:  PRISON_GOD_PCB_V235_SOMECHANGE.brd*
G04 Film Name:    BOTTOM*
G04 File Format:  Gerber RS274X*
G04 File Origin:  Cadence Allegro 17.2-S004*
G04 Origin Date:  Wed Jan 04 13:13:35 2017*
G04 *
G04 Layer:  BOARD GEOMETRY/OUTLINE*
G04 Layer:  ETCH/BOTTOM*
G04 Layer:  PIN/BOTTOM*
G04 Layer:  VIA CLASS/BOTTOM*
G04 *
G04 Offset:    (0.0000 0.0000)*
G04 Mirror:    No*
G04 Mode:      Positive*
G04 Rotation:  0*
G04 FullContactRelief:  No*
G04 UndefLineWidth:     0.2000*
G04 ================== end FILE IDENTIFICATION RECORD ====================*
%FSLAX55Y55*MOMM*%
%IR0*IPPOS*OFA0.00000B0.00000*MIA0B0*SFA1.00000B1.00000*%
%ADD10C,.45*%
%AMMACRO15*
21,1,1.1,.8,0.0,0.0,89.712*
1,1,.8,.002765,.549993*
1,1,.8,-.002765,-.549993*%
%ADD15MACRO15*%
%ADD12O,1.6X1.*%
%ADD11C,1.2*%
%ADD16R,.64X.55*%
%ADD14R,.55X.64*%
%ADD13R,.73X.94*%
%ADD17C,.1*%
%ADD18C,.3*%
%ADD19C,.5*%
%ADD20C,.24*%
%ADD21C,.25*%
%ADD22C,.1524*%
%ADD25C,.9052*%
%ADD24C,.7552*%
%ADD23C,1.4544*%
G75*
%LPD*%
G75*
G36*
G01X436880Y652780D02*
X596900D01*
X635000Y614680D01*
Y76200D01*
X584200Y25400D01*
X55880D01*
X17780Y63500D01*
Y233680D01*
X436880Y652780D01*
G37*
G36*
G01X66040Y474980D02*
X25400Y515620D01*
Y1671320D01*
X104140Y1750060D01*
Y1894840D01*
X25400Y1973580D01*
Y1998130D01*
X34140D01*
X35300Y1994660D01*
G03X96720Y1978840I35823J11939D01*
G01X264050D01*
G02X271240Y1961500I3J-10159D01*
G01X175440Y1865700D01*
Y1357300D01*
X115900Y1297760D01*
X115500D01*
X95180Y1277440D01*
X91960Y1278910D01*
G03X101800Y1216840I-15760J-34313D01*
G01X113100D01*
X138500Y1242240D01*
X138900D01*
X230960Y1334300D01*
Y1842700D01*
X316300Y1928040D01*
X471730D01*
X484660Y1940980D01*
X490810Y1934830D01*
X489240Y1931580D01*
G03X508000Y1880610I34001J-16423D01*
G01Y1739070D01*
G02X490840Y1731700I-10161J-5D01*
G03Y1676980I-26020J-27360D01*
G02X508000Y1669610I6999J-7365D01*
G01Y1346200D01*
X480250Y1318450D01*
X478450Y1318270D01*
G03X444690Y1284510I3810J-37570D01*
G01X444510Y1282710D01*
X304800Y1143000D01*
Y943500D01*
X218620Y857320D01*
Y655520D01*
G03X218440Y604520I27760J-25598D01*
G01Y551180D01*
X142240Y474980D01*
X66040D01*
G37*
G36*
G01X25400Y2038720D02*
Y3225800D01*
X76200Y3276600D01*
X406400D01*
X431800Y3251200D01*
Y2900680D01*
X482600Y2849880D01*
X789940D01*
X838200Y2898140D01*
Y3175000D01*
X914400Y3251200D01*
X1041400D01*
X1092200Y3200400D01*
Y3048000D01*
G03Y2997200I27940J-25400D01*
G01Y2921000D01*
X1066800Y2895600D01*
X1000760D01*
X911440Y2806280D01*
X909720Y2806070D01*
G03X876930Y2773280I4680J-37470D01*
G01X876720Y2771560D01*
X868720Y2763560D01*
X863980Y2768290D01*
X863710Y2769880D01*
G03X797540Y2739270I-37221J-6363D01*
G01X798730Y2737860D01*
Y2737340D01*
X820620Y2715460D01*
X797270Y2692110D01*
X795340Y2691990D01*
G03X759870Y2656520I2220J-37690D01*
G01X759750Y2654590D01*
X571320Y2466160D01*
X466160D01*
X408760Y2523560D01*
Y3070660D01*
G03X343400Y3099730I-27759J25599D01*
G02X332090Y3090580I-10116J939D01*
G03X299900Y3027480I-4432J-37500D01*
G01Y2781300D01*
X280560D01*
X195910Y2865950D01*
Y2993950D01*
G03X140390I-27760J25600D01*
G01Y2842950D01*
X226240Y2757100D01*
Y2565600D01*
G03X282160Y2514850I27758J-25598D01*
G02X299900Y2508080I7579J-6768D01*
G01Y2480240D01*
X417760Y2362380D01*
X508000D01*
Y2122060D01*
X420300Y2034360D01*
X96720D01*
G03X43100Y2031910I-25598J-27760D01*
G02X25400Y2038720I-7540J6810D01*
G37*
G36*
G01X812800Y25400D02*
X678180Y160020D01*
Y480060D01*
X706120Y508000D01*
X1016000D01*
X1041400Y482600D01*
Y304800D01*
X1064860Y281340D01*
X1064370Y278710D01*
G03X1088820Y236210I37119J-6929D01*
G01X1092200Y235010D01*
Y177800D01*
X1117600Y152400D01*
X1397000D01*
X1422400Y127000D01*
Y53340D01*
X1394460Y25400D01*
X812800D01*
G37*
G36*
G01X787400Y3175000D02*
Y2921000D01*
X762000Y2895600D01*
X533400D01*
X508000Y2921000D01*
Y3175000D01*
X584200Y3251200D01*
X711200D01*
X787400Y3175000D01*
G37*
G36*
G01X1632190Y1933490D02*
G02X1615270Y1929190I-9740J2887D01*
G01X1510100Y2034360D01*
X1478070D01*
G02X1471300Y2052100I-2J10161D01*
G03X1434690Y2044280I-25155J28160D01*
G01X1438230Y2043150D01*
Y2034360D01*
X1419670D01*
X1305600Y2148840D01*
X1054100D01*
X990420Y2212520D01*
Y2262940D01*
G03X981910Y2321030I-27758J25602D01*
G01X979400Y2322510D01*
X980080Y2466410D01*
X984580Y2466910D01*
G03X984940Y2541930I-4145J37531D01*
G01X980440Y2542470D01*
X980990Y2659040D01*
X1078440Y2763140D01*
X1251830D01*
G02X1261060Y2748750I-6J-10159D01*
G03X1329740I34340J-15710D01*
G02X1338970Y2763140I9236J4231D01*
G01X1464990D01*
G02X1474810Y2750370I1J-10160D01*
G03X1535550Y2711710I36491J-9713D01*
G01X1536960Y2712900D01*
X1550540D01*
X1677340Y2586100D01*
G02X1675250Y2570130I-7187J-7181D01*
G03X1726850Y2518530I18930J-32670D01*
G02X1742820Y2520620I8789J-5097D01*
G01X1751520Y2511920D01*
X1746900Y2507290D01*
X1745470Y2506960D01*
G03X1788550Y2455210I8401J-36813D01*
G02X1805060Y2458380I9331J-4018D01*
G01X1837630Y2425810D01*
G03X1841690Y2422460I19618J19640D01*
G01X1853750Y2410390D01*
X1853480Y2407960D01*
G03X1853380Y2406980I37509J-4323D01*
G01X1853210Y2405140D01*
X1845760Y2397690D01*
X1845360D01*
X1736030Y2288360D01*
X1703070D01*
G02X1695260Y2305020I-2J10159D01*
G03X1640640Y2356940I-29016J24166D01*
G01X1403280D01*
X1362500Y2316160D01*
X1360660Y2315990D01*
G03X1401590Y2275060I3320J-37610D01*
G01X1401760Y2276900D01*
X1426280Y2301420D01*
X1614170D01*
G02X1621980Y2284760I2J-10159D01*
G03X1631510Y2228260I29020J-24159D01*
G02X1635730Y2215870I-5247J-8701D01*
G03X1638890Y2182180I35190J-13692D01*
G02X1634670Y2167640I-8620J-5381D01*
G03X1637260Y2098430I16333J-34042D01*
G02X1640160Y2091900I-1852J-4731D01*
G03X1675040Y2040790I35321J-13352D01*
G02X1682110Y2023450I-114J-10158D01*
G01X1640640Y1981980D01*
Y1948380D01*
G03X1632190Y1933490I27761J-25597D01*
G37*
G36*
G01X1648460Y25400D02*
X1394460Y279400D01*
Y464820D01*
X1480820Y571500D01*
X1612900D01*
X1652020Y518160D01*
X1968500D01*
X2166620Y716280D01*
Y941890D01*
X2245980Y1021240D01*
G02X2263300Y1014680I7182J-7183D01*
G01X2272870Y1005120D01*
G02X2268910Y988300I-7186J-7184D01*
G03X2316720Y940490I12010J-35800D01*
G02X2333540Y944450I9636J-3226D01*
G01X2397940Y880040D01*
Y699700D01*
X2480240Y617400D01*
X2575360D01*
G03X2637850Y637090I25601J27759D01*
G02X2654960Y642110I9927J-2166D01*
G01X2676920Y620140D01*
X2680520D01*
G03X2680590Y620030I12908J8137D01*
G01Y578310D01*
G03X2681820Y568440I40259J5D01*
G02X2671690Y550790I-37643J9873D01*
G01X2462210Y341310D01*
G02X2444960Y349870I-7184J7185D01*
G03X2406270Y311180I-44840J6150D01*
G02X2414830Y293930I1375J-10066D01*
G01X2391440Y270540D01*
G03X2380380Y243840I26698J-26700D01*
G01Y222700D01*
X2370780D01*
X2370260Y227180D01*
G03X2265180Y221280I-52360J-6156D01*
G01X2264620Y111290D01*
G03X2370060Y110760I52720J-265D01*
G01X2370250Y148310D01*
G02X2388410Y154520I10160J-53D01*
G03X2455900Y177800I29730J23280D01*
G01Y228200D01*
X2725090Y497390D01*
G03X2757340Y561300I-80914J80922D01*
G03X2761110Y578310I-36489J17010D01*
G01Y619930D01*
X2761730Y621070D01*
G03X2763610Y628400I-13378J7337D01*
G01Y692400D01*
G03X2748350Y707660I-15260J0D01*
G01X2703280D01*
X2671270Y739670D01*
G03X2605310Y696510I-28475J-28465D01*
G02X2596940Y682710I-9458J-3702D01*
G03X2575360Y672920I4023J-37547D01*
G01X2553400D01*
G02X2545170Y689040I0J10161D01*
G03X2517920Y748810I-30572J22159D01*
G01X2516080Y748980D01*
X2508630Y756430D01*
Y931690D01*
X2397440Y1042880D01*
X2397270Y1044720D01*
G03X2335500Y1070420I-37613J-3320D01*
G02X2318840Y1078230I-6501J7808D01*
G01Y1106150D01*
G03X2252910Y1122290I-29029J24149D01*
G02X2242980Y1109980I-9930J-2150D01*
G01X2237560D01*
Y1156900D01*
X2297500Y1216840D01*
X2465140D01*
X2556720Y1308420D01*
X2558560Y1308590D01*
G03X2592730Y1341720I-3321J37611D01*
G01X2593270Y1346200D01*
X2819400D01*
X2844800Y1371600D01*
X2921000D01*
X2958000Y1334600D01*
G02X2950810Y1317260I-7188J-7180D01*
G01X2915850D01*
G03X2900590Y1302000I0J-15260D01*
G01Y1238000D01*
G03X2915850Y1222740I15260J0D01*
G01X2950870D01*
X2959790Y1213810D01*
X2960080Y1212270D01*
G03X3009210Y1183400I37119J6930D01*
G02X3022600Y1173770I3231J-9632D01*
G01Y881380D01*
X2926080Y787400D01*
Y469900D01*
X3022600D01*
Y86360D01*
X2961640Y25400D01*
X1648460D01*
G37*
G36*
G01X1430020Y708660D02*
Y612140D01*
X1402080Y584200D01*
X1313180D01*
X1285240Y612140D01*
Y711200D01*
X1310640Y736600D01*
X1402080D01*
X1430020Y708660D01*
G37*
G36*
G01X1617850Y3016750D02*
G03X1590830Y3072600I-32890J18549D01*
G01X1589200Y3072860D01*
X1567690Y3094360D01*
G03X1428650Y3151960I-69089J29840D01*
G01X1365000D01*
Y3180300D01*
G03X1349740Y3195560I-15260J0D01*
G01X1294740D01*
G03X1279480Y3180300I0J-15260D01*
G01Y3116300D01*
G03X1294740Y3101040I15260J0D01*
G01X1330240D01*
X1334840Y3096440D01*
X1428650D01*
G03X1528440Y3055110I69951J27761D01*
G01X1547160Y3036380D01*
X1547210Y3034350D01*
G03X1552070Y3016750I37749J953D01*
G02X1543220Y3001600I-8849J-4990D01*
G01X1306700D01*
X1258440Y3049860D01*
X1146270D01*
G03X1143400Y3052340I-26092J-27294D01*
G01X1141470Y3053850D01*
X1140460Y3200400D01*
X1216660Y3276600D01*
X2159000D01*
X2184400Y3251200D01*
Y3048000D01*
X2209800Y3022600D01*
X2971800D01*
X3022600Y2971800D01*
Y2146990D01*
G02X3005260Y2139800I-10159J-3D01*
G01X2958300Y2186760D01*
X2877180D01*
X2834460Y2229480D01*
Y2240020D01*
X2835650Y2241430D01*
G03X2814400Y2302650I-28947J24250D01*
G02X2807230Y2316820I2069J9946D01*
G03X2806130Y2350440I-34340J15704D01*
G02X2815070Y2365420I8942J4821D01*
G01X2844910D01*
G03X2828810Y2424260I58311J47578D01*
G01X2828150Y2419940D01*
X2807590D01*
G02X2798190Y2433960I-2J10160D01*
G03X2765910Y2485970I-34931J14342D01*
G01X2764010Y2486100D01*
X2757760Y2492350D01*
Y2515570D01*
G03X2703240I-27260J70150D01*
G01Y2469770D01*
X2725460Y2447550D01*
X2725590Y2445650D01*
G03X2726800Y2438460I37670J2643D01*
G02X2721420Y2426670I-9808J-2647D01*
G03X2701780Y2381550I16441J-33991D01*
G02X2696230Y2369290I-9710J-2990D01*
G03X2681620Y2357680I15459J-34451D01*
G02X2674550Y2356670I-4046J3073D01*
G03X2614380Y2329000I-22503J-30322D01*
G01X2614250Y2327100D01*
X2563450Y2276300D01*
X2189490D01*
X2074060Y2160880D01*
G02X2056720Y2168060I-7182J7183D01*
G01Y2421130D01*
X2057010Y2421950D01*
G03X2057580Y2425310I-9590J3355D01*
G01Y2468030D01*
X2056720Y2468890D01*
Y2495410D01*
X1952760Y2599380D01*
G02X1959060Y2616680I7184J7181D01*
G03X1990650Y2668830I-3261J37618D01*
G02X1996580Y2682290I9381J3903D01*
G03X1987060Y2755410I-12843J35508D01*
G01X1985220Y2755580D01*
X1943640Y2797160D01*
G02X1950830Y2814500I7187J7181D01*
G01X2176580D01*
G03X2231140Y2818030I25598J27760D01*
G02X2245680Y2819110I7794J-6516D01*
G03X2274080Y2884950I25080J28227D01*
G01X2272240Y2885120D01*
X2268760Y2888600D01*
G02X2275950Y2905940I7187J7181D01*
G01X2282940D01*
X2357300Y2831580D01*
Y2821040D01*
X2356110Y2819630D01*
G03X2410630Y2767600I28945J-24249D01*
G02X2424700Y2767300I6879J-7479D01*
G03X2478660Y2820130I26705J26696D01*
G01Y2852990D01*
X2375210Y2956440D01*
X2374050D01*
X2328890Y3001600D01*
X1626700D01*
G02X1617850Y3016750I-1J10160D01*
G37*
G36*
G01X1930400Y1473200D02*
Y1371600D01*
X1905000Y1346200D01*
X1752600D01*
X1727200Y1371600D01*
Y1473200D01*
X1752600Y1498600D01*
X1905000D01*
X1930400Y1473200D01*
G37*
G36*
G01X1962960Y2076970D02*
Y1719970D01*
X2028150Y1654770D01*
X2013960Y1640580D01*
X2012070Y1640450D01*
G03X2003230Y1633780I711J-10136D01*
G02X1991040Y1614880I-47434J17213D01*
G03X1987990Y1606910I7088J-7281D01*
G01X1988150Y1604610D01*
X1968530Y1584990D01*
X1967530Y1584600D01*
G03X1955600Y1577160I13668J-35201D01*
G01X1875250D01*
X1846600Y1605910D01*
G02X1853800Y1623240I7199J7170D01*
G01X1930200D01*
G03X1953460Y1688690I25598J27761D01*
G02X1942690Y1699460I-633J10137D01*
G03X1902660Y1739490I-37690J2340D01*
G02X1891890Y1750260I-633J10137D01*
G03X1828600Y1780360I-37689J2342D01*
G01X1764100D01*
X1674810Y1869650D01*
G02X1679110Y1886570I7187J7180D01*
G03X1697350Y1947030I-10708J36212D01*
G01X1696160Y1948440D01*
Y1958980D01*
X1787140Y2049960D01*
X1911420D01*
X1945620Y2084160D01*
G02X1962960Y2076970I7181J-7187D01*
G37*
G36*
G01X2665460Y1438550D02*
G02X2651320Y1429200I-10159J-3D01*
G03X2639170Y1432130I-14805J-34738D01*
G01X2637270Y1432260D01*
X2630900Y1438630D01*
G02X2633450Y1454850I7188J7180D01*
G03X2618850Y1526110I-17248J33592D01*
G01X2616950Y1526240D01*
X2536050Y1607140D01*
X2208390D01*
X2056720Y1758810D01*
Y1817200D01*
G02X2074060Y1824380I10158J-3D01*
G01X2095800Y1802650D01*
X2095930Y1800750D01*
G03X2170110Y1793750I37670J2643D01*
G01X2170460Y1795070D01*
X2175020Y1799630D01*
X2182540Y1792110D01*
Y1753330D01*
G03X2220530Y1691000I27260J-26127D01*
G02X2233450Y1679690I2882J-9743D01*
G03X2298020Y1699990I37309J-5829D01*
G01Y1794090D01*
X2338660Y1834730D01*
Y1918830D01*
X2295400Y1962090D01*
G02X2301220Y1979340I7186J7182D01*
G03X2327330Y1995450I-5063J37419D01*
G02X2341160Y1998290I8385J-5738D01*
G03X2358730Y1992510I20226J31888D01*
G01X2360630Y1992380D01*
X2522900Y1830110D01*
Y1787030D01*
X2598720Y1711210D01*
X2598850Y1709310D01*
G03X2608760Y1686360I37669J2651D01*
G01Y1626400D01*
X2650020Y1585140D01*
X2745540D01*
G03X2770350Y1650650I25599J27758D01*
G02X2759980Y1660810I-210J10158D01*
G01Y1664080D01*
X2782780Y1686880D01*
X2784620Y1687050D01*
G03X2817100Y1712650I-3317J37613D01*
G02X2833920Y1716610I9636J-3226D01*
G01X2867840Y1682680D01*
Y1619350D01*
G03X2870380Y1478490I27761J-69952D01*
G01Y1469460D01*
X2841430Y1440510D01*
X2760460D01*
X2759440Y1444260D01*
G03X2744720Y1455510I-14720J-4005D01*
G01X2680720D01*
G03X2665460Y1440250I0J-15260D01*
G01Y1438550D01*
G37*
G36*
G01X2607230Y1906800D02*
X2540490Y1973540D01*
G02X2544970Y1990520I7180J7187D01*
G03X2545440Y2063190I-10046J36401D01*
G02X2541860Y2069020I1410J4880D01*
G03X2467210Y2072320I-37084J7112D01*
G02X2449920Y2064110I-10106J-1027D01*
G01X2431610Y2082420D01*
X2431440Y2084260D01*
G03X2356910Y2073030I-37611J-3320D01*
G02X2353060Y2067010I-4969J-1063D01*
G03X2330210Y2051490I8320J-36831D01*
G02X2316380Y2048650I-8385J5738D01*
G03X2296100Y2054520I-20220J-31890D01*
G02X2285990Y2063560I-13J10159D01*
G03X2211550Y2067330I-37527J-4182D01*
G01X2210680Y2063320D01*
X2201500D01*
Y2091830D01*
X2251570Y2141900D01*
X2557890D01*
G02X2567020Y2127290I-3J-10160D01*
G03X2626560Y2082980I33940J-16552D01*
G01X2668810D01*
X2683040Y2068750D01*
G02X2676670Y2051440I-7183J-7184D01*
G03X2671320Y1976980I3026J-37640D01*
G02X2676710Y1960380I-2251J-9906D01*
G03X2670270Y1920890I28389J-24900D01*
G02X2660900Y1906800I-9367J-3931D01*
G01X2607230D01*
G37*
G36*
G01X2653320Y1745780D02*
G03X2639170Y1749630I-16800J-33819D01*
G01X2637270Y1749760D01*
X2577420Y1809610D01*
Y1851280D01*
X2699240D01*
X2720550Y1829970D01*
G02X2713360Y1812630I-7187J-7181D01*
G01X2680720D01*
G03X2668000Y1799910I0J-12720D01*
G01Y1754880D01*
G02X2653320Y1745780I-10159J-3D01*
G37*
%LPC*%
G75*
G36*
G01X493720Y2562280D02*
G03X508350Y2555900I9829J2576D01*
G02X489650Y2513030I17822J-33288D01*
G03X475020Y2519410I-9829J-2576D01*
G02X493720Y2562280I-17822J33288D01*
G37*
G36*
G01X494930Y2754330D02*
G02X473820Y2789810I-37729J1572D01*
G03X488440Y2798500I4472J9120D01*
G02X509550Y2763020I37729J-1572D01*
G03X494930Y2754330I-4472J-9120D01*
G37*
G36*
G01X2935060Y110760D02*
G02X2829620Y111290I-52720J265D01*
G01X2830180Y221280D01*
G02X2935620Y220750I52720J-265D01*
G01X2935060Y110760D01*
G37*
G36*
G01X2807630Y1238000D02*
Y1302000D01*
G02X2820350Y1314720I12720J0D01*
G01X2875350D01*
G02X2888070Y1302000I0J-12720D01*
G01Y1238000D01*
G02X2875350Y1225280I-12720J0D01*
G01X2820350D01*
G02X2807630Y1238000I0J12720D01*
G37*
G36*
G01X2856570Y628400D02*
G02X2843850Y615680I-12720J0D01*
G01X2788850D01*
G02X2776130Y628400I0J12720D01*
G01Y692400D01*
G02X2777190Y697490I12721J6D01*
G03X2775080Y703920I-4653J2034D01*
G02X2827820Y719800I18921J32679D01*
G03X2836920Y705120I9097J-4521D01*
G01X2843850D01*
G02X2856570Y692400I0J-12720D01*
G01Y628400D01*
G37*
G36*
G01X1186520Y3116300D02*
Y3180300D01*
G02X1199240Y3193020I12720J0D01*
G01X1254240D01*
G02X1266960Y3180300I0J-12720D01*
G01Y3116300D01*
G02X1254240Y3103580I-12720J0D01*
G01X1199240D01*
G02X1186520Y3116300I0J12720D01*
G37*
G36*
G01X1879400Y3096440D02*
X1847950D01*
G02Y3151960I-69950J27760D01*
G01X1879400D01*
G02Y3096440I25600J-27760D01*
G37*
G36*
G01X2589890Y2733100D02*
G03X2590000Y2726260I3808J-3360D01*
G02X2534180Y2725360I-27500J-25879D01*
G03X2534070Y2732200I-3808J3360D01*
G02X2589890Y2733100I27500J25879D01*
G37*
G36*
G01X2668000Y1480750D02*
Y1535750D01*
G02X2680720Y1548470I12720J0D01*
G01X2744720D01*
G02X2757440Y1535750I0J-12720D01*
G01Y1480750D01*
G02X2744720Y1468030I-12720J0D01*
G01X2680720D01*
G02X2668000Y1480750I0J12720D01*
G37*
G54D25*
X2800120Y356020D03*
G54D24*
X693420Y2664460D03*
X751840Y411480D03*
X1168400Y2235200D03*
X1446350Y2207000D03*
X1475740Y2492250D03*
X1511300Y2405380D03*
X1693950Y127000D03*
X1775400Y251400D03*
X1879600Y127000D03*
X2349500Y596900D03*
X2286000Y482600D03*
G54D23*
X406400Y127000D03*
X939800Y3124200D03*
X914400Y127000D03*
X660400Y3124200D03*
%LPD*%
G75*
G54D10*
G01X2418140Y243840D02*
Y177800D01*
G01X2720850Y578310D02*
G02X2698390Y524090I-76675J0D01*
G01X2418140Y243840D01*
X68580Y1076960D03*
Y919480D03*
X88900Y850900D03*
Y998220D03*
X91360Y1155700D03*
X76200Y1244600D03*
X71120Y2006600D03*
X295150Y40440D03*
X230150D03*
X170150D03*
X295150Y170440D03*
X230150D03*
X295150Y105440D03*
X230150D03*
X170150D03*
X246380Y629920D03*
X349410Y716280D03*
X393700Y1521460D03*
X424180Y2095500D03*
X435520Y2275840D03*
X254000Y2540000D03*
X327660Y3053080D03*
X381000Y3096260D03*
X168150Y3019550D03*
X575410Y42460D03*
X510410D03*
X509880Y229970D03*
X444880D03*
X575410Y172460D03*
X510410D03*
X575410Y107460D03*
X510410D03*
X751840Y411480D03*
X779050Y239030D03*
X714050D03*
X779780Y170180D03*
X713740D03*
X576960Y601030D03*
X456960D03*
X516960Y541030D03*
X576960Y481030D03*
X456960D03*
X566420Y1026160D03*
X595740Y951990D03*
X454340Y1389700D03*
X612260Y1280700D03*
X547260D03*
X482260D03*
X612260Y1215700D03*
X547260D03*
X482260D03*
X612260Y1150700D03*
X547260D03*
X482260D03*
X679850Y1279220D03*
Y1214220D03*
Y1407780D03*
X614850D03*
X682400Y1466760D03*
X678290Y1342780D03*
X613290D03*
X548290D03*
X457200Y1502500D03*
X464820Y1704340D03*
X733550Y1845200D03*
X777240Y2032000D03*
X556260Y1846580D03*
X523240Y1915160D03*
X536430Y2032000D03*
X482600Y2184720D03*
X599440Y2799080D03*
X526170Y2522610D03*
X693420Y2664460D03*
X526170Y2796930D03*
X457200Y2552700D03*
Y2755900D03*
X740790Y3004610D03*
X675790D03*
X610790D03*
X545790D03*
X740790Y2939610D03*
X675790D03*
X610790D03*
X545790D03*
X1097120Y87820D03*
X1101490Y271780D03*
X1100870Y372360D03*
X974050Y369030D03*
X909050D03*
X844050D03*
X974050Y304030D03*
X909050D03*
X844050D03*
X974050Y239030D03*
X909050D03*
X844050D03*
X840740Y678180D03*
X899160Y728980D03*
X1054100Y594360D03*
X813270Y746760D03*
X1041400Y914400D03*
X1041410Y838200D03*
X812480Y1873590D03*
X1096010Y2005970D03*
X1041400Y2225040D03*
X1108080Y2189480D03*
X889650Y2181210D03*
X980440Y2504440D03*
X876300Y2438400D03*
X828040Y2390140D03*
X962660Y2288540D03*
X797560Y2654300D03*
X914400Y2768600D03*
X826490Y2763520D03*
X1025580Y3002630D03*
X960580D03*
X895580D03*
X1025580Y2937630D03*
X960580D03*
X895580D03*
X1120140Y3022600D03*
X1357120Y87820D03*
X1292120D03*
X1227120D03*
X1162120D03*
X1468400Y754380D03*
X1390540Y691950D03*
X1325540D03*
X1390540Y626950D03*
X1325540D03*
X1432560Y1008380D03*
X1462390Y1071230D03*
X1369060Y1076960D03*
X1244600Y1186900D03*
X1288800Y1251200D03*
X1244600Y1315500D03*
X1346200Y1143000D03*
X1348740Y1524000D03*
X1403430Y2156460D03*
X1446150Y2080260D03*
X1141730Y2056130D03*
X1422400Y1828800D03*
X1230360Y2488390D03*
X1280360Y2438390D03*
X1180360D03*
X1168400Y2235200D03*
X1446350Y2207000D03*
X1475740Y2492250D03*
X1363980Y2278380D03*
X1280360Y2538390D03*
X1180360D03*
X1295400Y2733040D03*
X1193800Y2971800D03*
X1361440Y3241040D03*
X1732280Y441960D03*
X1718350Y385690D03*
X1593000Y210400D03*
X1638300Y175260D03*
X1551940D03*
X1524200Y284680D03*
X1525050Y368790D03*
X1693950Y127000D03*
X1775400Y251400D03*
X1524200Y530860D03*
X1523640Y443940D03*
X1701800Y558800D03*
X1803400Y683260D03*
X1539240Y695960D03*
X1727200Y1092200D03*
X1821900Y1447800D03*
X1764200Y1447450D03*
X1821990Y1386810D03*
X1764530Y1387160D03*
X1485900Y1155700D03*
X1729740Y1303020D03*
X1727200Y1211580D03*
X1496060Y1658620D03*
X1554480Y1554480D03*
X1541780Y1619150D03*
X1675480Y2078550D03*
X1668400Y1922780D03*
X1651000Y2133600D03*
X1656080Y2402840D03*
X1671320Y2468880D03*
X1670920Y2202180D03*
X1753870Y2470150D03*
X1511300Y2405380D03*
X1651000Y2260600D03*
X1666240Y2329180D03*
X1484370Y2642620D03*
X1539560Y2659480D03*
X1694180Y2537460D03*
X1511300Y2740660D03*
X1727200D03*
X1778000Y2692400D03*
X1625600Y2842260D03*
X1638300Y3167380D03*
X1584960Y3035300D03*
X1638300Y3241040D03*
X2085400Y249700D03*
X1981200Y127000D03*
X1879600D03*
X1981200Y759460D03*
X1932940Y508000D03*
X1928290Y450470D03*
X1892300Y685800D03*
X1894840Y759460D03*
X2101140Y1122680D03*
X2016760Y889000D03*
X1879600Y1447800D03*
X1879690Y1386850D03*
X1950210Y1328420D03*
X1905000Y1600200D03*
X2159000Y1480820D03*
X1854200Y1752600D03*
X1905000Y1701800D03*
X2133600Y1803400D03*
X1955800Y1651000D03*
X1981200Y1549400D03*
X1930400Y2230120D03*
X1890990Y2403660D03*
X1935200Y2362730D03*
X1892300Y2621280D03*
X1828800Y2641600D03*
X1955800Y2654300D03*
X1983740Y2717800D03*
X1905000Y3124200D03*
X2009140Y3247350D03*
X2110740D03*
X2184400Y127000D03*
X2418140Y243840D03*
Y177800D03*
X2277550Y732350D03*
X2349500Y596900D03*
X2286000Y482600D03*
X2209800Y952500D03*
X2289810Y1130300D03*
X2359660Y1041400D03*
X2280920Y952500D03*
X2331720Y1757680D03*
X2260600Y1488440D03*
X2209800Y1727200D03*
X2270760Y1673860D03*
X2364230Y1892300D03*
X2423160D03*
X2227580Y1882140D03*
X2296160Y2016760D03*
X2248460Y2059380D03*
X2171700Y1955800D03*
X2361380Y2030180D03*
X2504780Y2076130D03*
X2393830Y2080940D03*
X2432870Y2478460D03*
X2352870D03*
X2272870D03*
X2192870D03*
X2432870Y2398460D03*
X2352870D03*
X2272870D03*
X2192870D03*
X2432870Y2318460D03*
X2352870D03*
X2272870D03*
X2192870D03*
X2432870Y2558460D03*
X2352870D03*
X2272870D03*
X2192870D03*
X2270760Y2847340D03*
X2451400Y2794000D03*
X2385060Y2795380D03*
X2202180Y2842260D03*
X2395220Y2971800D03*
X2458720D03*
X2708420Y39930D03*
X2643420D03*
X2578420D03*
X2797650Y284900D03*
X2732650D03*
X2787050Y208280D03*
X2722050D03*
X2657050D03*
X2774420Y125620D03*
X2709420D03*
X2644420D03*
X2579420D03*
X2600960Y645160D03*
X2514600Y711200D03*
X2794000Y736600D03*
X2642800Y711200D03*
X2780240Y1075130D03*
X2660240D03*
X2720240Y1015130D03*
X2780240Y955130D03*
X2660240D03*
X2636520Y1394460D03*
X2555240Y1346200D03*
X2529550Y1636160D03*
X2661920Y1554480D03*
X2616200Y1488440D03*
X2771140Y1612900D03*
X2636520Y1711960D03*
X2781300Y1724660D03*
X2631440Y1828800D03*
X2621280Y2042160D03*
X2641600Y1955800D03*
X2839720Y1935480D03*
X2705100D03*
X2679700Y2013800D03*
X2534920Y2026920D03*
X2600960Y2110740D03*
X2652050Y2326350D03*
X2711690Y2334840D03*
X2772890Y2332520D03*
X2806700Y2265680D03*
X2763260Y2448300D03*
X2737860Y2392680D03*
X2712750Y2707750D03*
X2561570Y2758080D03*
X2562500Y2700380D03*
X2529840Y2974340D03*
X2588260Y2994660D03*
X2618340Y2876210D03*
X2832500Y2983690D03*
X2894810Y608810D03*
X2895600Y660400D03*
X2870200Y1346200D03*
X2997200Y1219200D03*
Y1701800D03*
X2921000Y1935480D03*
X2895600Y1828800D03*
X2960060Y2287630D03*
X2895060D03*
X2960060Y2222630D03*
X2895060D03*
X2876410Y2570480D03*
X2970600Y2752550D03*
G54D20*
G01X2451400Y2794000D02*
Y2841700D01*
X2363920Y2929180D01*
X2362760D01*
X2317600Y2974340D01*
X1295410D01*
X1247150Y3022600D01*
X1120140D01*
G01X1701800Y558800D02*
X1958340D01*
X2133600Y734060D01*
Y947420D01*
X2283590Y1097410D01*
G01X1890990Y2403660D02*
Y2411710D01*
X1857260Y2445440D01*
G01X2616200Y1488440D02*
X2524760Y1579880D01*
X2197100D01*
X2029460Y1747520D01*
Y2484120D01*
X1892300Y2621280D01*
G01X2636520Y1394460D02*
X2491740Y1539240D01*
X2182240D01*
X1990220Y1731260D01*
Y2449710D01*
X1828800Y2611130D01*
Y2641600D01*
G01X2652050Y2326350D02*
X2574740Y2249040D01*
X2200780D01*
X2076580Y2124840D01*
Y1881120D01*
X2077720Y1879980D01*
Y1859280D01*
X2133600Y1803400D01*
G01X2711690Y2334840D02*
Y2315640D01*
X2605850Y2209800D01*
X2219960D01*
X2115820Y2105660D01*
Y1897380D01*
X2209800Y1803400D01*
Y1727200D01*
G01X2772890Y2332520D02*
Y2310620D01*
X2631430Y2169160D01*
X2240280D01*
X2174240Y2103120D01*
Y2044700D01*
X2311400Y1907540D01*
Y1846020D01*
X2270760Y1805380D01*
Y1673860D01*
G01X2636520Y1711960D02*
X2550160Y1798320D01*
Y1841400D01*
X2361380Y2030180D01*
G01X2763260Y2448300D02*
X2730500Y2481060D01*
Y2585720D01*
G01X2737860Y2392680D02*
X2882900D01*
X2903220Y2413000D01*
G01D02*
X2862580D01*
G54D11*
X406400Y127000D03*
X660400Y3124200D03*
X914400Y127000D03*
X939800Y3124200D03*
X1498600D03*
X1549400Y1320800D03*
X1778000Y3124200D03*
X2364740Y1409700D03*
X2730500Y2585720D03*
X2895600Y1828800D03*
Y1549400D03*
X2903220Y2413000D03*
G54D21*
G01X536430Y2032000D02*
X460230Y1955800D01*
X304800D01*
X203200Y1854200D01*
Y1345800D01*
X127400Y1270000D01*
X127000D01*
X101600Y1244600D01*
X76200D01*
G01X797560Y2654300D02*
Y2606600D01*
X812800Y2591360D01*
Y2590800D01*
X939800Y2463800D01*
Y2362200D01*
X863600Y2286000D01*
X711200D01*
X431800Y2006600D01*
X71120D01*
G01X246380Y629920D02*
Y845820D01*
X476960Y1076400D01*
X710640D01*
X762000Y1127760D01*
Y1722120D01*
X995610Y1955730D01*
X1473270D01*
X1727200Y1701800D01*
X1905000D01*
G01X381000Y3096260D02*
Y2512060D01*
X454660Y2438400D01*
X876300D01*
G01X828040Y2390140D02*
X429260D01*
X327660Y2491740D01*
Y3053080D01*
G01X254000Y2540000D02*
Y2768600D01*
X168150Y2854450D01*
Y3019550D01*
G01X813270Y746760D02*
Y794460D01*
X812800Y794930D01*
Y1706880D01*
X1010920Y1905000D01*
X1447800D01*
X1701800Y1651000D01*
X1955800D01*
G01X962660Y2288540D02*
Y2161540D01*
X1017830Y2106370D01*
X1195630D01*
X1295400Y2006600D01*
X1498600D01*
X1752600Y1752600D01*
X1854200D01*
G01X914400Y2768600D02*
X988060Y2842260D01*
X1211580D01*
X1261820Y2892500D01*
X2223000D01*
X2228110Y2887390D01*
X2230710D01*
X2270760Y2847340D01*
G01X826490Y2763520D02*
Y2748840D01*
X871870Y2703460D01*
X928000D01*
X1015440Y2790900D01*
X1910640D01*
X1983740Y2717800D01*
G01X1444750Y1727200D02*
X1524000D01*
X1651000Y1600200D01*
X1905000D01*
G01X1496060Y1658620D02*
Y1651510D01*
X1445050Y1600500D01*
G01X1422400Y1828800D02*
X1349250Y1755650D01*
Y1727200D01*
G01X1348740Y1524000D02*
X1373470Y1499270D01*
X1600870D01*
X1651000Y1549400D01*
X1981200D01*
G01X1666240Y2329180D02*
X1414780D01*
X1363980Y2278380D01*
G01X1226740Y3205500D02*
Y3148300D01*
G01X1498600Y3124200D02*
X1346340D01*
X1322240Y3148300D01*
G01X1193800Y2971800D02*
X1231900Y2933700D01*
X2294440D01*
X2381540Y2846600D01*
G02X2384410Y2843450I-33046J-32991D01*
G03X2385060Y2842690I71297J60320D01*
G01Y2795380D01*
G01X1361440Y3241040D02*
X1262280D01*
X1226740Y3205500D01*
G01X2283590Y1097410D02*
X2289810Y1103630D01*
Y1130300D01*
G01X1539240Y695960D02*
Y655760D01*
X1567620Y627380D01*
X1932940D01*
X2070100Y764540D01*
Y982980D01*
X2209800Y1122680D01*
Y1168400D01*
X2286000Y1244600D01*
X2453640D01*
X2555240Y1346200D01*
G01X1668400Y1922780D02*
Y1970480D01*
X1775640Y2077720D01*
X1899920D01*
X1930400Y2108200D01*
Y2230120D01*
G01X1935200Y2362730D02*
X1879600Y2307130D01*
Y2158600D01*
X1854600Y2133600D01*
X1651000D01*
G01Y2260600D02*
X1747530D01*
X1856860Y2369930D01*
X1857260D01*
X1890990Y2403660D01*
G01X1857260Y2445440D02*
X1562040Y2740660D01*
X1511300D01*
G01X1935200Y2362730D02*
X1945640Y2373170D01*
Y2428480D01*
X1727200Y2646920D01*
Y2740660D01*
G01X1955800Y2654300D02*
Y2667000D01*
X1930400Y2692400D01*
X1778000D01*
G01X1584960Y3035300D02*
Y3037840D01*
X1498600Y3124200D01*
G01X2202180Y2842260D02*
X1625600D01*
G01X1778000Y3124200D02*
X1905000D01*
G01X1950210Y1192520D02*
Y1199920D01*
G01X2600960Y645160D02*
X2491740D01*
X2425700Y711200D01*
Y891540D01*
X2291080Y1026160D01*
Y1129030D01*
X2289810Y1130300D01*
G01X2359660Y1041400D02*
X2480870Y920190D01*
Y744930D01*
X2514600Y711200D01*
G01X2184400Y1378710D02*
X2189480D01*
Y1383790D01*
G01X2184400Y1378710D02*
Y1455420D01*
X2159000Y1480820D01*
G01X2364740Y1409700D02*
X2346960D01*
G01X2260600Y1488440D02*
Y1485900D01*
X2336800Y1409700D01*
X2346960D01*
G01X2184400Y1283210D02*
X2220470D01*
X2346960Y1409700D01*
G01X2895600Y1549400D02*
Y1694180D01*
X2710740Y1879040D01*
X2595730D01*
X2393830Y2080940D01*
G01X2895600Y1549400D02*
X2898140Y1546860D01*
Y1457960D01*
X2852930Y1412750D01*
X2712720D01*
G01Y1777490D02*
X2682750D01*
G01X2712720Y1508250D02*
X2708150D01*
X2661920Y1554480D01*
G01X2631440Y1828800D02*
X2682750Y1777490D01*
G01D02*
X2687830Y1772410D01*
X2712720D01*
G01X2771140Y1612900D02*
X2661520D01*
X2636520Y1637900D01*
Y1711960D01*
G01X2738630Y1681990D02*
X2781300Y1724660D01*
G01X2712720Y1681990D02*
X2738630D01*
G01X2712720Y1676910D02*
X2733550D01*
X2738630Y1681990D01*
G01X2895600Y1828800D02*
X2865120D01*
X2768600Y1925320D01*
Y2022450D01*
X2680310Y2110740D01*
X2600960D01*
G01X2997200Y1701800D02*
Y2108600D01*
X2946800Y2159000D01*
X2865680D01*
X2806700Y2217980D01*
Y2265680D01*
G54D12*
X983300Y1346200D03*
X1150300Y1251200D03*
Y1441200D03*
X983300Y1727200D03*
X1150300Y1632200D03*
Y1822200D03*
G54D22*
G01X406400Y49200D02*
Y127000D01*
G01X346310Y66910D02*
X406400Y127000D01*
G01D02*
Y204800D01*
G01X328600Y127000D02*
X406400D01*
G01D02*
X484200D01*
G01X406400D02*
X466490Y187090D01*
G01X346310D02*
X406400Y127000D01*
G01D02*
X466490Y66910D01*
G01X660400Y3046400D02*
Y3124200D01*
G01D02*
Y3202000D01*
G01X582600Y3124200D02*
X660400D01*
G01D02*
X738200D01*
G01X600310Y3064110D02*
X660400Y3124200D01*
G01D02*
X720490Y3184290D01*
G01X600310D02*
X660400Y3124200D01*
G01D02*
X720490Y3064110D01*
G01X914400Y49200D02*
Y127000D01*
G01X854310Y66910D02*
X914400Y127000D01*
G01D02*
X974490Y66910D01*
G01X914400Y127000D02*
Y204800D01*
G01X836600Y127000D02*
X914400D01*
G01D02*
X992200D01*
G01X914400D02*
X974490Y187090D01*
G01X854310D02*
X914400Y127000D01*
G01X939800Y3046400D02*
Y3124200D01*
G01D02*
Y3202000D01*
G01X862000Y3124200D02*
X939800D01*
G01D02*
X1017600D01*
G01X879710Y3064110D02*
X939800Y3124200D01*
G01D02*
X999890Y3184290D01*
G01X879710D02*
X939800Y3124200D01*
G01D02*
X999890Y3064110D01*
G01X1226740Y3098500D02*
Y3148300D01*
G01X1181440D02*
X1226740D01*
G01X1183940Y3098500D02*
X1226740Y3148300D01*
G01D02*
X1269540Y3198100D01*
G01X1183940D02*
X1226740Y3148300D01*
G01D02*
X1269540Y3098500D01*
G01X2317050Y53220D02*
X2317620Y166020D01*
G01D02*
X2374850Y52930D01*
G01X2259250Y53510D02*
X2317620Y166020D01*
G01X2259820Y166310D02*
X2317620Y166020D01*
G01D02*
X2318190Y278820D01*
G01X2260390Y279110D02*
X2317620Y166020D01*
G01D02*
X2375990Y278530D01*
G01X2824250Y53510D02*
X2882620Y166020D01*
G01X2824820Y166310D02*
X2882620Y166020D01*
G01X2825390Y279110D02*
X2882620Y166020D01*
G01X2773550Y610600D02*
X2816350Y660400D01*
G01D02*
X2859150Y710200D01*
G01X2816350Y660400D02*
X2859150Y610600D01*
G01X2802550Y1270000D02*
X2847850D01*
G01X2805050Y1220200D02*
X2847850Y1270000D01*
G01X2805050Y1319800D02*
X2847850Y1270000D01*
G01X2662920Y1815210D02*
X2712720Y1772410D01*
G01X2662920Y1751010D02*
X2712720Y1772410D01*
G01Y1508250D02*
Y1553550D01*
G01Y1508250D02*
X2762520D01*
G01X2662920Y1465450D02*
X2712720Y1508250D01*
G01D02*
X2762520Y1551050D01*
G01X2662920D02*
X2712720Y1508250D01*
G01D02*
X2762520Y1465450D01*
G01X2882050Y53220D02*
X2882620Y166020D01*
G01D02*
X2939850Y52930D01*
G01X2882620Y166020D02*
X2940420Y165730D01*
G01X2882620Y166020D02*
X2883190Y278820D01*
G01X2882620Y166020D02*
X2940990Y278530D01*
G01X2847850Y1270000D02*
X2890650Y1319800D01*
G01X2847850Y1270000D02*
X2890650Y1220200D01*
G54D13*
X1145120Y929640D03*
X1283120D03*
X1142580Y1064260D03*
X1280580D03*
X1841080Y975360D03*
X1979080D03*
X1843620Y1125220D03*
X1981620D03*
G54D14*
X1349250Y1727200D03*
X1444750D03*
X1349250Y1600200D03*
X1444750D03*
X1322240Y3148300D03*
X1226740D03*
X1552450Y965200D03*
X1647950D03*
X1552450Y1092200D03*
X1647950D03*
Y840740D03*
X1552450D03*
X1854710Y830580D03*
X1950210D03*
Y1252220D03*
X1854710D03*
X2720850Y660400D03*
X2816350D03*
X2847850Y1270000D03*
X2943350D03*
G54D15*
X2317620Y166020D03*
X2882620D03*
G54D16*
X2184400Y1283210D03*
Y1378710D03*
X2712720Y1412750D03*
Y1508250D03*
Y1676910D03*
Y1772410D03*
G54D17*
G01X17780Y-5080D02*
X3030220D01*
G03X3055620Y20320I0J25400D01*
G01Y499050D01*
X2956560D01*
Y764540D01*
X3055620Y863600D01*
Y3294380D01*
G03X3037840Y3312160I-17780J0D01*
G01X5080D01*
G03X-10160Y3296920I0J-15240D01*
G01Y3012440D01*
G01X53340Y1744980D02*
X-25400Y1666240D01*
Y22860D01*
G03X2540Y-5080I27940J0D01*
G01X17780D01*
G01X45720Y1917700D02*
X83820Y1879600D01*
Y1775460D01*
X35560Y1727200D01*
G01X-10160Y2687320D02*
Y1973580D01*
X50800Y1912620D01*
G01X-10160Y3012440D02*
Y2687320D01*
G01X2956560Y499050D02*
Y764540D01*
G54D18*
G01X349410Y716280D02*
Y819310D01*
X482090Y951990D01*
X595740D01*
G01X1041400Y914400D02*
Y963080D01*
X1142580Y1064260D01*
G01X1041410Y838200D02*
X1053680D01*
X1145120Y929640D01*
G01X1462390Y1071230D02*
Y1059760D01*
X1552450Y969700D01*
Y965200D01*
G01X1280580Y1064260D02*
Y1077380D01*
X1346200Y1143000D01*
G01X1369060Y1076960D02*
Y1005840D01*
X1292860Y929640D01*
X1283120D01*
G01X1445050Y1600500D02*
X1444750Y1600200D01*
G01X1541780Y1619150D02*
X1535330D01*
X1516680Y1600500D01*
X1445050D01*
G01X1444750Y1600200D02*
X1490470Y1554480D01*
X1554480D01*
G01X1647950Y840740D02*
Y788510D01*
X1753200Y683260D01*
X1803400D01*
G01X1647950Y1092200D02*
Y1087700D01*
X1717040Y1018610D01*
Y797560D01*
X1767840Y746760D01*
X1831340D01*
X1892300Y685800D01*
G01X1552450Y840740D02*
Y965200D01*
G01X1647950D02*
Y840740D01*
G01X1552450Y1096700D02*
Y1092200D01*
G01X1485900Y1155700D02*
X1544900Y1096700D01*
X1552450D01*
G01X1549400Y1320800D02*
X1552450Y1313440D01*
Y1096700D01*
G01X1727200Y1092200D02*
X1790700Y1028700D01*
X1798240D01*
X1841080Y985860D01*
Y975360D01*
G01X1729740Y1303020D02*
X1780540Y1252220D01*
X1854710D01*
G01X1843620Y1125220D02*
X1813560D01*
X1727200Y1211580D01*
G01X1950210Y830580D02*
Y790450D01*
X1981200Y759460D01*
G01X1894840D02*
X1854710Y799590D01*
Y830580D01*
G01X1981620Y1125220D02*
X1950210Y1156630D01*
Y1192520D01*
G01Y1199920D02*
Y1252220D01*
G01X2016760Y889000D02*
X1979080Y926680D01*
Y975360D01*
G01X2101140Y1122680D02*
X2050940D01*
X2048400Y1125220D01*
X1981620D01*
G01X1950210Y1328420D02*
Y1252220D01*
G01X1854710D02*
Y1241490D01*
G01X2816350Y660400D02*
X2895600D01*
G01X2863440Y608810D02*
X2816350Y655900D01*
Y660400D01*
G01X2870200Y1346200D02*
X2847850Y1323850D01*
G01X2894810Y608810D02*
X2863440D01*
G01X2847850Y1265500D02*
Y1270000D01*
G01Y1323850D02*
Y1270000D01*
G01X2943350D02*
X2946400D01*
X2997200Y1219200D01*
G54D19*
G01X1332500Y660400D02*
X1092200D01*
X957900Y794700D01*
Y1320800D01*
X983300Y1346200D01*
G01X1150300Y1441200D02*
X1094900D01*
X983300Y1552800D01*
Y1727200D01*
G01X1349250Y1600200D02*
Y1604700D01*
X1226750Y1727200D01*
X983300D01*
G01X1150300Y1618300D02*
X1333500Y1435100D01*
X1727330D01*
G01X1180300Y1251200D02*
X1244600Y1186900D01*
G01X1180300Y1251200D02*
X1288800D01*
G01X1180300D02*
X1244600Y1315500D01*
G01X1150300Y1251200D02*
X1180300D01*
G01X1163780Y1441200D02*
X1150300D01*
G01Y1618300D02*
Y1632200D01*
G01Y1607500D02*
Y1618300D01*
G01X1349250Y1727200D02*
X1254250Y1822200D01*
X1150300D01*
G01X1727330Y1435100D02*
X1739590Y1447360D01*
X1764110D01*
X1764200Y1447450D01*
G01X2720850Y660400D02*
Y578310D01*
G01X2642800Y711200D02*
X2693600Y660400D01*
X2720850D01*
M02*
