G04 ================== begin FILE IDENTIFICATION RECORD ==================*
G04 Layout Name:  PRISON_GOD_PCB_V235_SOMECHANGE.brd*
G04 Film Name:    DRILL*
G04 File Format:  Gerber RS274X*
G04 File Origin:  Cadence Allegro 17.2-S004*
G04 Origin Date:  Wed Jan 04 13:13:35 2017*
G04 *
G04 Layer:  MANUFACTURING/NCLEGEND-4-4*
G04 Layer:  MANUFACTURING/NCLEGEND-1-4*
G04 Layer:  BOARD GEOMETRY/OUTLINE*
G04 *
G04 Offset:    (0.0000 0.0000)*
G04 Mirror:    No*
G04 Mode:      Positive*
G04 Rotation:  0*
G04 FullContactRelief:  No*
G04 UndefLineWidth:     0.2000*
G04 ================== end FILE IDENTIFICATION RECORD ====================*
%FSLAX55Y55*MOMM*%
%IR0*IPPOS*OFA0.00000B0.00000*MIA0B0*SFA1.00000B1.00000*%
%AMMACRO10*
1,1,.2,.15,.15*
20,1,.2,.15,.15,.15,-.15,0.0*
1,1,.2,.15,-.15*
20,1,.2,.15,-.15,-.15,-.15,0.0*
1,1,.2,-.15,-.15*
20,1,.2,-.15,-.15,-.15,.15,0.0*
1,1,.2,-.15,.15*
20,1,.2,-.15,.15,.15,.15,0.0*
1,1,.2,.15,.15*
1,1,.2,-.1375,.075*
20,1,.2,-.1375,.075,-.075,-.075,0.0*
1,1,.2,-.075,-.075*
20,1,.2,-.075,-.075,-.0125,.075,0.0*
1,1,.2,-.0125,.075*
1,1,.2,.0201,-.045*
20,1,.2,.0201,-.045,.0351,-.0625,0.0*
1,1,.2,.0351,-.0625*
20,1,.2,.0351,-.0625,.0551,-.0725,0.0*
1,1,.2,.0551,-.0725*
20,1,.2,.0551,-.0725,.0776,-.075,0.0*
1,1,.2,.0776,-.075*
20,1,.2,.0776,-.075,.0976,-.0725,0.0*
1,1,.2,.0976,-.0725*
20,1,.2,.0976,-.0725,.1176,-.06,0.0*
1,1,.2,.1176,-.06*
20,1,.2,.1176,-.06,.1301,-.045,0.0*
1,1,.2,.1301,-.045*
20,1,.2,.1301,-.045,.1326,-.03,0.0*
1,1,.2,.1326,-.03*
20,1,.2,.1326,-.03,.1276,-.0125,0.0*
1,1,.2,.1276,-.0125*
20,1,.2,.1276,-.0125,.1101,0.0,0.0*
1,1,.2,.1101,0.0*
20,1,.2,.1101,0.0,.0926,.005,0.0*
1,1,.2,.0926,.005*
20,1,.2,.0926,.005,.0701,.005,0.0*
1,1,.2,.0701,.005*
1,1,.2,.0926,.005*
20,1,.2,.0926,.005,.1076,.0125,0.0*
1,1,.2,.1076,.0125*
20,1,.2,.1076,.0125,.1201,.025,0.0*
1,1,.2,.1201,.025*
20,1,.2,.1201,.025,.1251,.04,0.0*
1,1,.2,.1251,.04*
20,1,.2,.1251,.04,.1201,.055,0.0*
1,1,.2,.1201,.055*
20,1,.2,.1201,.055,.1076,.0675,0.0*
1,1,.2,.1076,.0675*
20,1,.2,.1076,.0675,.0851,.075,0.0*
1,1,.2,.0851,.075*
20,1,.2,.0851,.075,.0626,.0725,0.0*
1,1,.2,.0626,.0725*
20,1,.2,.0626,.0725,.0401,.0625,0.0*
1,1,.2,.0401,.0625*
%
%ADD10MACRO10*%
%AMMACRO11*
1,1,.2,-.2278,-.5489*
20,1,.2,-.2278,-.5489,-.2222,.5511,0.0*
1,1,.2,-.2222,.5511*
20,1,.2,-.2222,.5511,-.218588,.590154,0.0*
1,1,.2,-.218588,.590154*
20,1,.2,-.218588,.590154,-.208252,.627987,0.0*
1,1,.2,-.208252,.627987*
20,1,.2,-.208252,.627987,-.191503,.663451,0.0*
1,1,.2,-.191503,.663451*
20,1,.2,-.191503,.663451,-.168851,.695468,0.0*
1,1,.2,-.168851,.695468*
20,1,.2,-.168851,.695468,-.140983,.723065,0.0*
1,1,.2,-.140983,.723065*
20,1,.2,-.140983,.723065,-.108746,.745403,0.0*
1,1,.2,-.108746,.745403*
20,1,.2,-.108746,.745403,-.07312,.761805,0.0*
1,1,.2,-.07312,.761805*
20,1,.2,-.07312,.761805,-.035187,.77177,0.0*
1,1,.2,-.035187,.77177*
20,1,.2,-.035187,.77177,.0039,.774997,0.0*
1,1,.2,.0039,.774997*
20,1,.2,.0039,.774997,.042954,.771388,0.0*
1,1,.2,.042954,.771388*
20,1,.2,.042954,.771388,.080787,.761052,0.0*
1,1,.2,.080787,.761052*
20,1,.2,.080787,.761052,.116251,.744303,0.0*
1,1,.2,.116251,.744303*
20,1,.2,.116251,.744303,.148268,.721651,0.0*
1,1,.2,.148268,.721651*
20,1,.2,.148268,.721651,.175865,.693783,0.0*
1,1,.2,.175865,.693783*
20,1,.2,.175865,.693783,.198203,.661546,0.0*
1,1,.2,.198203,.661546*
20,1,.2,.198203,.661546,.214605,.62592,0.0*
1,1,.2,.214605,.62592*
20,1,.2,.214605,.62592,.22457,.587987,0.0*
1,1,.2,.22457,.587987*
20,1,.2,.22457,.587987,.2278,.5489,0.0*
1,1,.2,.2278,.5489*
20,1,.2,.2278,.5489,.2222,-.5511,0.0*
1,1,.2,.2222,-.5511*
20,1,.2,.2222,-.5511,.218588,-.590154,0.0*
1,1,.2,.218588,-.590154*
20,1,.2,.218588,-.590154,.208252,-.627987,0.0*
1,1,.2,.208252,-.627987*
20,1,.2,.208252,-.627987,.191503,-.663451,0.0*
1,1,.2,.191503,-.663451*
20,1,.2,.191503,-.663451,.168851,-.695468,0.0*
1,1,.2,.168851,-.695468*
20,1,.2,.168851,-.695468,.140983,-.723065,0.0*
1,1,.2,.140983,-.723065*
20,1,.2,.140983,-.723065,.108746,-.745403,0.0*
1,1,.2,.108746,-.745403*
20,1,.2,.108746,-.745403,.07312,-.761805,0.0*
1,1,.2,.07312,-.761805*
20,1,.2,.07312,-.761805,.035187,-.77177,0.0*
1,1,.2,.035187,-.77177*
20,1,.2,.035187,-.77177,-.0039,-.774997,0.0*
1,1,.2,-.0039,-.774997*
20,1,.2,-.0039,-.774997,-.042954,-.771388,0.0*
1,1,.2,-.042954,-.771388*
20,1,.2,-.042954,-.771388,-.080787,-.761052,0.0*
1,1,.2,-.080787,-.761052*
20,1,.2,-.080787,-.761052,-.116251,-.744303,0.0*
1,1,.2,-.116251,-.744303*
20,1,.2,-.116251,-.744303,-.148268,-.721651,0.0*
1,1,.2,-.148268,-.721651*
20,1,.2,-.148268,-.721651,-.175865,-.693783,0.0*
1,1,.2,-.175865,-.693783*
20,1,.2,-.175865,-.693783,-.198203,-.661546,0.0*
1,1,.2,-.198203,-.661546*
20,1,.2,-.198203,-.661546,-.214605,-.62592,0.0*
1,1,.2,-.214605,-.62592*
20,1,.2,-.214605,-.62592,-.22457,-.587987,0.0*
1,1,.2,-.22457,-.587987*
20,1,.2,-.22457,-.587987,-.2278,-.5489,0.0*
1,1,.2,-.2278,-.5489*
1,1,.2,-.0975,-.1125*
20,1,.2,-.0975,-.1125,-.0975,.1125,0.0*
1,1,.2,-.0975,.1125*
20,1,.2,-.0975,.1125,0.0,-.075,0.0*
1,1,.2,0.0,-.075*
20,1,.2,0.0,-.075,.0975,.1125,0.0*
1,1,.2,.0975,.1125*
20,1,.2,.0975,.1125,.0975,-.1125,0.0*
1,1,.2,.0975,-.1125*
%
%ADD11MACRO11*%
%ADD12C,.1*%
%ADD13C,.2*%
G75*
%LPD*%
G75*
G54D10*
X68580Y1076960D03*
Y919480D03*
X88900Y850900D03*
Y998220D03*
X91360Y1155700D03*
X76200Y1244600D03*
X71120Y2006600D03*
X295150Y40440D03*
X230150D03*
X170150D03*
X295150Y170440D03*
X230150D03*
X295150Y105440D03*
X230150D03*
X170150D03*
X246380Y629920D03*
X349410Y716280D03*
X393700Y1521460D03*
X424180Y2095500D03*
X435520Y2275840D03*
X254000Y2540000D03*
X327660Y3053080D03*
X381000Y3096260D03*
X168150Y3019550D03*
X575410Y42460D03*
X510410D03*
X509880Y229970D03*
X444880D03*
X575410Y172460D03*
X510410D03*
X575410Y107460D03*
X510410D03*
X751840Y411480D03*
X779050Y239030D03*
X714050D03*
X779780Y170180D03*
X713740D03*
X576960Y601030D03*
X456960D03*
X516960Y541030D03*
X576960Y481030D03*
X456960D03*
X566420Y1026160D03*
X595740Y951990D03*
X454340Y1389700D03*
X612260Y1280700D03*
X547260D03*
X482260D03*
X612260Y1215700D03*
X547260D03*
X482260D03*
X612260Y1150700D03*
X547260D03*
X482260D03*
X679850Y1279220D03*
Y1214220D03*
Y1407780D03*
X614850D03*
X682400Y1466760D03*
X678290Y1342780D03*
X613290D03*
X548290D03*
X457200Y1502500D03*
X464820Y1704340D03*
X733550Y1845200D03*
X777240Y2032000D03*
X556260Y1846580D03*
X523240Y1915160D03*
X536430Y2032000D03*
X482600Y2184720D03*
X599440Y2799080D03*
X526170Y2522610D03*
X693420Y2664460D03*
X526170Y2796930D03*
X457200Y2552700D03*
Y2755900D03*
X740790Y3004610D03*
X675790D03*
X610790D03*
X545790D03*
X740790Y2939610D03*
X675790D03*
X610790D03*
X545790D03*
X1097120Y87820D03*
X1101490Y271780D03*
X1100870Y372360D03*
X974050Y369030D03*
X909050D03*
X844050D03*
X974050Y304030D03*
X909050D03*
X844050D03*
X974050Y239030D03*
X909050D03*
X844050D03*
X840740Y678180D03*
X899160Y728980D03*
X1054100Y594360D03*
X813270Y746760D03*
X1041400Y914400D03*
X1041410Y838200D03*
X812480Y1873590D03*
X1096010Y2005970D03*
X1041400Y2225040D03*
X1108080Y2189480D03*
X889650Y2181210D03*
X980440Y2504440D03*
X876300Y2438400D03*
X828040Y2390140D03*
X962660Y2288540D03*
X797560Y2654300D03*
X914400Y2768600D03*
X826490Y2763520D03*
X1025580Y3002630D03*
X960580D03*
X895580D03*
X1025580Y2937630D03*
X960580D03*
X895580D03*
X1120140Y3022600D03*
X1357120Y87820D03*
X1292120D03*
X1227120D03*
X1162120D03*
X1468400Y754380D03*
X1390540Y691950D03*
X1325540D03*
X1390540Y626950D03*
X1325540D03*
X1432560Y1008380D03*
X1462390Y1071230D03*
X1369060Y1076960D03*
X1244600Y1186900D03*
X1288800Y1251200D03*
X1244600Y1315500D03*
X1346200Y1143000D03*
X1348740Y1524000D03*
X1403430Y2156460D03*
X1446150Y2080260D03*
X1141730Y2056130D03*
X1422400Y1828800D03*
X1230360Y2488390D03*
X1280360Y2438390D03*
X1180360D03*
X1168400Y2235200D03*
X1446350Y2207000D03*
X1475740Y2492250D03*
X1363980Y2278380D03*
X1280360Y2538390D03*
X1180360D03*
X1295400Y2733040D03*
X1193800Y2971800D03*
X1361440Y3241040D03*
X1732280Y441960D03*
X1718350Y385690D03*
X1593000Y210400D03*
X1638300Y175260D03*
X1551940D03*
X1524200Y284680D03*
X1525050Y368790D03*
X1693950Y127000D03*
X1775400Y251400D03*
X1524200Y530860D03*
X1523640Y443940D03*
X1701800Y558800D03*
X1803400Y683260D03*
X1539240Y695960D03*
X1727200Y1092200D03*
X1821900Y1447800D03*
X1764200Y1447450D03*
X1821990Y1386810D03*
X1764530Y1387160D03*
X1485900Y1155700D03*
X1729740Y1303020D03*
X1727200Y1211580D03*
X1496060Y1658620D03*
X1554480Y1554480D03*
X1541780Y1619150D03*
X1675480Y2078550D03*
X1668400Y1922780D03*
X1651000Y2133600D03*
X1656080Y2402840D03*
X1671320Y2468880D03*
X1670920Y2202180D03*
X1753870Y2470150D03*
X1511300Y2405380D03*
X1651000Y2260600D03*
X1666240Y2329180D03*
X1484370Y2642620D03*
X1539560Y2659480D03*
X1694180Y2537460D03*
X1511300Y2740660D03*
X1727200D03*
X1778000Y2692400D03*
X1625600Y2842260D03*
X1638300Y3167380D03*
X1584960Y3035300D03*
X1638300Y3241040D03*
X2085400Y249700D03*
X1981200Y127000D03*
X1879600D03*
X1981200Y759460D03*
X1932940Y508000D03*
X1928290Y450470D03*
X1892300Y685800D03*
X1894840Y759460D03*
X2101140Y1122680D03*
X2016760Y889000D03*
X1879600Y1447800D03*
X1879690Y1386850D03*
X1950210Y1328420D03*
X1905000Y1600200D03*
X2159000Y1480820D03*
X1854200Y1752600D03*
X1905000Y1701800D03*
X2133600Y1803400D03*
X1955800Y1651000D03*
X1981200Y1549400D03*
X1930400Y2230120D03*
X1890990Y2403660D03*
X1935200Y2362730D03*
X1892300Y2621280D03*
X1828800Y2641600D03*
X1955800Y2654300D03*
X1983740Y2717800D03*
X1905000Y3124200D03*
X2009140Y3247350D03*
X2110740D03*
X2184400Y127000D03*
X2418140Y243840D03*
Y177800D03*
X2277550Y732350D03*
X2349500Y596900D03*
X2286000Y482600D03*
X2209800Y952500D03*
X2289810Y1130300D03*
X2359660Y1041400D03*
X2280920Y952500D03*
X2331720Y1757680D03*
X2260600Y1488440D03*
X2209800Y1727200D03*
X2270760Y1673860D03*
X2364230Y1892300D03*
X2423160D03*
X2227580Y1882140D03*
X2296160Y2016760D03*
X2248460Y2059380D03*
X2171700Y1955800D03*
X2361380Y2030180D03*
X2504780Y2076130D03*
X2393830Y2080940D03*
X2432870Y2478460D03*
X2352870D03*
X2272870D03*
X2192870D03*
X2432870Y2398460D03*
X2352870D03*
X2272870D03*
X2192870D03*
X2432870Y2318460D03*
X2352870D03*
X2272870D03*
X2192870D03*
X2432870Y2558460D03*
X2352870D03*
X2272870D03*
X2192870D03*
X2270760Y2847340D03*
X2451400Y2794000D03*
X2385060Y2795380D03*
X2202180Y2842260D03*
X2395220Y2971800D03*
X2458720D03*
X2708420Y39930D03*
X2643420D03*
X2578420D03*
X2797650Y284900D03*
X2732650D03*
X2787050Y208280D03*
X2722050D03*
X2657050D03*
X2774420Y125620D03*
X2709420D03*
X2644420D03*
X2579420D03*
X2600960Y645160D03*
X2514600Y711200D03*
X2794000Y736600D03*
X2642800Y711200D03*
X2780240Y1075130D03*
X2660240D03*
X2720240Y1015130D03*
X2780240Y955130D03*
X2660240D03*
X2636520Y1394460D03*
X2555240Y1346200D03*
X2529550Y1636160D03*
X2661920Y1554480D03*
X2616200Y1488440D03*
X2771140Y1612900D03*
X2636520Y1711960D03*
X2781300Y1724660D03*
X2631440Y1828800D03*
X2621280Y2042160D03*
X2641600Y1955800D03*
X2839720Y1935480D03*
X2705100D03*
X2679700Y2013800D03*
X2534920Y2026920D03*
X2600960Y2110740D03*
X2652050Y2326350D03*
X2711690Y2334840D03*
X2772890Y2332520D03*
X2806700Y2265680D03*
X2763260Y2448300D03*
X2737860Y2392680D03*
X2712750Y2707750D03*
X2561570Y2758080D03*
X2562500Y2700380D03*
X2529840Y2974340D03*
X2588260Y2994660D03*
X2618340Y2876210D03*
X2832500Y2983690D03*
X2894810Y608810D03*
X2895600Y660400D03*
X2870200Y1346200D03*
X2997200Y1219200D03*
Y1701800D03*
X2921000Y1935480D03*
X2895600Y1828800D03*
X2960060Y2287630D03*
X2895060D03*
X2960060Y2222630D03*
X2895060D03*
X2876410Y2570480D03*
X2970600Y2752550D03*
X6127750Y2514840D03*
G54D11*
Y-708420D03*
G54D12*
G01X17780Y-5080D02*
X3030220D01*
G03X3055620Y20320I0J25400D01*
G01Y499050D01*
X2956560D01*
Y764540D01*
X3055620Y863600D01*
Y3294380D01*
G03X3037840Y3312160I-17780J0D01*
G01X5080D01*
G03X-10160Y3296920I0J-15240D01*
G01Y3012440D01*
G01X53340Y1744980D02*
X-25400Y1666240D01*
Y22860D01*
G03X2540Y-5080I27940J0D01*
G01X17780D01*
G01X45720Y1917700D02*
X83820Y1879600D01*
Y1775460D01*
X35560Y1727200D01*
G01X-10160Y2687320D02*
Y1973580D01*
X50800Y1912620D01*
G01X-10160Y3012440D02*
Y2687320D01*
G01X2956560Y499050D02*
Y764540D01*
G54D13*
G01X4986020Y-1025920D02*
Y1529080D01*
X20812760D01*
Y-1025920D01*
X4986020D01*
G01X5265540Y-232170D02*
Y85330D01*
X5415160D01*
G01X5360030Y-68120D02*
X5265540D01*
G01X5608070Y85330D02*
X5702550D01*
G01X5655310D02*
Y-232170D01*
G01X5608070D02*
X5702550D01*
G01X5993890Y-73420D02*
X6072640D01*
Y-168670D01*
X6049010Y-200430D01*
X6021450Y-221590D01*
X5982080Y-232170D01*
X5942710Y-221590D01*
X5915150Y-200430D01*
X5891530Y-168670D01*
X5875780Y-131630D01*
X5867900Y-89300D01*
Y-52250D01*
X5875780Y-20510D01*
X5891530Y16540D01*
X5915150Y48290D01*
X5938770Y69450D01*
X5970270Y85330D01*
X5997830D01*
X6029320Y74750D01*
X6052950Y53580D01*
G01X6198620Y85330D02*
Y-142210D01*
X6214360Y-189850D01*
X6245860Y-221590D01*
X6285230Y-232170D01*
X6324600Y-221590D01*
X6356100Y-189850D01*
X6371840Y-142210D01*
Y85330D01*
G01X6521450Y-232170D02*
Y85330D01*
X6619870D01*
X6651370Y69450D01*
X6671060Y48290D01*
X6678930Y5950D01*
X6671060Y-36380D01*
X6647430Y-62830D01*
X6619870Y-78720D01*
X6521450D01*
G01X6619870D02*
X6678930Y-232170D01*
G01X6993890D02*
X6836410D01*
Y85330D01*
X6993890D01*
G01X6930900Y-68120D02*
X6836410D01*
G01X4986020Y-390920D02*
X20812760D01*
G01X4986020Y244080D02*
X20812760D01*
G01X4986020Y879080D02*
X20812760D01*
G01X4986020Y2197340D02*
Y4752340D01*
X20812760D01*
Y2197340D01*
X4986020D01*
G01X5265540Y2991090D02*
Y3308590D01*
X5415160D01*
G01X5360030Y3155140D02*
X5265540D01*
G01X5608070Y3308590D02*
X5702550D01*
G01X5655310D02*
Y2991090D01*
G01X5608070D02*
X5702550D01*
G01X5993890Y3149840D02*
X6072640D01*
Y3054590D01*
X6049010Y3022830D01*
X6021450Y3001670D01*
X5982080Y2991090D01*
X5942710Y3001670D01*
X5915150Y3022830D01*
X5891530Y3054590D01*
X5875780Y3091630D01*
X5867900Y3133960D01*
Y3171010D01*
X5875780Y3202750D01*
X5891530Y3239800D01*
X5915150Y3271550D01*
X5938770Y3292710D01*
X5970270Y3308590D01*
X5997830D01*
X6029320Y3298010D01*
X6052950Y3276840D01*
G01X6198620Y3308590D02*
Y3081050D01*
X6214360Y3033410D01*
X6245860Y3001670D01*
X6285230Y2991090D01*
X6324600Y3001670D01*
X6356100Y3033410D01*
X6371840Y3081050D01*
Y3308590D01*
G01X6521450Y2991090D02*
Y3308590D01*
X6619870D01*
X6651370Y3292710D01*
X6671060Y3271550D01*
X6678930Y3229210D01*
X6671060Y3186880D01*
X6647430Y3160430D01*
X6619870Y3144540D01*
X6521450D01*
G01X6619870D02*
X6678930Y2991090D01*
G01X6993890D02*
X6836410D01*
Y3308590D01*
X6993890D01*
G01X6930900Y3155140D02*
X6836410D01*
G01X4986020Y2832340D02*
X20812760D01*
G01X4986020Y3467340D02*
X20812760D01*
G01X4986020Y4102340D02*
X20812760D01*
G01X7269480Y244080D02*
Y-1025920D01*
G01Y3467340D02*
Y2197340D01*
G01X7863960Y-232170D02*
Y85330D01*
X8013580D01*
G01X7958450Y-68120D02*
X7863960D01*
G01X8206490Y85330D02*
X8300970D01*
G01X8253730D02*
Y-232170D01*
G01X8206490D02*
X8300970D01*
G01X8478140D02*
Y85330D01*
X8659240Y-232170D01*
Y85330D01*
G01X8836410D02*
X8930890D01*
G01X8883650D02*
Y-232170D01*
G01X8836410D02*
X8930890D01*
G01X9115930Y-189850D02*
X9147430Y-216300D01*
X9182860Y-232170D01*
X9214360D01*
X9245850Y-216300D01*
X9269480Y-189850D01*
X9281290Y-152790D01*
X9273420Y-115760D01*
X9253730Y-84010D01*
X9218290Y-62830D01*
X9171050Y-52250D01*
X9143490Y-31090D01*
X9131680Y5950D01*
X9139560Y43000D01*
X9159240Y69450D01*
X9186800Y85330D01*
X9214360D01*
X9241920Y74750D01*
X9265540Y48290D01*
G01X9430890Y-232170D02*
Y85330D01*
G01X9596250D02*
Y-232170D01*
G01Y-73420D02*
X9430890D01*
G01X9907270Y-232170D02*
X9749790D01*
Y85330D01*
X9907270D01*
G01X9844280Y-68120D02*
X9749790D01*
G01X10056880Y-232170D02*
Y85330D01*
X10135610D01*
X10167110Y69450D01*
X10190730Y48290D01*
X10210420Y16540D01*
X10226170Y-20510D01*
X10230100Y-73420D01*
X10226170Y-126340D01*
X10210420Y-163380D01*
X10190730Y-195140D01*
X10167110Y-216300D01*
X10135610Y-232170D01*
X10056880D01*
G01X10340340Y-338000D02*
X10576560D01*
G01X10690730Y-189850D02*
X10722230Y-216300D01*
X10757660Y-232170D01*
X10789160D01*
X10820650Y-216300D01*
X10844280Y-189850D01*
X10856090Y-152790D01*
X10848220Y-115760D01*
X10828530Y-84010D01*
X10793090Y-62830D01*
X10745850Y-52250D01*
X10718290Y-31090D01*
X10706480Y5950D01*
X10714360Y43000D01*
X10734040Y69450D01*
X10761600Y85330D01*
X10789160D01*
X10816720Y74750D01*
X10840340Y48290D01*
G01X11041130Y85330D02*
X11135610D01*
G01X11088370D02*
Y-232170D01*
G01X11041130D02*
X11135610D01*
G01X11328520Y85330D02*
X11478140D01*
X11328520Y-232170D01*
X11478140D01*
G01X11797030D02*
X11639550D01*
Y85330D01*
X11797030D01*
G01X11734040Y-68120D02*
X11639550D01*
G01X7863960Y2991090D02*
Y3308590D01*
X8013580D01*
G01X7958450Y3155140D02*
X7863960D01*
G01X8206490Y3308590D02*
X8300970D01*
G01X8253730D02*
Y2991090D01*
G01X8206490D02*
X8300970D01*
G01X8478140D02*
Y3308590D01*
X8659240Y2991090D01*
Y3308590D01*
G01X8836410D02*
X8930890D01*
G01X8883650D02*
Y2991090D01*
G01X8836410D02*
X8930890D01*
G01X9115930Y3033410D02*
X9147430Y3006960D01*
X9182860Y2991090D01*
X9214360D01*
X9245850Y3006960D01*
X9269480Y3033410D01*
X9281290Y3070470D01*
X9273420Y3107500D01*
X9253730Y3139250D01*
X9218290Y3160430D01*
X9171050Y3171010D01*
X9143490Y3192170D01*
X9131680Y3229210D01*
X9139560Y3266260D01*
X9159240Y3292710D01*
X9186800Y3308590D01*
X9214360D01*
X9241920Y3298010D01*
X9265540Y3271550D01*
G01X9430890Y2991090D02*
Y3308590D01*
G01X9596250D02*
Y2991090D01*
G01Y3149840D02*
X9430890D01*
G01X9907270Y2991090D02*
X9749790D01*
Y3308590D01*
X9907270D01*
G01X9844280Y3155140D02*
X9749790D01*
G01X10056880Y2991090D02*
Y3308590D01*
X10135610D01*
X10167110Y3292710D01*
X10190730Y3271550D01*
X10210420Y3239800D01*
X10226170Y3202750D01*
X10230100Y3149840D01*
X10226170Y3096920D01*
X10210420Y3059880D01*
X10190730Y3028120D01*
X10167110Y3006960D01*
X10135610Y2991090D01*
X10056880D01*
G01X10340340Y2885260D02*
X10576560D01*
G01X10690730Y3033410D02*
X10722230Y3006960D01*
X10757660Y2991090D01*
X10789160D01*
X10820650Y3006960D01*
X10844280Y3033410D01*
X10856090Y3070470D01*
X10848220Y3107500D01*
X10828530Y3139250D01*
X10793090Y3160430D01*
X10745850Y3171010D01*
X10718290Y3192170D01*
X10706480Y3229210D01*
X10714360Y3266260D01*
X10734040Y3292710D01*
X10761600Y3308590D01*
X10789160D01*
X10816720Y3298010D01*
X10840340Y3271550D01*
G01X11041130Y3308590D02*
X11135610D01*
G01X11088370D02*
Y2991090D01*
G01X11041130D02*
X11135610D01*
G01X11328520Y3308590D02*
X11478140D01*
X11328520Y2991090D01*
X11478140D01*
G01X11797030D02*
X11639550D01*
Y3308590D01*
X11797030D01*
G01X11734040Y3155140D02*
X11639550D01*
G01X8568690Y-867170D02*
Y-549670D01*
X8521450Y-613170D01*
G01Y-867170D02*
X8615930D01*
G01X8883650Y-877750D02*
X8875770Y-872460D01*
Y-861880D01*
X8883650Y-856590D01*
X8891530Y-861880D01*
Y-872460D01*
X8883650Y-877750D01*
G01X9112000Y-819560D02*
X9135610Y-846010D01*
X9163170Y-861880D01*
X9198610Y-867170D01*
X9234050Y-856590D01*
X9261600Y-835430D01*
X9281290Y-798380D01*
X9285220Y-756050D01*
X9277350Y-713720D01*
X9257660Y-687250D01*
X9230100Y-666090D01*
X9202550Y-660800D01*
X9174990Y-666090D01*
X9139560Y-687250D01*
X9151370Y-549670D01*
X9257660D01*
G01X9426960Y-819560D02*
X9450570Y-846010D01*
X9478130Y-861880D01*
X9513570Y-867170D01*
X9549010Y-856590D01*
X9576560Y-835430D01*
X9596250Y-798380D01*
X9600180Y-756050D01*
X9592310Y-713720D01*
X9572620Y-687250D01*
X9545060Y-666090D01*
X9517510Y-660800D01*
X9489950Y-666090D01*
X9454520Y-687250D01*
X9466330Y-549670D01*
X9572620D01*
G01X9769480Y-655510D02*
X9887580Y-867170D01*
G01Y-655510D02*
X9769480Y-867170D01*
G01X10143490Y-549670D02*
X10111990Y-560250D01*
X10088370Y-586710D01*
X10072620Y-618460D01*
X10060810Y-660800D01*
X10056880Y-708420D01*
X10060810Y-756050D01*
X10072620Y-798380D01*
X10088370Y-830140D01*
X10111990Y-856590D01*
X10143490Y-867170D01*
X10174980Y-856590D01*
X10198610Y-830140D01*
X10214360Y-798380D01*
X10226170Y-756050D01*
X10230100Y-708420D01*
X10226170Y-660800D01*
X10214360Y-618460D01*
X10198610Y-586710D01*
X10174980Y-560250D01*
X10143490Y-549670D01*
G01X10458450Y-877750D02*
X10450570Y-872460D01*
Y-861880D01*
X10458450Y-856590D01*
X10466330Y-861880D01*
Y-872460D01*
X10458450Y-877750D01*
G01X10820650Y-867170D02*
Y-549670D01*
X10674980Y-777210D01*
X10871840D01*
G01X11001760Y-819560D02*
X11025370Y-846010D01*
X11052930Y-861880D01*
X11088370Y-867170D01*
X11123810Y-856590D01*
X11151360Y-835430D01*
X11171050Y-798380D01*
X11174980Y-756050D01*
X11167110Y-713720D01*
X11147420Y-687250D01*
X11119860Y-666090D01*
X11092310Y-660800D01*
X11064750Y-666090D01*
X11029320Y-687250D01*
X11041130Y-549670D01*
X11147420D01*
G01X8549000Y402830D02*
X8647430Y720330D01*
X8745860Y402830D01*
G01X8710420Y513950D02*
X8584430D01*
G01X8883650Y720330D02*
Y402830D01*
X9041130D01*
G01X9198610Y720330D02*
Y402830D01*
X9356090D01*
G01X9820660Y720330D02*
Y492790D01*
X9836400Y445150D01*
X9867900Y413410D01*
X9907270Y402830D01*
X9946640Y413410D01*
X9978140Y445150D01*
X9993880Y492790D01*
Y720330D01*
G01X10131680Y402830D02*
Y720330D01*
X10312780Y402830D01*
Y720330D01*
G01X10489950D02*
X10584430D01*
G01X10537190D02*
Y402830D01*
G01X10489950D02*
X10584430D01*
G01X10852150Y720330D02*
Y402830D01*
G01X10761600Y720330D02*
X10942700D01*
G01X11084430Y445150D02*
X11115930Y418700D01*
X11151360Y402830D01*
X11182860D01*
X11214350Y418700D01*
X11237980Y445150D01*
X11249790Y482210D01*
X11241920Y519240D01*
X11222230Y550990D01*
X11186790Y572170D01*
X11139550Y582750D01*
X11111990Y603910D01*
X11100180Y640950D01*
X11108060Y678000D01*
X11127740Y704450D01*
X11155300Y720330D01*
X11182860D01*
X11210420Y709750D01*
X11234040Y683290D01*
G01X11698600Y402830D02*
X11797030Y720330D01*
X11895460Y402830D01*
G01X11860020Y513950D02*
X11734030D01*
G01X12033250Y402830D02*
Y720330D01*
X12131670D01*
X12163170Y704450D01*
X12182860Y683290D01*
X12190730Y640950D01*
X12182860Y598620D01*
X12159230Y572170D01*
X12131670Y556280D01*
X12033250D01*
G01X12131670D02*
X12190730Y402830D01*
G01X12505690D02*
X12348210D01*
Y720330D01*
X12505690D01*
G01X12442700Y566880D02*
X12348210D01*
G01X13009630Y720330D02*
X13104110D01*
G01X13056870D02*
Y402830D01*
G01X13009630D02*
X13104110D01*
G01X13281280D02*
Y720330D01*
X13462380Y402830D01*
Y720330D01*
G01X13899380Y402830D02*
Y720330D01*
X14001750Y455750D01*
X14104120Y720330D01*
Y402830D01*
G01X14269470Y720330D02*
X14363950D01*
G01X14316710D02*
Y402830D01*
G01X14269470D02*
X14363950D01*
G01X14552930Y720330D02*
Y402830D01*
X14710410D01*
G01X14867890Y720330D02*
Y402830D01*
X15025370D01*
G01X15214350Y720330D02*
X15308830D01*
G01X15261590D02*
Y402830D01*
G01X15214350D02*
X15308830D01*
G01X15474180D02*
Y720330D01*
X15576550Y455750D01*
X15678920Y720330D01*
Y402830D01*
G01X15970250D02*
X15812770D01*
Y720330D01*
X15970250D01*
G01X15907260Y566880D02*
X15812770D01*
G01X16206470Y720330D02*
Y402830D01*
G01X16115920Y720330D02*
X16297020D01*
G01X16600170Y402830D02*
X16442690D01*
Y720330D01*
X16600170D01*
G01X16537180Y566880D02*
X16442690D01*
G01X16757650Y402830D02*
Y720330D01*
X16856070D01*
X16887570Y704450D01*
X16907260Y683290D01*
X16915130Y640950D01*
X16907260Y598620D01*
X16883630Y572170D01*
X16856070Y556280D01*
X16757650D01*
G01X16856070D02*
X16915130Y402830D01*
G01X17068670Y445150D02*
X17100170Y418700D01*
X17135600Y402830D01*
X17167100D01*
X17198590Y418700D01*
X17222220Y445150D01*
X17234030Y482210D01*
X17226160Y519240D01*
X17206470Y550990D01*
X17171030Y572170D01*
X17123790Y582750D01*
X17096230Y603910D01*
X17084420Y640950D01*
X17092300Y678000D01*
X17111980Y704450D01*
X17139540Y720330D01*
X17167100D01*
X17194660Y709750D01*
X17218280Y683290D01*
G01X8403340Y1052830D02*
Y1370330D01*
X8482070D01*
X8513570Y1354450D01*
X8537190Y1333290D01*
X8556880Y1301540D01*
X8572630Y1264490D01*
X8576560Y1211580D01*
X8572630Y1158660D01*
X8556880Y1121620D01*
X8537190Y1089860D01*
X8513570Y1068700D01*
X8482070Y1052830D01*
X8403340D01*
G01X8726170D02*
Y1370330D01*
X8824590D01*
X8856090Y1354450D01*
X8875780Y1333290D01*
X8883650Y1290950D01*
X8875780Y1248620D01*
X8852150Y1222170D01*
X8824590Y1206280D01*
X8726170D01*
G01X8824590D02*
X8883650Y1052830D01*
G01X9072630Y1370330D02*
X9167110D01*
G01X9119870D02*
Y1052830D01*
G01X9072630D02*
X9167110D01*
G01X9356090Y1370330D02*
Y1052830D01*
X9513570D01*
G01X9671050Y1370330D02*
Y1052830D01*
X9828530D01*
G01X10466320Y1343870D02*
X10442700Y1359750D01*
X10415150Y1370330D01*
X10383650D01*
X10348210Y1354450D01*
X10320660Y1328000D01*
X10300970Y1296240D01*
X10285220Y1243330D01*
X10281280Y1195700D01*
X10289160Y1148080D01*
X10300970Y1116330D01*
X10324590Y1084570D01*
X10352150Y1063410D01*
X10379710Y1052830D01*
X10407270D01*
X10434830Y1063410D01*
X10458450Y1079280D01*
X10478140Y1100440D01*
G01X10611990Y1052830D02*
Y1370330D01*
G01X10777350D02*
Y1052830D01*
G01Y1211580D02*
X10611990D01*
G01X10911200Y1052830D02*
X11009630Y1370330D01*
X11108060Y1052830D01*
G01X11072620Y1163950D02*
X10946630D01*
G01X11245850Y1052830D02*
Y1370330D01*
X11344270D01*
X11375770Y1354450D01*
X11395460Y1333290D01*
X11403330Y1290950D01*
X11395460Y1248620D01*
X11371830Y1222170D01*
X11344270Y1206280D01*
X11245850D01*
G01X11344270D02*
X11403330Y1052830D01*
G01X11639550Y1370330D02*
Y1052830D01*
G01X11549000Y1370330D02*
X11730100D01*
G01X11954510Y1042250D02*
X11946630Y1047540D01*
Y1058120D01*
X11954510Y1063410D01*
X11962390Y1058120D01*
Y1047540D01*
X11954510Y1042250D01*
G01Y1185110D02*
X11946630Y1190410D01*
Y1200990D01*
X11954510Y1206280D01*
X11962390Y1200990D01*
Y1190410D01*
X11954510Y1185110D01*
G01X12615920Y1222170D02*
X12631670Y1238040D01*
X12643480Y1264490D01*
X12651360Y1301540D01*
X12643480Y1333290D01*
X12627740Y1354450D01*
X12600180Y1370330D01*
X12493880D01*
Y1052830D01*
X12623800D01*
X12651360Y1073990D01*
X12667110Y1105750D01*
X12674980Y1142790D01*
X12667110Y1179820D01*
X12643480Y1211580D01*
X12615920Y1222170D01*
X12493880D01*
G01X12899390Y1052830D02*
X12867890Y1058120D01*
X12840340Y1079280D01*
X12816710Y1111040D01*
X12800960Y1148080D01*
X12793090Y1190410D01*
Y1232750D01*
X12800960Y1275080D01*
X12816710Y1312120D01*
X12840340Y1343870D01*
X12867890Y1365040D01*
X12899390Y1370330D01*
X12930880Y1365040D01*
X12958440Y1343870D01*
X12982070Y1312120D01*
X12997820Y1275080D01*
X13005690Y1232750D01*
Y1190410D01*
X12997820Y1148080D01*
X12982070Y1111040D01*
X12958440Y1079280D01*
X12930880Y1058120D01*
X12899390Y1052830D01*
G01X13214350Y1370330D02*
Y1052830D01*
G01X13123800Y1370330D02*
X13304900D01*
G01X13529310D02*
Y1052830D01*
G01X13438760Y1370330D02*
X13619860D01*
G01X13844270Y1052830D02*
X13812770Y1058120D01*
X13785220Y1079280D01*
X13761590Y1111040D01*
X13745840Y1148080D01*
X13737970Y1190410D01*
Y1232750D01*
X13745840Y1275080D01*
X13761590Y1312120D01*
X13785220Y1343870D01*
X13812770Y1365040D01*
X13844270Y1370330D01*
X13875760Y1365040D01*
X13903320Y1343870D01*
X13926950Y1312120D01*
X13942700Y1275080D01*
X13950570Y1232750D01*
Y1190410D01*
X13942700Y1148080D01*
X13926950Y1111040D01*
X13903320Y1079280D01*
X13875760Y1058120D01*
X13844270Y1052830D01*
G01X14056860D02*
Y1370330D01*
X14159230Y1105750D01*
X14261600Y1370330D01*
Y1052830D01*
G01X14789150Y1370330D02*
Y1052830D01*
G01X14734030Y1264490D02*
X14844270D01*
G01X15104110Y1052830D02*
X15080490Y1058120D01*
X15056870Y1079280D01*
X15041110Y1116330D01*
X15033240Y1158660D01*
X15041110Y1200990D01*
X15056870Y1238040D01*
X15080490Y1259200D01*
X15104110Y1264490D01*
X15127730Y1259200D01*
X15151350Y1238040D01*
X15167100Y1200990D01*
X15171040Y1158660D01*
X15167100Y1116330D01*
X15151350Y1079280D01*
X15127730Y1058120D01*
X15104110Y1052830D01*
G01X15765520Y1222170D02*
X15781270Y1238040D01*
X15793080Y1264490D01*
X15800960Y1301540D01*
X15793080Y1333290D01*
X15777340Y1354450D01*
X15749780Y1370330D01*
X15643480D01*
Y1052830D01*
X15773400D01*
X15800960Y1073990D01*
X15816710Y1105750D01*
X15824580Y1142790D01*
X15816710Y1179820D01*
X15793080Y1211580D01*
X15765520Y1222170D01*
X15643480D01*
G01X16048990Y1052830D02*
X16017490Y1058120D01*
X15989940Y1079280D01*
X15966310Y1111040D01*
X15950560Y1148080D01*
X15942690Y1190410D01*
Y1232750D01*
X15950560Y1275080D01*
X15966310Y1312120D01*
X15989940Y1343870D01*
X16017490Y1365040D01*
X16048990Y1370330D01*
X16080480Y1365040D01*
X16108040Y1343870D01*
X16131670Y1312120D01*
X16147420Y1275080D01*
X16155290Y1232750D01*
Y1190410D01*
X16147420Y1148080D01*
X16131670Y1111040D01*
X16108040Y1079280D01*
X16080480Y1058120D01*
X16048990Y1052830D01*
G01X16363950Y1370330D02*
Y1052830D01*
G01X16273400Y1370330D02*
X16454500D01*
G01X16678910D02*
Y1052830D01*
G01X16588360Y1370330D02*
X16769460D01*
G01X16993870Y1052830D02*
X16962370Y1058120D01*
X16934820Y1079280D01*
X16911190Y1111040D01*
X16895440Y1148080D01*
X16887570Y1190410D01*
Y1232750D01*
X16895440Y1275080D01*
X16911190Y1312120D01*
X16934820Y1343870D01*
X16962370Y1365040D01*
X16993870Y1370330D01*
X17025360Y1365040D01*
X17052920Y1343870D01*
X17076550Y1312120D01*
X17092300Y1275080D01*
X17100170Y1232750D01*
Y1190410D01*
X17092300Y1148080D01*
X17076550Y1111040D01*
X17052920Y1079280D01*
X17025360Y1058120D01*
X16993870Y1052830D01*
G01X17206460D02*
Y1370330D01*
X17308830Y1105750D01*
X17411200Y1370330D01*
Y1052830D01*
G01X8549000Y3626090D02*
X8647430Y3943590D01*
X8745860Y3626090D01*
G01X8710420Y3737210D02*
X8584430D01*
G01X8883650Y3943590D02*
Y3626090D01*
X9041130D01*
G01X9198610Y3943590D02*
Y3626090D01*
X9356090D01*
G01X9820660Y3943590D02*
Y3716050D01*
X9836400Y3668410D01*
X9867900Y3636670D01*
X9907270Y3626090D01*
X9946640Y3636670D01*
X9978140Y3668410D01*
X9993880Y3716050D01*
Y3943590D01*
G01X10131680Y3626090D02*
Y3943590D01*
X10312780Y3626090D01*
Y3943590D01*
G01X10489950D02*
X10584430D01*
G01X10537190D02*
Y3626090D01*
G01X10489950D02*
X10584430D01*
G01X10852150Y3943590D02*
Y3626090D01*
G01X10761600Y3943590D02*
X10942700D01*
G01X11084430Y3668410D02*
X11115930Y3641960D01*
X11151360Y3626090D01*
X11182860D01*
X11214350Y3641960D01*
X11237980Y3668410D01*
X11249790Y3705470D01*
X11241920Y3742500D01*
X11222230Y3774250D01*
X11186790Y3795430D01*
X11139550Y3806010D01*
X11111990Y3827170D01*
X11100180Y3864210D01*
X11108060Y3901260D01*
X11127740Y3927710D01*
X11155300Y3943590D01*
X11182860D01*
X11210420Y3933010D01*
X11234040Y3906550D01*
G01X11698600Y3626090D02*
X11797030Y3943590D01*
X11895460Y3626090D01*
G01X11860020Y3737210D02*
X11734030D01*
G01X12033250Y3626090D02*
Y3943590D01*
X12131670D01*
X12163170Y3927710D01*
X12182860Y3906550D01*
X12190730Y3864210D01*
X12182860Y3821880D01*
X12159230Y3795430D01*
X12131670Y3779540D01*
X12033250D01*
G01X12131670D02*
X12190730Y3626090D01*
G01X12505690D02*
X12348210D01*
Y3943590D01*
X12505690D01*
G01X12442700Y3790140D02*
X12348210D01*
G01X13009630Y3943590D02*
X13104110D01*
G01X13056870D02*
Y3626090D01*
G01X13009630D02*
X13104110D01*
G01X13281280D02*
Y3943590D01*
X13462380Y3626090D01*
Y3943590D01*
G01X13899380Y3626090D02*
Y3943590D01*
X14001750Y3679010D01*
X14104120Y3943590D01*
Y3626090D01*
G01X14269470Y3943590D02*
X14363950D01*
G01X14316710D02*
Y3626090D01*
G01X14269470D02*
X14363950D01*
G01X14552930Y3943590D02*
Y3626090D01*
X14710410D01*
G01X14867890Y3943590D02*
Y3626090D01*
X15025370D01*
G01X15214350Y3943590D02*
X15308830D01*
G01X15261590D02*
Y3626090D01*
G01X15214350D02*
X15308830D01*
G01X15474180D02*
Y3943590D01*
X15576550Y3679010D01*
X15678920Y3943590D01*
Y3626090D01*
G01X15970250D02*
X15812770D01*
Y3943590D01*
X15970250D01*
G01X15907260Y3790140D02*
X15812770D01*
G01X16206470Y3943590D02*
Y3626090D01*
G01X16115920Y3943590D02*
X16297020D01*
G01X16600170Y3626090D02*
X16442690D01*
Y3943590D01*
X16600170D01*
G01X16537180Y3790140D02*
X16442690D01*
G01X16757650Y3626090D02*
Y3943590D01*
X16856070D01*
X16887570Y3927710D01*
X16907260Y3906550D01*
X16915130Y3864210D01*
X16907260Y3821880D01*
X16883630Y3795430D01*
X16856070Y3779540D01*
X16757650D01*
G01X16856070D02*
X16915130Y3626090D01*
G01X17068670Y3668410D02*
X17100170Y3641960D01*
X17135600Y3626090D01*
X17167100D01*
X17198590Y3641960D01*
X17222220Y3668410D01*
X17234030Y3705470D01*
X17226160Y3742500D01*
X17206470Y3774250D01*
X17171030Y3795430D01*
X17123790Y3806010D01*
X17096230Y3827170D01*
X17084420Y3864210D01*
X17092300Y3901260D01*
X17111980Y3927710D01*
X17139540Y3943590D01*
X17167100D01*
X17194660Y3933010D01*
X17218280Y3906550D01*
G01X8875780Y4276090D02*
Y4593590D01*
X8954510D01*
X8986010Y4577710D01*
X9009630Y4556550D01*
X9029320Y4524800D01*
X9045070Y4487750D01*
X9049000Y4434840D01*
X9045070Y4381920D01*
X9029320Y4344880D01*
X9009630Y4313120D01*
X8986010Y4291960D01*
X8954510Y4276090D01*
X8875780D01*
G01X9198610D02*
Y4593590D01*
X9297030D01*
X9328530Y4577710D01*
X9348220Y4556550D01*
X9356090Y4514210D01*
X9348220Y4471880D01*
X9324590Y4445430D01*
X9297030Y4429540D01*
X9198610D01*
G01X9297030D02*
X9356090Y4276090D01*
G01X9545070Y4593590D02*
X9639550D01*
G01X9592310D02*
Y4276090D01*
G01X9545070D02*
X9639550D01*
G01X9828530Y4593590D02*
Y4276090D01*
X9986010D01*
G01X10143490Y4593590D02*
Y4276090D01*
X10300970D01*
G01X10938760Y4567130D02*
X10915140Y4583010D01*
X10887590Y4593590D01*
X10856090D01*
X10820650Y4577710D01*
X10793100Y4551260D01*
X10773410Y4519500D01*
X10757660Y4466590D01*
X10753720Y4418960D01*
X10761600Y4371340D01*
X10773410Y4339590D01*
X10797030Y4307830D01*
X10824590Y4286670D01*
X10852150Y4276090D01*
X10879710D01*
X10907270Y4286670D01*
X10930890Y4302540D01*
X10950580Y4323700D01*
G01X11084430Y4276090D02*
Y4593590D01*
G01X11249790D02*
Y4276090D01*
G01Y4434840D02*
X11084430D01*
G01X11383640Y4276090D02*
X11482070Y4593590D01*
X11580500Y4276090D01*
G01X11545060Y4387210D02*
X11419070D01*
G01X11718290Y4276090D02*
Y4593590D01*
X11816710D01*
X11848210Y4577710D01*
X11867900Y4556550D01*
X11875770Y4514210D01*
X11867900Y4471880D01*
X11844270Y4445430D01*
X11816710Y4429540D01*
X11718290D01*
G01X11816710D02*
X11875770Y4276090D01*
G01X12111990Y4593590D02*
Y4276090D01*
G01X12021440Y4593590D02*
X12202540D01*
G01X12426950Y4265510D02*
X12419070Y4270800D01*
Y4281380D01*
X12426950Y4286670D01*
X12434830Y4281380D01*
Y4270800D01*
X12426950Y4265510D01*
G01Y4408370D02*
X12419070Y4413670D01*
Y4424250D01*
X12426950Y4429540D01*
X12434830Y4424250D01*
Y4413670D01*
X12426950Y4408370D01*
G01X13056870Y4593590D02*
Y4276090D01*
G01X12966320Y4593590D02*
X13147420D01*
G01X13371830Y4276090D02*
X13340330Y4281380D01*
X13312780Y4302540D01*
X13289150Y4334300D01*
X13273400Y4371340D01*
X13265530Y4413670D01*
Y4456010D01*
X13273400Y4498340D01*
X13289150Y4535380D01*
X13312780Y4567130D01*
X13340330Y4588300D01*
X13371830Y4593590D01*
X13403320Y4588300D01*
X13430880Y4567130D01*
X13454510Y4535380D01*
X13470260Y4498340D01*
X13478130Y4456010D01*
Y4413670D01*
X13470260Y4371340D01*
X13454510Y4334300D01*
X13430880Y4302540D01*
X13403320Y4281380D01*
X13371830Y4276090D01*
G01X13608050D02*
Y4593590D01*
X13702540D01*
X13734030Y4577710D01*
X13757660Y4540670D01*
X13765530Y4498340D01*
X13757660Y4456010D01*
X13737970Y4424250D01*
X13702540Y4408370D01*
X13608050D01*
G01X14316710Y4593590D02*
Y4276090D01*
G01X14261590Y4487750D02*
X14371830D01*
G01X14631670Y4276090D02*
X14608050Y4281380D01*
X14584430Y4302540D01*
X14568670Y4339590D01*
X14560800Y4381920D01*
X14568670Y4424250D01*
X14584430Y4461300D01*
X14608050Y4482460D01*
X14631670Y4487750D01*
X14655290Y4482460D01*
X14678910Y4461300D01*
X14694660Y4424250D01*
X14698600Y4381920D01*
X14694660Y4339590D01*
X14678910Y4302540D01*
X14655290Y4281380D01*
X14631670Y4276090D01*
G01X15293080Y4445430D02*
X15308830Y4461300D01*
X15320640Y4487750D01*
X15328520Y4524800D01*
X15320640Y4556550D01*
X15304900Y4577710D01*
X15277340Y4593590D01*
X15171040D01*
Y4276090D01*
X15300960D01*
X15328520Y4297250D01*
X15344270Y4329010D01*
X15352140Y4366050D01*
X15344270Y4403080D01*
X15320640Y4434840D01*
X15293080Y4445430D01*
X15171040D01*
G01X15576550Y4276090D02*
X15545050Y4281380D01*
X15517500Y4302540D01*
X15493870Y4334300D01*
X15478120Y4371340D01*
X15470250Y4413670D01*
Y4456010D01*
X15478120Y4498340D01*
X15493870Y4535380D01*
X15517500Y4567130D01*
X15545050Y4588300D01*
X15576550Y4593590D01*
X15608040Y4588300D01*
X15635600Y4567130D01*
X15659230Y4535380D01*
X15674980Y4498340D01*
X15682850Y4456010D01*
Y4413670D01*
X15674980Y4371340D01*
X15659230Y4334300D01*
X15635600Y4302540D01*
X15608040Y4281380D01*
X15576550Y4276090D01*
G01X15891510Y4593590D02*
Y4276090D01*
G01X15800960Y4593590D02*
X15982060D01*
G01X16206470D02*
Y4276090D01*
G01X16115920Y4593590D02*
X16297020D01*
G01X16521430Y4276090D02*
X16489930Y4281380D01*
X16462380Y4302540D01*
X16438750Y4334300D01*
X16423000Y4371340D01*
X16415130Y4413670D01*
Y4456010D01*
X16423000Y4498340D01*
X16438750Y4535380D01*
X16462380Y4567130D01*
X16489930Y4588300D01*
X16521430Y4593590D01*
X16552920Y4588300D01*
X16580480Y4567130D01*
X16604110Y4535380D01*
X16619860Y4498340D01*
X16627730Y4456010D01*
Y4413670D01*
X16619860Y4371340D01*
X16604110Y4334300D01*
X16580480Y4302540D01*
X16552920Y4281380D01*
X16521430Y4276090D01*
G01X16734020D02*
Y4593590D01*
X16836390Y4329010D01*
X16938760Y4593590D01*
Y4276090D01*
G01X9513570Y2673590D02*
X9482070Y2663010D01*
X9458450Y2636550D01*
X9442700Y2604800D01*
X9430890Y2562460D01*
X9426960Y2514840D01*
X9430890Y2467210D01*
X9442700Y2424880D01*
X9458450Y2393120D01*
X9482070Y2366670D01*
X9513570Y2356090D01*
X9545060Y2366670D01*
X9568690Y2393120D01*
X9584440Y2424880D01*
X9596250Y2467210D01*
X9600180Y2514840D01*
X9596250Y2562460D01*
X9584440Y2604800D01*
X9568690Y2636550D01*
X9545060Y2663010D01*
X9513570Y2673590D01*
G01X9828530Y2345510D02*
X9820650Y2350800D01*
Y2361380D01*
X9828530Y2366670D01*
X9836410Y2361380D01*
Y2350800D01*
X9828530Y2345510D01*
G01X10056880Y2419590D02*
X10080490Y2382540D01*
X10111990Y2361380D01*
X10147430Y2356090D01*
X10178930Y2361380D01*
X10210420Y2387830D01*
X10230100Y2419590D01*
X10234040Y2451340D01*
X10226170Y2488370D01*
X10198610Y2514840D01*
X10171050Y2525430D01*
X10135610D01*
G01X10171050D02*
X10194670Y2541300D01*
X10214360Y2567750D01*
X10222230Y2599500D01*
X10214360Y2631260D01*
X10194670Y2657710D01*
X10159240Y2673590D01*
X10123810Y2668300D01*
X10088370Y2647130D01*
G01X12387580Y244080D02*
Y-1025920D01*
G01Y3467340D02*
Y2197340D01*
G01X12820650Y-232170D02*
Y85330D01*
X12919070D01*
X12950570Y69450D01*
X12970260Y48290D01*
X12978130Y5950D01*
X12970260Y-36380D01*
X12946630Y-62830D01*
X12919070Y-78720D01*
X12820650D01*
G01X12919070D02*
X12978130Y-232170D01*
G01X13214350D02*
X13182850Y-226880D01*
X13155300Y-205720D01*
X13131670Y-173960D01*
X13115920Y-136920D01*
X13108050Y-94590D01*
Y-52250D01*
X13115920Y-9920D01*
X13131670Y27120D01*
X13155300Y58870D01*
X13182850Y80040D01*
X13214350Y85330D01*
X13245840Y80040D01*
X13273400Y58870D01*
X13297030Y27120D01*
X13312780Y-9920D01*
X13320650Y-52250D01*
Y-94590D01*
X13312780Y-136920D01*
X13297030Y-173960D01*
X13273400Y-205720D01*
X13245840Y-226880D01*
X13214350Y-232170D01*
G01X13529310Y85330D02*
Y-232170D01*
G01X13438760Y85330D02*
X13619860D01*
G01X13745840Y-232170D02*
X13844270Y85330D01*
X13942700Y-232170D01*
G01X13907260Y-121050D02*
X13781270D01*
G01X14159230Y85330D02*
Y-232170D01*
G01X14068680Y85330D02*
X14249780D01*
G01X14426950D02*
X14521430D01*
G01X14474190D02*
Y-232170D01*
G01X14426950D02*
X14521430D01*
G01X14789150D02*
X14757650Y-226880D01*
X14730100Y-205720D01*
X14706470Y-173960D01*
X14690720Y-136920D01*
X14682850Y-94590D01*
Y-52250D01*
X14690720Y-9920D01*
X14706470Y27120D01*
X14730100Y58870D01*
X14757650Y80040D01*
X14789150Y85330D01*
X14820640Y80040D01*
X14848200Y58870D01*
X14871830Y27120D01*
X14887580Y-9920D01*
X14895450Y-52250D01*
Y-94590D01*
X14887580Y-136920D01*
X14871830Y-173960D01*
X14848200Y-205720D01*
X14820640Y-226880D01*
X14789150Y-232170D01*
G01X15013560D02*
Y85330D01*
X15194660Y-232170D01*
Y85330D01*
G01X12820650Y2991090D02*
Y3308590D01*
X12919070D01*
X12950570Y3292710D01*
X12970260Y3271550D01*
X12978130Y3229210D01*
X12970260Y3186880D01*
X12946630Y3160430D01*
X12919070Y3144540D01*
X12820650D01*
G01X12919070D02*
X12978130Y2991090D01*
G01X13214350D02*
X13182850Y2996380D01*
X13155300Y3017540D01*
X13131670Y3049300D01*
X13115920Y3086340D01*
X13108050Y3128670D01*
Y3171010D01*
X13115920Y3213340D01*
X13131670Y3250380D01*
X13155300Y3282130D01*
X13182850Y3303300D01*
X13214350Y3308590D01*
X13245840Y3303300D01*
X13273400Y3282130D01*
X13297030Y3250380D01*
X13312780Y3213340D01*
X13320650Y3171010D01*
Y3128670D01*
X13312780Y3086340D01*
X13297030Y3049300D01*
X13273400Y3017540D01*
X13245840Y2996380D01*
X13214350Y2991090D01*
G01X13529310Y3308590D02*
Y2991090D01*
G01X13438760Y3308590D02*
X13619860D01*
G01X13745840Y2991090D02*
X13844270Y3308590D01*
X13942700Y2991090D01*
G01X13907260Y3102210D02*
X13781270D01*
G01X14159230Y3308590D02*
Y2991090D01*
G01X14068680Y3308590D02*
X14249780D01*
G01X14426950D02*
X14521430D01*
G01X14474190D02*
Y2991090D01*
G01X14426950D02*
X14521430D01*
G01X14789150D02*
X14757650Y2996380D01*
X14730100Y3017540D01*
X14706470Y3049300D01*
X14690720Y3086340D01*
X14682850Y3128670D01*
Y3171010D01*
X14690720Y3213340D01*
X14706470Y3250380D01*
X14730100Y3282130D01*
X14757650Y3303300D01*
X14789150Y3308590D01*
X14820640Y3303300D01*
X14848200Y3282130D01*
X14871830Y3250380D01*
X14887580Y3213340D01*
X14895450Y3171010D01*
Y3128670D01*
X14887580Y3086340D01*
X14871830Y3049300D01*
X14848200Y3017540D01*
X14820640Y2996380D01*
X14789150Y2991090D01*
G01X15013560D02*
Y3308590D01*
X15194660Y2991090D01*
Y3308590D01*
G01X13214350Y-867170D02*
X13241910Y-861880D01*
X13273400Y-846010D01*
X13293090Y-819560D01*
X13300960Y-782500D01*
X13293090Y-745470D01*
X13269470Y-713720D01*
X13234030Y-697830D01*
X13194670D01*
X13171040Y-687250D01*
X13151350Y-660800D01*
X13143480Y-623760D01*
X13155300Y-586710D01*
X13182850Y-560250D01*
X13214350Y-549670D01*
X13245840Y-560250D01*
X13273400Y-586710D01*
X13285220Y-623760D01*
X13277340Y-660800D01*
X13257660Y-687250D01*
X13234030Y-697830D01*
X13194670D01*
X13159230Y-713720D01*
X13135610Y-745470D01*
X13127740Y-782500D01*
X13135610Y-819560D01*
X13155300Y-846010D01*
X13186790Y-861880D01*
X13214350Y-867170D01*
G01X13462380Y-830140D02*
X13489940Y-856590D01*
X13521430Y-867170D01*
X13552930Y-856590D01*
X13580490Y-824850D01*
X13600180Y-777210D01*
X13608050Y-729590D01*
Y-671380D01*
X13600180Y-623760D01*
X13580490Y-581420D01*
X13556870Y-560250D01*
X13529310Y-549670D01*
X13497810Y-560250D01*
X13474190Y-581420D01*
X13458440Y-613170D01*
X13450570Y-655510D01*
X13458440Y-692540D01*
X13478130Y-729590D01*
X13501750Y-750760D01*
X13529310Y-756050D01*
X13560800Y-745470D01*
X13584430Y-719010D01*
X13608050Y-671380D01*
G01X13844270Y-877750D02*
X13836390Y-872460D01*
Y-861880D01*
X13844270Y-856590D01*
X13852150Y-861880D01*
Y-872460D01*
X13844270Y-877750D01*
G01X14159230Y-549670D02*
X14127730Y-560250D01*
X14104110Y-586710D01*
X14088360Y-618460D01*
X14076550Y-660800D01*
X14072620Y-708420D01*
X14076550Y-756050D01*
X14088360Y-798380D01*
X14104110Y-830140D01*
X14127730Y-856590D01*
X14159230Y-867170D01*
X14190720Y-856590D01*
X14214350Y-830140D01*
X14230100Y-798380D01*
X14241910Y-756050D01*
X14245840Y-708420D01*
X14241910Y-660800D01*
X14230100Y-618460D01*
X14214350Y-586710D01*
X14190720Y-560250D01*
X14159230Y-549670D01*
G01X14474190D02*
X14442690Y-560250D01*
X14419070Y-586710D01*
X14403320Y-618460D01*
X14391510Y-660800D01*
X14387580Y-708420D01*
X14391510Y-756050D01*
X14403320Y-798380D01*
X14419070Y-830140D01*
X14442690Y-856590D01*
X14474190Y-867170D01*
X14505680Y-856590D01*
X14529310Y-830140D01*
X14545060Y-798380D01*
X14556870Y-756050D01*
X14560800Y-708420D01*
X14556870Y-660800D01*
X14545060Y-618460D01*
X14529310Y-586710D01*
X14505680Y-560250D01*
X14474190Y-549670D01*
G01X14789150D02*
X14757650Y-560250D01*
X14734030Y-586710D01*
X14718280Y-618460D01*
X14706470Y-660800D01*
X14702540Y-708420D01*
X14706470Y-756050D01*
X14718280Y-798380D01*
X14734030Y-830140D01*
X14757650Y-856590D01*
X14789150Y-867170D01*
X14820640Y-856590D01*
X14844270Y-830140D01*
X14860020Y-798380D01*
X14871830Y-756050D01*
X14875760Y-708420D01*
X14871830Y-660800D01*
X14860020Y-618460D01*
X14844270Y-586710D01*
X14820640Y-560250D01*
X14789150Y-549670D01*
G01X13950570Y2461920D02*
X14052930D01*
G01X15615920Y244080D02*
Y-1025920D01*
G01Y3467340D02*
Y2197340D01*
G01X16363950Y-867170D02*
Y-549670D01*
X16458440D01*
X16489930Y-565550D01*
X16513560Y-602590D01*
X16521430Y-644920D01*
X16513560Y-687250D01*
X16493870Y-719010D01*
X16458440Y-734890D01*
X16363950D01*
G01X16678910Y-549670D02*
Y-867170D01*
X16836390D01*
G01X16974180D02*
X17072610Y-549670D01*
X17171040Y-867170D01*
G01X17135600Y-756050D02*
X17009610D01*
G01X17387570Y-549670D02*
Y-867170D01*
G01X17297020Y-549670D02*
X17478120D01*
G01X17781270Y-867170D02*
X17623790D01*
Y-549670D01*
X17781270D01*
G01X17718280Y-703120D02*
X17623790D01*
G01X17930880Y-867170D02*
Y-549670D01*
X18009610D01*
X18041110Y-565550D01*
X18064730Y-586710D01*
X18084420Y-618460D01*
X18100170Y-655510D01*
X18104100Y-708420D01*
X18100170Y-761340D01*
X18084420Y-798380D01*
X18064730Y-830140D01*
X18041110Y-851300D01*
X18009610Y-867170D01*
X17930880D01*
G01X16363950Y-232170D02*
Y85330D01*
X16458440D01*
X16489930Y69450D01*
X16513560Y32410D01*
X16521430Y-9920D01*
X16513560Y-52250D01*
X16493870Y-84010D01*
X16458440Y-99890D01*
X16363950D01*
G01X16678910Y85330D02*
Y-232170D01*
X16836390D01*
G01X16974180D02*
X17072610Y85330D01*
X17171040Y-232170D01*
G01X17135600Y-121050D02*
X17009610D01*
G01X17387570Y85330D02*
Y-232170D01*
G01X17297020Y85330D02*
X17478120D01*
G01X17781270Y-232170D02*
X17623790D01*
Y85330D01*
X17781270D01*
G01X17718280Y-68120D02*
X17623790D01*
G01X17930880Y-232170D02*
Y85330D01*
X18009610D01*
X18041110Y69450D01*
X18064730Y48290D01*
X18084420Y16540D01*
X18100170Y-20510D01*
X18104100Y-73420D01*
X18100170Y-126340D01*
X18084420Y-163380D01*
X18064730Y-195140D01*
X18041110Y-216300D01*
X18009610Y-232170D01*
X17930880D01*
G01X16363950Y2356090D02*
Y2673590D01*
X16458440D01*
X16489930Y2657710D01*
X16513560Y2620670D01*
X16521430Y2578340D01*
X16513560Y2536010D01*
X16493870Y2504250D01*
X16458440Y2488370D01*
X16363950D01*
G01X16678910Y2673590D02*
Y2356090D01*
X16836390D01*
G01X16974180D02*
X17072610Y2673590D01*
X17171040Y2356090D01*
G01X17135600Y2467210D02*
X17009610D01*
G01X17387570Y2673590D02*
Y2356090D01*
G01X17297020Y2673590D02*
X17478120D01*
G01X17781270Y2356090D02*
X17623790D01*
Y2673590D01*
X17781270D01*
G01X17718280Y2520140D02*
X17623790D01*
G01X17930880Y2356090D02*
Y2673590D01*
X18009610D01*
X18041110Y2657710D01*
X18064730Y2636550D01*
X18084420Y2604800D01*
X18100170Y2567750D01*
X18104100Y2514840D01*
X18100170Y2461920D01*
X18084420Y2424880D01*
X18064730Y2393120D01*
X18041110Y2371960D01*
X18009610Y2356090D01*
X17930880D01*
G01X16363950Y2991090D02*
Y3308590D01*
X16458440D01*
X16489930Y3292710D01*
X16513560Y3255670D01*
X16521430Y3213340D01*
X16513560Y3171010D01*
X16493870Y3139250D01*
X16458440Y3123370D01*
X16363950D01*
G01X16678910Y3308590D02*
Y2991090D01*
X16836390D01*
G01X16974180D02*
X17072610Y3308590D01*
X17171040Y2991090D01*
G01X17135600Y3102210D02*
X17009610D01*
G01X17387570Y3308590D02*
Y2991090D01*
G01X17297020Y3308590D02*
X17478120D01*
G01X17781270Y2991090D02*
X17623790D01*
Y3308590D01*
X17781270D01*
G01X17718280Y3155140D02*
X17623790D01*
G01X17930880Y2991090D02*
Y3308590D01*
X18009610D01*
X18041110Y3292710D01*
X18064730Y3271550D01*
X18084420Y3239800D01*
X18100170Y3202750D01*
X18104100Y3149840D01*
X18100170Y3096920D01*
X18084420Y3059880D01*
X18064730Y3028120D01*
X18041110Y3006960D01*
X18009610Y2991090D01*
X17930880D01*
G01X18844260Y244080D02*
Y-1025920D01*
G01Y3467340D02*
Y2197340D01*
G01X19753700Y-602590D02*
X19777330Y-570840D01*
X19804890Y-554960D01*
X19836390Y-549670D01*
X19875750Y-560250D01*
X19903320Y-586710D01*
X19911190Y-618460D01*
X19907250Y-650220D01*
X19891500Y-676670D01*
X19812760Y-729590D01*
X19777330Y-766630D01*
X19753700Y-819560D01*
X19745830Y-867170D01*
X19911190D01*
G01X19513550Y-232170D02*
X19482050Y-226880D01*
X19454500Y-205720D01*
X19430870Y-173960D01*
X19415120Y-136920D01*
X19407250Y-94590D01*
Y-52250D01*
X19415120Y-9920D01*
X19430870Y27120D01*
X19454500Y58870D01*
X19482050Y80040D01*
X19513550Y85330D01*
X19545040Y80040D01*
X19572600Y58870D01*
X19596230Y27120D01*
X19611980Y-9920D01*
X19619850Y-52250D01*
Y-94590D01*
X19611980Y-136920D01*
X19596230Y-173960D01*
X19572600Y-205720D01*
X19545040Y-226880D01*
X19513550Y-232170D01*
G01X19545040Y-147500D02*
X19592290Y-232170D01*
G01X19828510Y85330D02*
Y-232170D01*
G01X19737960Y85330D02*
X19919060D01*
G01X20143470Y-232170D02*
Y-89300D01*
X20064730Y85330D01*
G01X20222210D02*
X20143470Y-89300D01*
G01X19426940Y2419590D02*
X19450550Y2382540D01*
X19482050Y2361380D01*
X19517490Y2356090D01*
X19548990Y2361380D01*
X19580480Y2387830D01*
X19600160Y2419590D01*
X19604100Y2451340D01*
X19596230Y2488370D01*
X19568670Y2514840D01*
X19541110Y2525430D01*
X19505670D01*
G01X19541110D02*
X19564730Y2541300D01*
X19584420Y2567750D01*
X19592290Y2599500D01*
X19584420Y2631260D01*
X19564730Y2657710D01*
X19529300Y2673590D01*
X19493870Y2668300D01*
X19458430Y2647130D01*
G01X19741900Y2419590D02*
X19765510Y2382540D01*
X19797010Y2361380D01*
X19832450Y2356090D01*
X19863950Y2361380D01*
X19895440Y2387830D01*
X19915120Y2419590D01*
X19919060Y2451340D01*
X19911190Y2488370D01*
X19883630Y2514840D01*
X19856070Y2525430D01*
X19820630D01*
G01X19856070D02*
X19879690Y2541300D01*
X19899380Y2567750D01*
X19907250Y2599500D01*
X19899380Y2631260D01*
X19879690Y2657710D01*
X19844260Y2673590D01*
X19808830Y2668300D01*
X19773390Y2647130D01*
G01X20135590Y2356090D02*
X20143470Y2424880D01*
X20155280Y2483080D01*
X20171030Y2536010D01*
X20190710Y2594210D01*
X20222210Y2673590D01*
X20064730D01*
G01X19513550Y2991090D02*
X19482050Y2996380D01*
X19454500Y3017540D01*
X19430870Y3049300D01*
X19415120Y3086340D01*
X19407250Y3128670D01*
Y3171010D01*
X19415120Y3213340D01*
X19430870Y3250380D01*
X19454500Y3282130D01*
X19482050Y3303300D01*
X19513550Y3308590D01*
X19545040Y3303300D01*
X19572600Y3282130D01*
X19596230Y3250380D01*
X19611980Y3213340D01*
X19619850Y3171010D01*
Y3128670D01*
X19611980Y3086340D01*
X19596230Y3049300D01*
X19572600Y3017540D01*
X19545040Y2996380D01*
X19513550Y2991090D01*
G01X19545040Y3075760D02*
X19592290Y2991090D01*
G01X19828510Y3308590D02*
Y2991090D01*
G01X19737960Y3308590D02*
X19919060D01*
G01X20143470Y2991090D02*
Y3133960D01*
X20064730Y3308590D01*
G01X20222210D02*
X20143470Y3133960D01*
M02*
