G04 ================== begin FILE IDENTIFICATION RECORD ==================*
G04 Layout Name:  PRISON_GOD_PCB_V235_SOMECHANGE.brd*
G04 Film Name:    SILKSCREEN_BOTTOM*
G04 File Format:  Gerber RS274X*
G04 File Origin:  Cadence Allegro 17.2-S004*
G04 Origin Date:  Wed Jan 04 13:13:35 2017*
G04 *
G04 Layer:  REF DES/SILKSCREEN_BOTTOM*
G04 Layer:  PACKAGE GEOMETRY/SILKSCREEN_BOTTOM*
G04 Layer:  BOARD GEOMETRY/OUTLINE*
G04 *
G04 Offset:    (0.0000 0.0000)*
G04 Mirror:    No*
G04 Mode:      Positive*
G04 Rotation:  0*
G04 FullContactRelief:  No*
G04 UndefLineWidth:     0.2000*
G04 ================== end FILE IDENTIFICATION RECORD ====================*
%FSLAX55Y55*MOMM*%
%IR0*IPPOS*OFA0.00000B0.00000*MIA0B0*SFA1.00000B1.00000*%
%ADD10C,.1*%
%ADD11C,.2*%
%ADD12C,.1524*%
G75*
%LPD*%
G75*
G36*
G01X511400Y127000D02*
G03I-105000J0D01*
G37*
G36*
G01X765400Y3124200D02*
G03I-105000J0D01*
G37*
G36*
G01X1019400Y127000D02*
G03I-105000J0D01*
G37*
G36*
G01X1044800Y3124200D02*
G03I-105000J0D01*
G37*
G36*
G01X1654400Y1320800D02*
G03I-105000J0D01*
G37*
G36*
G01X1250300Y1541200D02*
G02I-15000J0D01*
G37*
G36*
G01Y1922200D02*
G02I-15000J0D01*
G37*
G36*
G01X1603600Y3124200D02*
G03I-105000J0D01*
G37*
G36*
G01X1883000D02*
G03I-105000J0D01*
G37*
G36*
G01X2469740Y1409700D02*
G03I-105000J0D01*
G37*
G36*
G01X3000600Y1549400D02*
G03I-105000J0D01*
G37*
G36*
G01Y1828800D02*
G03I-105000J0D01*
G37*
G36*
G01X3008220Y2413000D02*
G03I-105000J0D01*
G37*
G36*
G01X2835500Y2585720D02*
G03I-105000J0D01*
G37*
G54D10*
G01X17780Y-5080D02*
X3030220D01*
G03X3055620Y20320I0J25400D01*
G01Y499050D01*
X2956560D01*
Y764540D01*
X3055620Y863600D01*
Y3294380D01*
G03X3037840Y3312160I-17780J0D01*
G01X5080D01*
G03X-10160Y3296920I0J-15240D01*
G01Y3012440D01*
G01X53340Y1744980D02*
X-25400Y1666240D01*
Y22860D01*
G03X2540Y-5080I27940J0D01*
G01X17780D01*
G01X45720Y1917700D02*
X83820Y1879600D01*
Y1775460D01*
X35560Y1727200D01*
G01X-10160Y2687320D02*
Y1973580D01*
X50800Y1912620D01*
G01X-10160Y3012440D02*
Y2687320D01*
G01X2956560Y499050D02*
Y764540D01*
G54D11*
G01X812800Y1905000D02*
Y1219200D01*
X914400D01*
Y845820D01*
X1310640D01*
Y736600D01*
X2209800D01*
Y1193800D01*
X2090420D01*
Y1338580D01*
X1727200D01*
Y1498600D01*
G01X1066800Y1200200D02*
Y1492200D01*
G01Y1581200D02*
Y1873200D01*
G01X1346200Y1498600D02*
X1727200D01*
Y1805940D01*
X1318260D01*
Y1973580D01*
X812800D01*
Y1833880D01*
G01X1214120Y889640D02*
Y969640D01*
G01X1211580Y1024260D02*
Y1104260D01*
G01X1397000Y1702200D02*
Y1752200D01*
G01Y1575200D02*
Y1625200D01*
G01X1274490Y3173290D02*
Y3123290D01*
G01X1600200Y940200D02*
Y990200D01*
G01Y1067200D02*
Y1117200D01*
G01Y865740D02*
Y815740D01*
G01X1910080Y935360D02*
Y1015360D01*
G01X1912620Y1085220D02*
Y1165220D01*
G01X1902460Y805580D02*
Y855580D01*
G01Y1277220D02*
Y1227220D01*
G01X2214880Y424180D02*
X2989580D01*
Y17780D01*
X2209800D01*
Y424180D01*
X2214880D01*
G01X2209400Y1330960D02*
X2159400D01*
G01X2768600Y635400D02*
Y685400D01*
G01X2737720Y1460500D02*
X2687720D01*
G01X2737720Y1724660D02*
X2687720D01*
G01X2895600Y1295000D02*
Y1245000D01*
G01X233340Y92290D02*
X230630Y95460D01*
X228600Y100750D01*
X227240Y108160D01*
X228600Y114510D01*
X231310Y118740D01*
X236050Y121920D01*
X254340D01*
Y58420D01*
X231990D01*
X227240Y62650D01*
X224540Y69000D01*
X223180Y76410D01*
X224540Y83820D01*
X228600Y90170D01*
X233340Y92290D01*
X254340D01*
G01X199810Y58420D02*
X182880Y121920D01*
X165950Y58420D01*
G01X172040Y80640D02*
X193720D01*
G01X127000Y121920D02*
Y58420D01*
G01X142580Y121920D02*
X111420D01*
G01X79930Y79590D02*
X62310D01*
G01X1236810Y2209800D02*
Y2288540D01*
X1217340D01*
X1209550Y2284600D01*
X1203710Y2279350D01*
X1198840Y2271480D01*
X1194940Y2262290D01*
X1193970Y2249170D01*
X1194940Y2236050D01*
X1198840Y2226860D01*
X1203710Y2218980D01*
X1209550Y2213740D01*
X1217340Y2209800D01*
X1236810D01*
G01X1151250Y2245230D02*
X1120100D01*
X1123020Y2254420D01*
X1127890Y2259670D01*
X1134700Y2262290D01*
X1141520Y2260980D01*
X1147360Y2257040D01*
X1151250Y2247860D01*
X1153200Y2239980D01*
Y2232110D01*
X1151250Y2224230D01*
X1146390Y2216360D01*
X1140540Y2211110D01*
X1133730Y2209800D01*
X1126910Y2212420D01*
X1120100Y2220300D01*
G01X1072510Y2218980D02*
X1067650Y2213740D01*
X1060830Y2209800D01*
X1054990D01*
X1049150Y2212420D01*
X1045250Y2216360D01*
X1043310Y2221610D01*
X1044280Y2229490D01*
X1048170Y2233420D01*
X1065700Y2241290D01*
X1069590Y2250480D01*
X1067650Y2257040D01*
X1063750Y2260980D01*
X1057910Y2262290D01*
X1052070Y2260980D01*
X1046230Y2257040D01*
G01X979170Y2262290D02*
Y2209800D01*
G01Y2283290D02*
X981120Y2284600D01*
Y2287230D01*
X979170Y2288540D01*
X977220Y2287230D01*
Y2284600D01*
X979170Y2283290D01*
G01X914060Y2190110D02*
X907250Y2184870D01*
X899460Y2183550D01*
X892640Y2184870D01*
X886800Y2191430D01*
X882900Y2200610D01*
Y2262290D01*
G01Y2251800D02*
X886800Y2257040D01*
X892640Y2260980D01*
X899460Y2262290D01*
X907250Y2259670D01*
X912110Y2254420D01*
X916010Y2245230D01*
X917960Y2236050D01*
X916980Y2228170D01*
X913090Y2218980D01*
X907250Y2212420D01*
X899460Y2209800D01*
X893610Y2211110D01*
X886800Y2216360D01*
X882900Y2221610D01*
G01X838240Y2209800D02*
Y2262290D01*
G01Y2249170D02*
X834350Y2255730D01*
X828510Y2260980D01*
X820720Y2262290D01*
X813900Y2260980D01*
X808060Y2255730D01*
X805140Y2246540D01*
Y2209800D01*
G01X757550Y2245230D02*
X726400D01*
X729320Y2254420D01*
X734190Y2259670D01*
X741000Y2262290D01*
X747820Y2260980D01*
X753660Y2257040D01*
X757550Y2247860D01*
X759500Y2239980D01*
Y2232110D01*
X757550Y2224230D01*
X752690Y2216360D01*
X746840Y2211110D01*
X740030Y2209800D01*
X733210Y2212420D01*
X726400Y2220300D01*
G01X646680Y2288540D02*
Y2209800D01*
G01Y2221610D02*
X650580Y2215050D01*
X656420Y2211110D01*
X663240Y2209800D01*
X671030Y2212420D01*
X676870Y2218980D01*
X680760Y2226860D01*
X681740Y2236050D01*
X680760Y2245230D01*
X676870Y2253110D01*
X671030Y2259670D01*
X663240Y2262290D01*
X656420Y2260980D01*
X651550Y2258360D01*
X646680Y2253110D01*
G01X524260Y2209800D02*
Y2288540D01*
G01Y2249170D02*
X519390Y2257040D01*
X513550Y2260980D01*
X507700Y2262290D01*
X498940Y2259670D01*
X493100Y2254420D01*
X489200Y2245230D01*
Y2234730D01*
X491150Y2224230D01*
X495050Y2216360D01*
X501860Y2211110D01*
X507700Y2209800D01*
X513550Y2211110D01*
X519390Y2215050D01*
X524260Y2221610D01*
G01X448440Y2186180D02*
X442590Y2183550D01*
X434810Y2186180D01*
X429940Y2191430D01*
X426040Y2197990D01*
X420200Y2218980D01*
X407540Y2262290D01*
G01X438700D02*
X420200Y2218980D01*
G01X743880Y92290D02*
X741170Y95460D01*
X739140Y100750D01*
X737780Y108160D01*
X739140Y114510D01*
X741850Y118740D01*
X746590Y121920D01*
X764880D01*
Y58420D01*
X742530D01*
X737780Y62650D01*
X735080Y69000D01*
X733720Y76410D01*
X735080Y83820D01*
X739140Y90170D01*
X743880Y92290D01*
X764880D01*
G01X710350Y58420D02*
X693420Y121920D01*
X676490Y58420D01*
G01X682580Y80640D02*
X704260D01*
G01X637540Y121920D02*
Y58420D01*
G01X653120Y121920D02*
X621960D01*
G01X589110Y79590D02*
X572850D01*
G01X581660Y93350D02*
Y65830D01*
G01X1234860Y2057400D02*
Y2136140D01*
X1210520D01*
X1202730Y2132200D01*
X1197860Y2126950D01*
X1195920Y2116450D01*
X1197860Y2105960D01*
X1203710Y2099400D01*
X1210520Y2095460D01*
X1234860D01*
G01X1210520D02*
X1195920Y2057400D01*
G01X1136650D02*
X1144440Y2058710D01*
X1151250Y2063960D01*
X1157100Y2071830D01*
X1160990Y2081020D01*
X1162940Y2091520D01*
Y2102020D01*
X1160990Y2112520D01*
X1157100Y2121710D01*
X1151250Y2129580D01*
X1144440Y2134830D01*
X1136650Y2136140D01*
X1128860Y2134830D01*
X1122050Y2129580D01*
X1116200Y2121710D01*
X1112310Y2112520D01*
X1110360Y2102020D01*
Y2091520D01*
X1112310Y2081020D01*
X1116200Y2071830D01*
X1122050Y2063960D01*
X1128860Y2058710D01*
X1136650Y2057400D01*
G01X1036490Y2129580D02*
X1042330Y2133520D01*
X1049150Y2136140D01*
X1056940D01*
X1065700Y2132200D01*
X1072510Y2125640D01*
X1077380Y2117770D01*
X1081280Y2104640D01*
X1082250Y2092830D01*
X1080300Y2081020D01*
X1077380Y2073150D01*
X1071540Y2065270D01*
X1064730Y2060020D01*
X1057910Y2057400D01*
X1051090D01*
X1044280Y2060020D01*
X1038440Y2063960D01*
X1033570Y2069210D01*
G01X1000590Y2057400D02*
Y2136140D01*
G01X963590D02*
X1000590Y2087580D01*
G01X957750Y2057400D02*
X984040Y2109890D01*
G01X880960Y2057400D02*
X919900D01*
Y2136140D01*
X880960D01*
G01X896540Y2098080D02*
X919900D01*
G01X821690Y2057400D02*
Y2092830D01*
X841160Y2136140D01*
G01X802220D02*
X821690Y2092830D01*
G01X742950Y2054780D02*
X744900Y2056090D01*
Y2058710D01*
X742950Y2060020D01*
X741000Y2058710D01*
Y2056090D01*
X742950Y2054780D01*
G01X683680Y2073150D02*
X678810Y2065270D01*
X672970Y2060020D01*
X666160Y2057400D01*
X658370Y2060020D01*
X652530Y2065270D01*
X646680Y2073150D01*
X644740Y2083650D01*
Y2136140D01*
G01X1234860Y2336800D02*
Y2415540D01*
X1210520D01*
X1202730Y2411600D01*
X1197860Y2406350D01*
X1195920Y2395850D01*
X1197860Y2385360D01*
X1203710Y2378800D01*
X1210520Y2374860D01*
X1234860D01*
G01X1210520D02*
X1195920Y2336800D01*
G01X1151250Y2372230D02*
X1120100D01*
X1123020Y2381420D01*
X1127890Y2386670D01*
X1134700Y2389290D01*
X1141520Y2387980D01*
X1147360Y2384040D01*
X1151250Y2374860D01*
X1153200Y2366980D01*
Y2359110D01*
X1151250Y2351230D01*
X1146390Y2343360D01*
X1140540Y2338110D01*
X1133730Y2336800D01*
X1126910Y2339420D01*
X1120100Y2347300D01*
G01X1075440Y2389290D02*
X1057910Y2336800D01*
X1040380Y2389290D01*
G01X979170Y2334180D02*
X981120Y2335490D01*
Y2338110D01*
X979170Y2339420D01*
X977220Y2338110D01*
Y2335490D01*
X979170Y2334180D01*
G01X924770Y2336800D02*
X900430Y2415540D01*
X876090Y2336800D01*
G01X884850Y2364360D02*
X916010D01*
G01X821690Y2336800D02*
Y2415540D01*
G01X760480Y2310550D02*
Y2389290D01*
G01Y2377480D02*
X755610Y2384040D01*
X750740Y2387980D01*
X742950Y2389290D01*
X736130Y2387980D01*
X729320Y2381420D01*
X726400Y2372230D01*
X725420Y2363050D01*
X726400Y2353860D01*
X729320Y2344670D01*
X735160Y2339420D01*
X742950Y2336800D01*
X749770Y2338110D01*
X756580Y2342050D01*
X760480Y2347300D01*
G01X680760Y2336800D02*
Y2415540D01*
G01Y2377480D02*
X675890Y2384040D01*
X671030Y2387980D01*
X663240Y2389290D01*
X657390Y2387980D01*
X650580Y2382730D01*
X647660Y2374860D01*
Y2336800D01*
G01X567940D02*
Y2389290D01*
G01Y2380110D02*
X571840Y2385360D01*
X577680Y2387980D01*
X584500Y2389290D01*
X591310Y2386670D01*
X597150Y2381420D01*
X601050Y2373540D01*
X603000Y2363050D01*
X601050Y2352550D01*
X597150Y2344670D01*
X591310Y2339420D01*
X584500Y2336800D01*
X577680Y2338110D01*
X571840Y2342050D01*
X567940Y2347300D01*
G01X1234860Y2463800D02*
Y2542540D01*
X1211500D01*
X1203710Y2538600D01*
X1197860Y2529420D01*
X1195920Y2518920D01*
X1197860Y2508420D01*
X1202730Y2500540D01*
X1211500Y2496610D01*
X1234860D01*
G01X1150280Y2463800D02*
Y2516290D01*
G01Y2505800D02*
X1145410Y2511040D01*
X1140540Y2514980D01*
X1133730Y2516290D01*
X1128860Y2514980D01*
X1123020Y2511040D01*
G01X1057910Y2516290D02*
Y2463800D01*
G01Y2537290D02*
X1059860Y2538600D01*
Y2541230D01*
X1057910Y2542540D01*
X1055960Y2541230D01*
Y2538600D01*
X1057910Y2537290D01*
G01X993770Y2472980D02*
X988910Y2467740D01*
X982090Y2463800D01*
X976250D01*
X970410Y2466420D01*
X966510Y2470360D01*
X964570Y2475610D01*
X965540Y2483490D01*
X969430Y2487420D01*
X986960Y2495290D01*
X990850Y2504480D01*
X988910Y2511040D01*
X985010Y2514980D01*
X979170Y2516290D01*
X973330Y2514980D01*
X967490Y2511040D01*
G01X900430Y2463800D02*
X906270Y2465110D01*
X912110Y2470360D01*
X916010Y2479550D01*
X917960Y2490050D01*
X916010Y2500540D01*
X912110Y2509730D01*
X906270Y2514980D01*
X900430Y2516290D01*
X894590Y2514980D01*
X888750Y2509730D01*
X884850Y2500540D01*
X883880Y2490050D01*
X884850Y2479550D01*
X888750Y2470360D01*
X894590Y2465110D01*
X900430Y2463800D01*
G01X838240D02*
Y2516290D01*
G01Y2503170D02*
X834350Y2509730D01*
X828510Y2514980D01*
X820720Y2516290D01*
X813900Y2514980D01*
X808060Y2509730D01*
X805140Y2500540D01*
Y2463800D01*
G01X658370Y2503170D02*
X638890D01*
Y2479550D01*
X644740Y2471670D01*
X651550Y2466420D01*
X661290Y2463800D01*
X671030Y2466420D01*
X677840Y2471670D01*
X683680Y2479550D01*
X687580Y2488730D01*
X689530Y2499230D01*
Y2508420D01*
X687580Y2516290D01*
X683680Y2525480D01*
X677840Y2533350D01*
X672000Y2538600D01*
X664210Y2542540D01*
X657390D01*
X649610Y2539920D01*
X643760Y2534670D01*
G01X585470Y2463800D02*
X591310Y2465110D01*
X597150Y2470360D01*
X601050Y2479550D01*
X603000Y2490050D01*
X601050Y2500540D01*
X597150Y2509730D01*
X591310Y2514980D01*
X585470Y2516290D01*
X579630Y2514980D01*
X573790Y2509730D01*
X569890Y2500540D01*
X568920Y2490050D01*
X569890Y2479550D01*
X573790Y2470360D01*
X579630Y2465110D01*
X585470Y2463800D01*
G01X489200Y2542540D02*
Y2463800D01*
G01Y2475610D02*
X493100Y2469050D01*
X498940Y2465110D01*
X505760Y2463800D01*
X513550Y2466420D01*
X519390Y2472980D01*
X523280Y2480860D01*
X524260Y2490050D01*
X523280Y2499230D01*
X519390Y2507110D01*
X513550Y2513670D01*
X505760Y2516290D01*
X498940Y2514980D01*
X494070Y2512360D01*
X489200Y2507110D01*
G01X760310Y2933700D02*
X756920Y2927350D01*
X752860Y2923120D01*
X748110Y2921000D01*
X742700Y2923120D01*
X738630Y2927350D01*
X734570Y2933700D01*
X733210Y2942170D01*
Y2984500D01*
G01X711200Y2899830D02*
X670560D01*
G01X651930Y2984500D02*
X635000Y2921000D01*
X618070Y2984500D01*
G01X564220Y2979210D02*
X568280Y2982380D01*
X573020Y2984500D01*
X578440D01*
X584540Y2981320D01*
X589280Y2976030D01*
X592670Y2969680D01*
X595380Y2959100D01*
X596050Y2949570D01*
X594700Y2940050D01*
X592670Y2933700D01*
X588600Y2927350D01*
X583860Y2923120D01*
X579120Y2921000D01*
X574380D01*
X569640Y2923120D01*
X565570Y2926290D01*
X562190Y2930520D01*
G01X508340Y2979210D02*
X512400Y2982380D01*
X517140Y2984500D01*
X522560D01*
X528660Y2981320D01*
X533400Y2976030D01*
X536790Y2969680D01*
X539500Y2959100D01*
X540170Y2949570D01*
X538820Y2940050D01*
X536790Y2933700D01*
X532720Y2927350D01*
X527980Y2923120D01*
X523240Y2921000D01*
X518500D01*
X513760Y2923120D01*
X509690Y2926290D01*
X506310Y2930520D01*
G01X1051900Y979150D02*
X1055960Y982320D01*
X1060700Y984440D01*
X1066120D01*
X1072220Y981260D01*
X1076960Y975970D01*
X1080350Y969620D01*
X1083060Y959040D01*
X1083730Y949510D01*
X1082380Y939990D01*
X1080350Y933640D01*
X1076280Y927290D01*
X1071540Y923060D01*
X1066800Y920940D01*
X1062060D01*
X1057320Y923060D01*
X1053250Y926230D01*
X1049870Y930460D01*
G01X1010920Y920940D02*
Y984440D01*
X1019050Y971740D01*
G01Y920940D02*
X1002790D01*
G01X946910D02*
Y984440D01*
X971970Y938930D01*
X938110D01*
G01X1054440Y1113770D02*
X1058500Y1116940D01*
X1063240Y1119060D01*
X1068660D01*
X1074760Y1115880D01*
X1079500Y1110590D01*
X1082890Y1104240D01*
X1085600Y1093660D01*
X1086270Y1084130D01*
X1084920Y1074610D01*
X1082890Y1068260D01*
X1078820Y1061910D01*
X1074080Y1057680D01*
X1069340Y1055560D01*
X1064600D01*
X1059860Y1057680D01*
X1055790Y1060850D01*
X1052410Y1065080D01*
G01X1013460Y1055560D02*
Y1119060D01*
X1021590Y1106360D01*
G01Y1055560D02*
X1005330D01*
G01X970450Y1108480D02*
X966390Y1114830D01*
X961640Y1118000D01*
X956230Y1119060D01*
X949450Y1116940D01*
X944710Y1111650D01*
X943360Y1105300D01*
X944030Y1098950D01*
X946740Y1093660D01*
X960290Y1083080D01*
X966390Y1075670D01*
X970450Y1065080D01*
X971800Y1055560D01*
X943360D01*
G01X967740Y1424100D02*
X973160Y1425160D01*
X977900Y1429390D01*
X981960Y1435740D01*
X984670Y1443150D01*
X986030Y1451620D01*
Y1460080D01*
X984670Y1468550D01*
X981960Y1475960D01*
X977900Y1482310D01*
X973160Y1486540D01*
X967740Y1487600D01*
X962320Y1486540D01*
X957580Y1482310D01*
X953520Y1475960D01*
X950810Y1468550D01*
X949450Y1460080D01*
Y1451620D01*
X950810Y1443150D01*
X953520Y1435740D01*
X957580Y1429390D01*
X962320Y1425160D01*
X967740Y1424100D01*
G01X962320Y1441030D02*
X954190Y1424100D01*
G01X926760Y1436800D02*
X922700Y1429390D01*
X917280Y1425160D01*
X911180Y1424100D01*
X905760Y1425160D01*
X900340Y1430450D01*
X896960Y1436800D01*
X896280Y1443150D01*
X897640Y1450560D01*
X902380Y1455850D01*
X907120Y1457970D01*
X913210D01*
G01X907120D02*
X903050Y1461140D01*
X899670Y1466430D01*
X898310Y1472780D01*
X899670Y1479130D01*
X903050Y1484420D01*
X909150Y1487600D01*
X915250Y1486540D01*
X921340Y1482310D01*
G01X967740Y1805100D02*
X973160Y1806160D01*
X977900Y1810390D01*
X981960Y1816740D01*
X984670Y1824150D01*
X986030Y1832620D01*
Y1841080D01*
X984670Y1849550D01*
X981960Y1856960D01*
X977900Y1863310D01*
X973160Y1867540D01*
X967740Y1868600D01*
X962320Y1867540D01*
X957580Y1863310D01*
X953520Y1856960D01*
X950810Y1849550D01*
X949450Y1841080D01*
Y1832620D01*
X950810Y1824150D01*
X953520Y1816740D01*
X957580Y1810390D01*
X962320Y1806160D01*
X967740Y1805100D01*
G01X962320Y1822030D02*
X954190Y1805100D01*
G01X903730D02*
Y1868600D01*
X928790Y1823090D01*
X894930D01*
G01X1090510Y2933700D02*
X1087120Y2927350D01*
X1083060Y2923120D01*
X1078310Y2921000D01*
X1072900Y2923120D01*
X1068830Y2927350D01*
X1064770Y2933700D01*
X1063410Y2942170D01*
Y2984500D01*
G01X1041400Y2899830D02*
X1000760D01*
G01X961140Y2952750D02*
X947590D01*
Y2933700D01*
X951650Y2927350D01*
X956390Y2923120D01*
X963170Y2921000D01*
X969940Y2923120D01*
X974680Y2927350D01*
X978750Y2933700D01*
X981460Y2941110D01*
X982810Y2949570D01*
Y2956980D01*
X981460Y2963330D01*
X978750Y2970740D01*
X974680Y2977090D01*
X970620Y2981320D01*
X965200Y2984500D01*
X960460D01*
X955040Y2982380D01*
X950980Y2978150D01*
G01X924900Y2921000D02*
Y2984500D01*
X893740Y2921000D01*
Y2984500D01*
G01X868340Y2921000D02*
Y2984500D01*
X854790D01*
X849380Y2981320D01*
X845310Y2977090D01*
X841920Y2970740D01*
X839220Y2963330D01*
X838540Y2952750D01*
X839220Y2942170D01*
X841920Y2934760D01*
X845310Y2928410D01*
X849380Y2924170D01*
X854790Y2921000D01*
X868340D01*
G01X1463380Y999710D02*
X1467440Y1002880D01*
X1472180Y1005000D01*
X1477600D01*
X1483700Y1001820D01*
X1488440Y996530D01*
X1491830Y990180D01*
X1494540Y979600D01*
X1495210Y970070D01*
X1493860Y960550D01*
X1491830Y954200D01*
X1487760Y947850D01*
X1483020Y943620D01*
X1478280Y941500D01*
X1473540D01*
X1468800Y943620D01*
X1464730Y946790D01*
X1461350Y951020D01*
G01X1422400Y941500D02*
Y1005000D01*
X1430530Y992300D01*
G01Y941500D02*
X1414270D01*
G01X1379390Y967960D02*
X1374650Y975370D01*
X1370580Y979600D01*
X1365170Y981720D01*
X1360420Y979600D01*
X1357040Y975370D01*
X1354330Y969020D01*
X1353650Y961610D01*
X1354330Y955260D01*
X1357040Y948910D01*
X1361100Y943620D01*
X1365840Y941500D01*
X1371260Y943620D01*
X1376000Y949960D01*
X1378710Y959490D01*
X1379390Y970070D01*
X1378040Y983830D01*
X1376000Y991240D01*
X1372620Y998650D01*
X1367870Y1003940D01*
X1363130Y1005000D01*
X1358390Y1002880D01*
X1355000Y997590D01*
G01X1491830Y1068500D02*
Y1132000D01*
X1474890D01*
X1469470Y1128820D01*
X1466090Y1124590D01*
X1464730Y1116120D01*
X1466090Y1107660D01*
X1470150Y1102370D01*
X1474890Y1099190D01*
X1491830D01*
G01X1474890D02*
X1464730Y1068500D01*
G01X1422400D02*
Y1132000D01*
X1430530Y1119300D01*
G01Y1068500D02*
X1414270D01*
G01X1367870D02*
X1366520Y1082260D01*
X1364490Y1093900D01*
X1361780Y1104480D01*
X1358390Y1116120D01*
X1352970Y1132000D01*
X1380070D01*
G01X1463380Y867630D02*
X1467440Y870800D01*
X1472180Y872920D01*
X1477600D01*
X1483700Y869740D01*
X1488440Y864450D01*
X1491830Y858100D01*
X1494540Y847520D01*
X1495210Y837990D01*
X1493860Y828470D01*
X1491830Y822120D01*
X1487760Y815770D01*
X1483020Y811540D01*
X1478280Y809420D01*
X1473540D01*
X1468800Y811540D01*
X1464730Y814710D01*
X1461350Y818940D01*
G01X1437300Y822120D02*
X1433240Y814710D01*
X1427820Y810480D01*
X1421720Y809420D01*
X1416300Y810480D01*
X1410880Y815770D01*
X1407500Y822120D01*
X1406820Y828470D01*
X1408180Y835880D01*
X1412920Y841170D01*
X1417660Y843290D01*
X1423750D01*
G01X1417660D02*
X1413590Y846460D01*
X1410210Y851750D01*
X1408850Y858100D01*
X1410210Y864450D01*
X1413590Y869740D01*
X1419690Y872920D01*
X1425790Y871860D01*
X1431880Y867630D01*
G01X1366520Y872920D02*
X1371940Y870800D01*
X1376000Y865510D01*
X1378710Y859160D01*
X1380740Y850690D01*
X1381420Y841170D01*
X1380740Y831640D01*
X1378710Y823180D01*
X1376000Y816830D01*
X1371940Y811540D01*
X1366520Y809420D01*
X1361100Y811540D01*
X1357040Y816830D01*
X1354330Y823180D01*
X1352300Y831640D01*
X1351620Y841170D01*
X1352300Y850690D01*
X1354330Y859160D01*
X1357040Y865510D01*
X1361100Y870800D01*
X1366520Y872920D01*
G01X1423250Y1381760D02*
Y1445260D01*
X1406310D01*
X1400890Y1442080D01*
X1397510Y1437850D01*
X1396150Y1429380D01*
X1397510Y1420920D01*
X1401570Y1415630D01*
X1406310Y1412450D01*
X1423250D01*
G01X1406310D02*
X1396150Y1381760D01*
G01X1340270D02*
X1367370D01*
Y1445260D01*
X1340270D01*
G01X1351110Y1414570D02*
X1367370D01*
G01X1312160Y1390220D02*
X1306750Y1384930D01*
X1300650Y1381760D01*
X1295230D01*
X1289810Y1384930D01*
X1285750Y1390220D01*
X1283720Y1397640D01*
X1285070Y1405040D01*
X1288460Y1411390D01*
X1294550Y1415630D01*
X1302680Y1417740D01*
X1307420Y1421980D01*
X1309460Y1429380D01*
X1308100Y1436790D01*
X1304710Y1442080D01*
X1299970Y1445260D01*
X1295230D01*
X1290490Y1443140D01*
X1286420Y1437850D01*
G01X1321730Y3091440D02*
X1325790Y3094610D01*
X1330530Y3096730D01*
X1335950D01*
X1342050Y3093550D01*
X1346790Y3088260D01*
X1350180Y3081910D01*
X1352890Y3071330D01*
X1353560Y3061800D01*
X1352210Y3052280D01*
X1350180Y3045930D01*
X1346110Y3039580D01*
X1341370Y3035350D01*
X1336630Y3033230D01*
X1331890D01*
X1327150Y3035350D01*
X1323080Y3038520D01*
X1319700Y3042750D01*
G01X1295650Y3045930D02*
X1291590Y3038520D01*
X1286170Y3034290D01*
X1280070Y3033230D01*
X1274650Y3034290D01*
X1269230Y3039580D01*
X1265850Y3045930D01*
X1265170Y3052280D01*
X1266530Y3059690D01*
X1271270Y3064980D01*
X1276010Y3067100D01*
X1282100D01*
G01X1276010D02*
X1271940Y3070270D01*
X1268560Y3075560D01*
X1267200Y3081910D01*
X1268560Y3088260D01*
X1271940Y3093550D01*
X1278040Y3096730D01*
X1284140Y3095670D01*
X1290230Y3091440D01*
G01X1237740Y3059690D02*
X1233000Y3067100D01*
X1228930Y3071330D01*
X1223520Y3073450D01*
X1218770Y3071330D01*
X1215390Y3067100D01*
X1212680Y3060750D01*
X1212000Y3053340D01*
X1212680Y3046990D01*
X1215390Y3040640D01*
X1219450Y3035350D01*
X1224190Y3033230D01*
X1229610Y3035350D01*
X1234350Y3041690D01*
X1237060Y3051220D01*
X1237740Y3061800D01*
X1236390Y3075560D01*
X1234350Y3082970D01*
X1230970Y3090380D01*
X1226220Y3095670D01*
X1221480Y3096730D01*
X1216740Y3094610D01*
X1213350Y3089320D01*
G01X1593520Y2924590D02*
X1620620D01*
Y2988090D01*
X1593520D01*
G01X1604360Y2957400D02*
X1620620D01*
G01X1565410Y2924590D02*
X1536970Y2988090D01*
G01X1565410D02*
X1536970Y2924590D01*
G01X1495310Y2988090D02*
Y2924590D01*
G01X1510890Y2988090D02*
X1479730D01*
G01X1459750Y2903420D02*
X1419110D01*
G01X1398450Y2937290D02*
X1394390Y2929880D01*
X1388970Y2925650D01*
X1382870Y2924590D01*
X1377450Y2925650D01*
X1372030Y2930940D01*
X1368650Y2937290D01*
X1367970Y2943640D01*
X1369330Y2951050D01*
X1374070Y2956340D01*
X1378810Y2958460D01*
X1384900D01*
G01X1378810D02*
X1374740Y2961630D01*
X1371360Y2966920D01*
X1370000Y2973270D01*
X1371360Y2979620D01*
X1374740Y2984910D01*
X1380840Y2988090D01*
X1386940Y2987030D01*
X1393030Y2982800D01*
G01X1344600Y2988090D02*
X1327670Y2924590D01*
X1310740Y2988090D01*
G01X1292110Y2903420D02*
X1251470D01*
G01X1210490Y2958460D02*
X1207780Y2961630D01*
X1205750Y2966920D01*
X1204390Y2974330D01*
X1205750Y2980680D01*
X1208460Y2984910D01*
X1213200Y2988090D01*
X1231490D01*
Y2924590D01*
X1209140D01*
X1204390Y2928820D01*
X1201690Y2935170D01*
X1200330Y2942580D01*
X1201690Y2949990D01*
X1205750Y2956340D01*
X1210490Y2958460D01*
X1231490D01*
G01X1768180Y1274030D02*
X1772240Y1277200D01*
X1776980Y1279320D01*
X1782400D01*
X1788500Y1276140D01*
X1793240Y1270850D01*
X1796630Y1264500D01*
X1799340Y1253920D01*
X1800010Y1244390D01*
X1798660Y1234870D01*
X1796630Y1228520D01*
X1792560Y1222170D01*
X1787820Y1217940D01*
X1783080Y1215820D01*
X1778340D01*
X1773600Y1217940D01*
X1769530Y1221110D01*
X1766150Y1225340D01*
G01X1740070Y1268740D02*
X1736010Y1275090D01*
X1731260Y1278260D01*
X1725850Y1279320D01*
X1719070Y1277200D01*
X1714330Y1271910D01*
X1712980Y1265560D01*
X1713650Y1259210D01*
X1716360Y1253920D01*
X1729910Y1243340D01*
X1736010Y1235930D01*
X1740070Y1225340D01*
X1741420Y1215820D01*
X1712980D01*
G01X1682840Y1223230D02*
X1678090Y1217940D01*
X1672670Y1215820D01*
X1667260Y1217940D01*
X1662510Y1224280D01*
X1659130Y1233810D01*
X1657770Y1243340D01*
Y1254980D01*
X1659130Y1264500D01*
X1662510Y1272970D01*
X1666580Y1277200D01*
X1671320Y1279320D01*
X1676740Y1277200D01*
X1680800Y1272970D01*
X1683510Y1266620D01*
X1684870Y1258150D01*
X1683510Y1250750D01*
X1680130Y1243340D01*
X1676060Y1239100D01*
X1671320Y1238040D01*
X1665900Y1240160D01*
X1661840Y1245450D01*
X1657770Y1254980D01*
G01X1644230Y1703500D02*
Y1767000D01*
X1627290D01*
X1621870Y1763820D01*
X1618490Y1759590D01*
X1617130Y1751120D01*
X1618490Y1742660D01*
X1622550Y1737370D01*
X1627290Y1734190D01*
X1644230D01*
G01X1627290D02*
X1617130Y1703500D01*
G01X1574800D02*
Y1767000D01*
X1582930Y1754300D01*
G01Y1703500D02*
X1566670D01*
G01X1531790Y1729960D02*
X1527050Y1737370D01*
X1522980Y1741600D01*
X1517570Y1743720D01*
X1512820Y1741600D01*
X1509440Y1737370D01*
X1506730Y1731020D01*
X1506050Y1723610D01*
X1506730Y1717260D01*
X1509440Y1710910D01*
X1513500Y1705620D01*
X1518240Y1703500D01*
X1523660Y1705620D01*
X1528400Y1711960D01*
X1531110Y1721490D01*
X1531790Y1732070D01*
X1530440Y1745830D01*
X1528400Y1753240D01*
X1525020Y1760650D01*
X1520270Y1765940D01*
X1515530Y1767000D01*
X1510790Y1764880D01*
X1507400Y1759590D01*
G01X1644230Y1576500D02*
Y1640000D01*
X1627290D01*
X1621870Y1636820D01*
X1618490Y1632590D01*
X1617130Y1624120D01*
X1618490Y1615660D01*
X1622550Y1610370D01*
X1627290Y1607190D01*
X1644230D01*
G01X1627290D02*
X1617130Y1576500D01*
G01X1574800D02*
Y1640000D01*
X1582930Y1627300D01*
G01Y1576500D02*
X1566670D01*
G01X1533820Y1586020D02*
X1529760Y1580730D01*
X1525020Y1577560D01*
X1518920Y1576500D01*
X1512820Y1578620D01*
X1508080Y1582850D01*
X1504700Y1590260D01*
X1504020Y1598720D01*
X1505370Y1607190D01*
X1508760Y1612480D01*
X1513500Y1616720D01*
X1518240Y1617770D01*
X1522980Y1616720D01*
X1529080Y1612480D01*
X1527050Y1640000D01*
X1508760D01*
G01X1848270Y2989580D02*
X1831340Y2926080D01*
X1814410Y2989580D01*
G01X1789010Y2926080D02*
Y2989580D01*
X1772750D01*
X1767330Y2986400D01*
X1763270Y2979000D01*
X1761910Y2970530D01*
X1763270Y2962060D01*
X1766650Y2955710D01*
X1772750Y2952540D01*
X1789010D01*
G01X1733130Y2926080D02*
Y2989580D01*
X1716870D01*
X1711450Y2986400D01*
X1707390Y2979000D01*
X1706030Y2970530D01*
X1707390Y2962060D01*
X1710770Y2955710D01*
X1716870Y2952540D01*
X1733130D01*
G01X2149180Y976610D02*
X2153240Y979780D01*
X2157980Y981900D01*
X2163400D01*
X2169500Y978720D01*
X2174240Y973430D01*
X2177630Y967080D01*
X2180340Y956500D01*
X2181010Y946970D01*
X2179660Y937450D01*
X2177630Y931100D01*
X2173560Y924750D01*
X2168820Y920520D01*
X2164080Y918400D01*
X2159340D01*
X2154600Y920520D01*
X2150530Y923690D01*
X2147150Y927920D01*
G01X2108200Y918400D02*
Y981900D01*
X2116330Y969200D01*
G01Y918400D02*
X2100070D01*
G01X2067220Y927920D02*
X2063160Y922630D01*
X2058420Y919460D01*
X2052320Y918400D01*
X2046220Y920520D01*
X2041480Y924750D01*
X2038100Y932160D01*
X2037420Y940620D01*
X2038770Y949090D01*
X2042160Y954380D01*
X2046900Y958620D01*
X2051640Y959670D01*
X2056380Y958620D01*
X2062480Y954380D01*
X2060450Y981900D01*
X2042160D01*
G01X2151720Y1129010D02*
X2155780Y1132180D01*
X2160520Y1134300D01*
X2165940D01*
X2172040Y1131120D01*
X2176780Y1125830D01*
X2180170Y1119480D01*
X2182880Y1108900D01*
X2183550Y1099370D01*
X2182200Y1089850D01*
X2180170Y1083500D01*
X2176100Y1077150D01*
X2171360Y1072920D01*
X2166620Y1070800D01*
X2161880D01*
X2157140Y1072920D01*
X2153070Y1076090D01*
X2149690Y1080320D01*
G01X2110740Y1070800D02*
Y1134300D01*
X2118870Y1121600D01*
G01Y1070800D02*
X2102610D01*
G01X2069760Y1083500D02*
X2065700Y1076090D01*
X2060280Y1071860D01*
X2054180Y1070800D01*
X2048760Y1071860D01*
X2043340Y1077150D01*
X2039960Y1083500D01*
X2039280Y1089850D01*
X2040640Y1097260D01*
X2045380Y1102550D01*
X2050120Y1104670D01*
X2056210D01*
G01X2050120D02*
X2046050Y1107840D01*
X2042670Y1113130D01*
X2041310Y1119480D01*
X2042670Y1125830D01*
X2046050Y1131120D01*
X2052150Y1134300D01*
X2058250Y1133240D01*
X2064340Y1129010D01*
G01X2180170Y786560D02*
Y850060D01*
X2163230D01*
X2157810Y846880D01*
X2154430Y842650D01*
X2153070Y834180D01*
X2154430Y825720D01*
X2158490Y820430D01*
X2163230Y817250D01*
X2180170D01*
G01X2163230D02*
X2153070Y786560D01*
G01X2110740D02*
Y850060D01*
X2118870Y837360D01*
G01Y786560D02*
X2102610D01*
G01X2054860D02*
X2050120Y787620D01*
X2044700Y790790D01*
X2041310Y796080D01*
X2039960Y803490D01*
X2041310Y810900D01*
X2045380Y817250D01*
X2051470Y820430D01*
X2058250D01*
X2062310Y822540D01*
X2065700Y827830D01*
X2067050Y835240D01*
X2065020Y842650D01*
X2060280Y847940D01*
X2054860Y850060D01*
X2049440Y847940D01*
X2044700Y842650D01*
X2042670Y835240D01*
X2044020Y827830D01*
X2047410Y822540D01*
X2051470Y820430D01*
X2058250D01*
X2064340Y817250D01*
X2068410Y810900D01*
X2069760Y803490D01*
X2068410Y796080D01*
X2065020Y790790D01*
X2059600Y787620D01*
X2054860Y786560D01*
G01X2100920Y1426430D02*
X2104980Y1429600D01*
X2109720Y1431720D01*
X2115140D01*
X2121240Y1428540D01*
X2125980Y1423250D01*
X2129370Y1416900D01*
X2132080Y1406320D01*
X2132750Y1396790D01*
X2131400Y1387270D01*
X2129370Y1380920D01*
X2125300Y1374570D01*
X2120560Y1370340D01*
X2115820Y1368220D01*
X2111080D01*
X2106340Y1370340D01*
X2102270Y1373510D01*
X2098890Y1377740D01*
G01X2074840Y1380920D02*
X2070780Y1373510D01*
X2065360Y1369280D01*
X2059260Y1368220D01*
X2053840Y1369280D01*
X2048420Y1374570D01*
X2045040Y1380920D01*
X2044360Y1387270D01*
X2045720Y1394680D01*
X2050460Y1399970D01*
X2055200Y1402090D01*
X2061290D01*
G01X2055200D02*
X2051130Y1405260D01*
X2047750Y1410550D01*
X2046390Y1416900D01*
X2047750Y1423250D01*
X2051130Y1428540D01*
X2057230Y1431720D01*
X2063330Y1430660D01*
X2069420Y1426430D01*
G01X2018960Y1377740D02*
X2014900Y1372450D01*
X2010160Y1369280D01*
X2004060Y1368220D01*
X1997960Y1370340D01*
X1993220Y1374570D01*
X1989840Y1381980D01*
X1989160Y1390440D01*
X1990510Y1398910D01*
X1993900Y1404200D01*
X1998640Y1408440D01*
X2003380Y1409490D01*
X2008120Y1408440D01*
X2014220Y1404200D01*
X2012190Y1431720D01*
X1993900D01*
G01X2262290Y1501140D02*
X2289390D01*
Y1564640D01*
X2262290D01*
G01X2273130Y1533950D02*
X2289390D01*
G01X2234180Y1501140D02*
X2205740Y1564640D01*
G01X2234180D02*
X2205740Y1501140D01*
G01X2164080Y1564640D02*
Y1501140D01*
G01X2179660Y1564640D02*
X2148500D01*
G01X2128520Y1479970D02*
X2087880D01*
G01X2067220Y1513840D02*
X2063160Y1506430D01*
X2057740Y1502200D01*
X2051640Y1501140D01*
X2046220Y1502200D01*
X2040800Y1507490D01*
X2037420Y1513840D01*
X2036740Y1520190D01*
X2038100Y1527600D01*
X2042840Y1532890D01*
X2047580Y1535010D01*
X2053670D01*
G01X2047580D02*
X2043510Y1538180D01*
X2040130Y1543470D01*
X2038770Y1549820D01*
X2040130Y1556170D01*
X2043510Y1561460D01*
X2049610Y1564640D01*
X2055710Y1563580D01*
X2061800Y1559350D01*
G01X2013370Y1564640D02*
X1996440Y1501140D01*
X1979510Y1564640D01*
G01X1960880Y1479970D02*
X1920240D01*
G01X1901610Y1501140D02*
X1884680Y1564640D01*
X1867750Y1501140D01*
G01X1873840Y1523360D02*
X1895520D01*
G01X2602480Y2515440D02*
X2597070Y2510150D01*
X2590970Y2506980D01*
X2585550D01*
X2580130Y2510150D01*
X2576070Y2515440D01*
X2574040Y2522860D01*
X2575390Y2530260D01*
X2578780Y2536610D01*
X2584870Y2540850D01*
X2593000Y2542960D01*
X2597740Y2547200D01*
X2599780Y2554600D01*
X2598420Y2562010D01*
X2595030Y2567300D01*
X2590290Y2570480D01*
X2585550D01*
X2580810Y2568360D01*
X2576740Y2563070D01*
G01X2552700Y2570480D02*
X2543220Y2506980D01*
X2532380Y2570480D01*
X2521540Y2506980D01*
X2512060Y2570480D01*
G01X2461600Y2565190D02*
X2465660Y2568360D01*
X2470400Y2570480D01*
X2475820D01*
X2481920Y2567300D01*
X2486660Y2562010D01*
X2490050Y2555660D01*
X2492760Y2545080D01*
X2493430Y2535550D01*
X2492080Y2526030D01*
X2490050Y2519680D01*
X2485980Y2513330D01*
X2481240Y2509100D01*
X2476500Y2506980D01*
X2471760D01*
X2467020Y2509100D01*
X2462950Y2512270D01*
X2459570Y2516500D01*
G01X2434170Y2570480D02*
Y2506980D01*
X2407070D01*
G01X2379640D02*
Y2570480D01*
G01X2353900D02*
X2379640Y2531320D01*
G01X2349840Y2506980D02*
X2368130Y2549310D01*
G01X2809580Y771110D02*
X2813640Y774280D01*
X2818380Y776400D01*
X2823800D01*
X2829900Y773220D01*
X2834640Y767930D01*
X2838030Y761580D01*
X2840740Y751000D01*
X2841410Y741470D01*
X2840060Y731950D01*
X2838030Y725600D01*
X2833960Y719250D01*
X2829220Y715020D01*
X2824480Y712900D01*
X2819740D01*
X2815000Y715020D01*
X2810930Y718190D01*
X2807550Y722420D01*
G01X2781470Y765820D02*
X2777410Y772170D01*
X2772660Y775340D01*
X2767250Y776400D01*
X2760470Y774280D01*
X2755730Y768990D01*
X2754380Y762640D01*
X2755050Y756290D01*
X2757760Y751000D01*
X2771310Y740420D01*
X2777410Y733010D01*
X2781470Y722420D01*
X2782820Y712900D01*
X2754380D01*
G01X2714070D02*
X2712720Y726660D01*
X2710690Y738300D01*
X2707980Y748880D01*
X2704590Y760520D01*
X2699170Y776400D01*
X2726270D01*
G01X2936580Y1380710D02*
X2940640Y1383880D01*
X2945380Y1386000D01*
X2950800D01*
X2956900Y1382820D01*
X2961640Y1377530D01*
X2965030Y1371180D01*
X2967740Y1360600D01*
X2968410Y1351070D01*
X2967060Y1341550D01*
X2965030Y1335200D01*
X2960960Y1328850D01*
X2956220Y1324620D01*
X2951480Y1322500D01*
X2946740D01*
X2942000Y1324620D01*
X2937930Y1327790D01*
X2934550Y1332020D01*
G01X2908470Y1375420D02*
X2904410Y1381770D01*
X2899660Y1384940D01*
X2894250Y1386000D01*
X2887470Y1383880D01*
X2882730Y1378590D01*
X2881380Y1372240D01*
X2882050Y1365890D01*
X2884760Y1360600D01*
X2898310Y1350020D01*
X2904410Y1342610D01*
X2908470Y1332020D01*
X2909820Y1322500D01*
X2881380D01*
G01X2831590D02*
Y1386000D01*
X2856650Y1340490D01*
X2822790D01*
G01X2624160Y1528030D02*
X2628220Y1531200D01*
X2632960Y1533320D01*
X2638380D01*
X2644480Y1530140D01*
X2649220Y1524850D01*
X2652610Y1518500D01*
X2655320Y1507920D01*
X2655990Y1498390D01*
X2654640Y1488870D01*
X2652610Y1482520D01*
X2648540Y1476170D01*
X2643800Y1471940D01*
X2639060Y1469820D01*
X2634320D01*
X2629580Y1471940D01*
X2625510Y1475110D01*
X2622130Y1479340D01*
G01X2598080Y1482520D02*
X2594020Y1475110D01*
X2588600Y1470880D01*
X2582500Y1469820D01*
X2577080Y1470880D01*
X2571660Y1476170D01*
X2568280Y1482520D01*
X2567600Y1488870D01*
X2568960Y1496280D01*
X2573700Y1501570D01*
X2578440Y1503690D01*
X2584530D01*
G01X2578440D02*
X2574370Y1506860D01*
X2570990Y1512150D01*
X2569630Y1518500D01*
X2570990Y1524850D01*
X2574370Y1530140D01*
X2580470Y1533320D01*
X2586570Y1532260D01*
X2592660Y1528030D01*
G01X2527300Y1469820D02*
Y1533320D01*
X2535430Y1520620D01*
G01Y1469820D02*
X2519170D01*
G01X2619080Y1794730D02*
X2623140Y1797900D01*
X2627880Y1800020D01*
X2633300D01*
X2639400Y1796840D01*
X2644140Y1791550D01*
X2647530Y1785200D01*
X2650240Y1774620D01*
X2650910Y1765090D01*
X2649560Y1755570D01*
X2647530Y1749220D01*
X2643460Y1742870D01*
X2638720Y1738640D01*
X2633980Y1736520D01*
X2629240D01*
X2624500Y1738640D01*
X2620430Y1741810D01*
X2617050Y1746040D01*
G01X2593000Y1749220D02*
X2588940Y1741810D01*
X2583520Y1737580D01*
X2577420Y1736520D01*
X2572000Y1737580D01*
X2566580Y1742870D01*
X2563200Y1749220D01*
X2562520Y1755570D01*
X2563880Y1762980D01*
X2568620Y1768270D01*
X2573360Y1770390D01*
X2579450D01*
G01X2573360D02*
X2569290Y1773560D01*
X2565910Y1778850D01*
X2564550Y1785200D01*
X2565910Y1791550D01*
X2569290Y1796840D01*
X2575390Y1800020D01*
X2581490Y1798960D01*
X2587580Y1794730D01*
G01X2535090Y1789440D02*
X2531030Y1795790D01*
X2526280Y1798960D01*
X2520870Y1800020D01*
X2514090Y1797900D01*
X2509350Y1792610D01*
X2508000Y1786260D01*
X2508670Y1779910D01*
X2511380Y1774620D01*
X2524930Y1764040D01*
X2531030Y1756630D01*
X2535090Y1746040D01*
X2536440Y1736520D01*
X2508000D01*
G01X2774190Y1630680D02*
X2757930D01*
G01X2766060D02*
Y1567180D01*
G01X2774190D02*
X2757930D01*
G01X2725760D02*
Y1630680D01*
X2694600Y1567180D01*
Y1630680D01*
G01X2654300D02*
Y1567180D01*
G01X2669880Y1630680D02*
X2638720D01*
G01X2615350Y1567180D02*
X2598420Y1630680D01*
X2581490Y1567180D01*
G01X2587580Y1589400D02*
X2609260D01*
G01X2771650Y1899920D02*
X2755390D01*
G01X2763520D02*
Y1836420D01*
G01X2771650D02*
X2755390D01*
G01X2723220D02*
Y1899920D01*
X2692060Y1836420D01*
Y1899920D01*
G01X2651760D02*
Y1836420D01*
G01X2667340Y1899920D02*
X2636180D01*
G01X2590460Y1870290D02*
X2587750Y1873460D01*
X2585720Y1878750D01*
X2584360Y1886160D01*
X2585720Y1892510D01*
X2588430Y1896740D01*
X2593170Y1899920D01*
X2611460D01*
Y1836420D01*
X2589110D01*
X2584360Y1840650D01*
X2581660Y1847000D01*
X2580300Y1854410D01*
X2581660Y1861820D01*
X2585720Y1868170D01*
X2590460Y1870290D01*
X2611460D01*
G01X2772660Y2350340D02*
X2767250Y2345050D01*
X2761150Y2341880D01*
X2755730D01*
X2750310Y2345050D01*
X2746250Y2350340D01*
X2744220Y2357760D01*
X2745570Y2365160D01*
X2748960Y2371510D01*
X2755050Y2375750D01*
X2763180Y2377860D01*
X2767920Y2382100D01*
X2769960Y2389500D01*
X2768600Y2396910D01*
X2765210Y2402200D01*
X2760470Y2405380D01*
X2755730D01*
X2750990Y2403260D01*
X2746920Y2397970D01*
G01X2722880Y2405380D02*
X2713400Y2341880D01*
X2702560Y2405380D01*
X2691720Y2341880D01*
X2682240Y2405380D01*
G01X2661580Y2341880D02*
Y2405380D01*
X2648030D01*
X2642620Y2402200D01*
X2638550Y2397970D01*
X2635160Y2391620D01*
X2632460Y2384210D01*
X2631780Y2373630D01*
X2632460Y2363050D01*
X2635160Y2355640D01*
X2638550Y2349290D01*
X2642620Y2345050D01*
X2648030Y2341880D01*
X2661580D01*
G01X2598930Y2405380D02*
X2582670D01*
G01X2590800D02*
Y2341880D01*
G01X2598930D02*
X2582670D01*
G01X2534920D02*
X2540340Y2342940D01*
X2545080Y2347170D01*
X2549140Y2353520D01*
X2551850Y2360930D01*
X2553210Y2369400D01*
Y2377860D01*
X2551850Y2386330D01*
X2549140Y2393740D01*
X2545080Y2400090D01*
X2540340Y2404320D01*
X2534920Y2405380D01*
X2529500Y2404320D01*
X2524760Y2400090D01*
X2520700Y2393740D01*
X2517990Y2386330D01*
X2516630Y2377860D01*
Y2369400D01*
X2517990Y2360930D01*
X2520700Y2353520D01*
X2524760Y2347170D01*
X2529500Y2342940D01*
X2534920Y2341880D01*
G54D12*
G01X1442720Y2288540D02*
X1666240D01*
G01X1435100Y2286000D02*
X1668780D01*
G01X1424940Y2283460D02*
X1668780D01*
G01X1417320Y2280920D02*
X1671320D01*
G01X1409700Y2278380D02*
X1671320D01*
G01X1404620Y2275840D02*
X1673860D01*
G01X1404620Y2273300D02*
X1483360D01*
G01X1402080Y2270760D02*
X1468120D01*
G01X1399540Y2268220D02*
X1455420D01*
G01X1399540Y2265680D02*
X1445260D01*
G01X1399540Y2263140D02*
X1435100D01*
G01X1397000Y2260600D02*
X1430020D01*
G01X1397000Y2258060D02*
X1422400D01*
G01X1397000Y2255520D02*
X1424940D01*
G01X1397000Y2252980D02*
X1424940D01*
G01X1399540Y2250440D02*
X1430020D01*
G01X1399540Y2247900D02*
X1430020D01*
G01X1402080Y2245360D02*
X1435100D01*
G01X1402080Y2242820D02*
X1435100D01*
G01X1404620Y2240280D02*
X1437640D01*
G01X1404620Y2237740D02*
X1440180D01*
G01X1409700Y2235200D02*
X1442720D01*
G01X1409700Y2232660D02*
X1445260D01*
G01X1412240Y2230120D02*
X1447800D01*
G01X1414780Y2227580D02*
X1450340D01*
G01X1417320Y2225040D02*
X1452880D01*
G01X1419860Y2222500D02*
X1455420D01*
G01X1422400Y2219960D02*
X1457960D01*
G01X1427480Y2217420D02*
X1460500D01*
G01X1430020Y2214880D02*
X1463040D01*
G01X1432560Y2212340D02*
X1468120D01*
G01X1435100Y2209800D02*
X1470660D01*
G01X1437640Y2207260D02*
X1475740D01*
G01X1437640Y2204720D02*
X1478280D01*
G01X1442720Y2202180D02*
X1483360D01*
G01X1445260Y2199640D02*
X1485900D01*
G01X1450340Y2197100D02*
X1488440D01*
G01X1452880Y2194560D02*
X1490980D01*
G01X1455420Y2192020D02*
X1496060D01*
G01X1455420Y2189480D02*
X1498600D01*
G01X1508760Y2146300D02*
X1531620D01*
G01X1539240D02*
X1615440D01*
G01X1742440D02*
X1762760D01*
G01X1506220Y2143760D02*
X1531620D01*
G01X1546860D02*
X1633220D01*
G01X1739900D02*
X1762760D01*
G01X1506220Y2141220D02*
X1529080D01*
G01X1557020D02*
X1658620D01*
G01X1719580D02*
X1762760D01*
G01X1506220Y2138680D02*
X1529080D01*
G01X1562100D02*
X1762760D01*
G01X1506220Y2136140D02*
X1529080D01*
G01X1572260D02*
X1760220D01*
G01X1506220Y2133600D02*
X1526540D01*
G01X1582420D02*
X1760220D01*
G01X1506220Y2131060D02*
X1526540D01*
G01X1595120D02*
X1757680D01*
G01X1503680Y2128520D02*
X1526540D01*
G01X1605280D02*
X1755140D01*
G01X1503680Y2125980D02*
X1526540D01*
G01X1617980D02*
X1752600D01*
G01X1501140Y2123440D02*
X1524000D01*
G01X1638300D02*
X1734820D01*
G01X1501140Y2120900D02*
X1524000D01*
G01X1666240D02*
X1709420D01*
G01X1501140Y2118360D02*
X1524000D01*
G01X1501140Y2115820D02*
X1524000D01*
G01X1501140Y2113280D02*
X1524000D01*
G01X1501140Y2110740D02*
X1524000D01*
G01X1501140Y2108200D02*
X1524000D01*
G01X1501140Y2105660D02*
X1524000D01*
G01X1501140Y2103120D02*
X1521460D01*
G01X1501140Y2100580D02*
X1521460D01*
G01X1501140Y2098040D02*
X1521460D01*
G01X1501140Y2095500D02*
X1521460D01*
G01X1501140Y2092960D02*
X1521460D01*
G01X1501140Y2090420D02*
X1521460D01*
G01X1496060Y2087880D02*
X1521460D01*
G01X1496060Y2085340D02*
X1521460D01*
G01X1496060Y2082800D02*
X1521460D01*
G01X1496060Y2080260D02*
X1518920D01*
G01X1496060Y2077720D02*
X1518920D01*
G01X1496060Y2075180D02*
X1518920D01*
G01X1496060Y2072640D02*
X1518920D01*
G01X1496060Y2070100D02*
X1518920D01*
G01X1496060Y2067560D02*
X1518920D01*
G01X1496060Y2065020D02*
X1518920D01*
G01X1496060Y2062480D02*
X1518920D01*
G01X1496060Y2059940D02*
X1518920D01*
G01X1496060Y2057400D02*
X1518920D01*
G01X1496060Y2054860D02*
X1518920D01*
G01X1496060Y2052320D02*
X1518920D01*
G01X1496060Y2049780D02*
X1518920D01*
G01X1496060Y2047240D02*
X1518920D01*
G01X1496060Y2044700D02*
X1518920D01*
G01X1496060Y2042160D02*
X1518920D01*
G01X1496060Y2039620D02*
X1518920D01*
G01X1496060Y2037080D02*
X1518920D01*
G01X1496060Y2034540D02*
X1518920D01*
G01X1496060Y2032000D02*
X1518920D01*
G01X1496060Y2029460D02*
X1518920D01*
G01X1496060Y2026920D02*
X1518920D01*
G01X1496060Y2024380D02*
X1518920D01*
G01X1496060Y2021840D02*
X1518920D01*
G01X1496060Y2019300D02*
X1518920D01*
G01X1496060Y2016760D02*
X1518920D01*
G01X1496060Y2014220D02*
X1518920D01*
G01X1496060Y2011680D02*
X1518920D01*
G01X1496060Y2009140D02*
X1518920D01*
G01X1496060Y2006600D02*
X1518920D01*
G01X1498600Y2004060D02*
X1518920D01*
G01X1498600Y2001520D02*
X1518920D01*
G01X1498600Y1998980D02*
X1518920D01*
G01X1498600Y1996440D02*
X1518920D01*
G01X1498600Y1993900D02*
X1521460D01*
G01X1498600Y1991360D02*
X1521460D01*
G01X1498600Y1988820D02*
X1521460D01*
G01X1617980D02*
X1633220D01*
G01X1498600Y1986280D02*
X1524000D01*
G01X1605280D02*
X1645920D01*
G01X1501140Y1983740D02*
X1524000D01*
G01X1600200D02*
X1651000D01*
G01X1501140Y1981200D02*
X1524000D01*
G01X1592580D02*
X1653540D01*
G01X1501140Y1978660D02*
X1526540D01*
G01X1587500D02*
X1658620D01*
G01X1503680Y1976120D02*
X1526540D01*
G01X1582420D02*
X1661160D01*
G01X1503680Y1973580D02*
X1529080D01*
G01X1579880D02*
X1663700D01*
G01X1506220Y1971040D02*
X1531620D01*
G01X1577340D02*
X1666240D01*
G01X1506220Y1968500D02*
X1531620D01*
G01X1572260D02*
X1668780D01*
G01X1508760Y1965960D02*
X1536700D01*
G01X1567180D02*
X1610360D01*
G01X1633220D02*
X1671320D01*
G01X1508760Y1963420D02*
X1539240D01*
G01X1562100D02*
X1602740D01*
G01X1638300D02*
X1671320D01*
G01X1511300Y1960880D02*
X1544320D01*
G01X1557020D02*
X1597660D01*
G01X1643380D02*
X1673860D01*
G01X1511300Y1958340D02*
X1595120D01*
G01X1645920D02*
X1673860D01*
G01X1513840Y1955800D02*
X1590040D01*
G01X1648460D02*
X1676400D01*
G01X1513840Y1953260D02*
X1587500D01*
G01X1651000D02*
X1678940D01*
G01X1516380Y1950720D02*
X1582420D01*
G01X1653540D02*
X1681480D01*
G01X1518920Y1948180D02*
X1579880D01*
G01X1653540D02*
X1684020D01*
G01X1521460Y1945640D02*
X1579880D01*
G01X1656080D02*
X1684020D01*
G01X1529080Y1943100D02*
X1569720D01*
G01X1658620D02*
X1686560D01*
G01X1544320Y1940560D02*
X1554480D01*
G01X1658620D02*
X1689100D01*
G01X1661160Y1938020D02*
X1691640D01*
G01X1661160Y1935480D02*
X1691640D01*
G01X1800860D02*
X1833880D01*
G01X1663700Y1932940D02*
X1694180D01*
G01X1798320D02*
X1831340D01*
G01X1668780Y1930400D02*
X1696720D01*
G01X1795780D02*
X1828800D01*
G01X1668780Y1927860D02*
X1699260D01*
G01X1793240D02*
X1826260D01*
G01X1671320Y1925320D02*
X1701800D01*
G01X1790700D02*
X1823720D01*
G01X1671320Y1922780D02*
X1704340D01*
G01X1788160D02*
X1821180D01*
G01X1673860Y1920240D02*
X1706880D01*
G01X1785620D02*
X1818640D01*
G01X1676400Y1917700D02*
X1709420D01*
G01X1783080D02*
X1816100D01*
G01X1678940Y1915160D02*
X1711960D01*
G01X1780540D02*
X1811020D01*
G01X1678940Y1912620D02*
X1717040D01*
G01X1775460D02*
X1811020D01*
G01X1681480Y1910080D02*
X1722120D01*
G01X1772920D02*
X1808480D01*
G01X1684020Y1907540D02*
X1727200D01*
G01X1767840D02*
X1805940D01*
G01X1686560Y1905000D02*
X1734820D01*
G01X1760220D02*
X1800860D01*
G01X1686560Y1902460D02*
X1798320D01*
G01X1691640Y1899920D02*
X1795780D01*
G01X1701800Y1897380D02*
X1790700D01*
G01X1701800Y1894840D02*
X1788160D01*
G01X1706880Y1892300D02*
X1783080D01*
G01X1711960Y1889760D02*
X1780540D01*
G01X1717040Y1887220D02*
X1775460D01*
G01X1722120Y1884680D02*
X1772920D01*
G01X1729740Y1882140D02*
X1767840D01*
G01X1747520Y1879600D02*
X1755140D01*
G01X1590040Y2491740D02*
X1615440D01*
G01X1663700D02*
X1691640D01*
G01X1704340D02*
X1732280D01*
G01X1590040Y2489200D02*
X1612900D01*
G01X1661160D02*
X1691640D01*
G01X1706880D02*
X1732280D01*
G01X1590040Y2486660D02*
X1615440D01*
G01X1661160D02*
X1691640D01*
G01X1709420D02*
X1734820D01*
G01X1587500Y2484120D02*
X1648460D01*
G01X1663700D02*
X1691640D01*
G01X1711960D02*
X1737360D01*
G01X1587500Y2481580D02*
X1661160D01*
G01X1663700D02*
X1691640D01*
G01X1714500D02*
X1737360D01*
G01X1587500Y2479040D02*
X1689100D01*
G01X1714500D02*
X1739900D01*
G01X1584960Y2476500D02*
X1684020D01*
G01X1719580D02*
X1739900D01*
G01X1584960Y2473960D02*
X1681480D01*
G01X1719580D02*
X1742440D01*
G01X1584960Y2471420D02*
X1686560D01*
G01X1722120D02*
X1742440D01*
G01X1584960Y2468880D02*
X1689100D01*
G01X1724660D02*
X1744980D01*
G01X1582420Y2466340D02*
X1607820D01*
G01X1612900D02*
X1691640D01*
G01X1724660D02*
X1744980D01*
G01X1582420Y2463800D02*
X1607820D01*
G01X1648460D02*
X1696720D01*
G01X1724660D02*
X1744980D01*
G01X1795780D02*
X1920240D01*
G01X1579880Y2461260D02*
X1605280D01*
G01X1661160D02*
X1699260D01*
G01X1727200D02*
X1744980D01*
G01X1793240D02*
X1925320D01*
G01X1579880Y2458720D02*
X1605280D01*
G01X1666240D02*
X1701800D01*
G01X1727200D02*
X1747520D01*
G01X1788160D02*
X1838960D01*
G01X1579880Y2456180D02*
X1605280D01*
G01X1671320D02*
X1704340D01*
G01X1727200D02*
X1747520D01*
G01X1785620D02*
X1828800D01*
G01X1579880Y2453640D02*
X1602740D01*
G01X1678940D02*
X1706880D01*
G01X1729740D02*
X1747520D01*
G01X1783080D02*
X1821180D01*
G01X1579880Y2451100D02*
X1602740D01*
G01X1681480D02*
X1709420D01*
G01X1729740D02*
X1747520D01*
G01X1780540D02*
X1816100D01*
G01X1524000Y2448560D02*
X1551940D01*
G01X1577340D02*
X1602740D01*
G01X1684020D02*
X1711960D01*
G01X1729740D02*
X1747520D01*
G01X1778000D02*
X1811020D01*
G01X1503680Y2446020D02*
X1600200D01*
G01X1686560D02*
X1711960D01*
G01X1729740D02*
X1747520D01*
G01X1775460D02*
X1805940D01*
G01X1485900Y2443480D02*
X1600200D01*
G01X1689100D02*
X1714500D01*
G01X1729740D02*
X1747520D01*
G01X1772920D02*
X1800860D01*
G01X1480820Y2440940D02*
X1602740D01*
G01X1691640D02*
X1717040D01*
G01X1729740D02*
X1747520D01*
G01X1772920D02*
X1798320D01*
G01X1478280Y2438400D02*
X1615440D01*
G01X1694180D02*
X1719580D01*
G01X1729740D02*
X1747520D01*
G01X1770380D02*
X1793240D01*
G01X1473200Y2435860D02*
X1623060D01*
G01X1696720D02*
X1724660D01*
G01X1727200D02*
X1747520D01*
G01X1767840D02*
X1793240D01*
G01X1470660Y2433320D02*
X1630680D01*
G01X1699260D02*
X1747520D01*
G01X1767840D02*
X1790700D01*
G01X1470660Y2430780D02*
X1635760D01*
G01X1701800D02*
X1744980D01*
G01X1767840D02*
X1788160D01*
G01X1470660Y2428240D02*
X1643380D01*
G01X1701800D02*
X1744980D01*
G01X1767840D02*
X1788160D01*
G01X1470660Y2425700D02*
X1518920D01*
G01X1564640D02*
X1648460D01*
G01X1704340D02*
X1744980D01*
G01X1765300D02*
X1785620D01*
G01X1468120Y2423160D02*
X1503680D01*
G01X1584960D02*
X1656080D01*
G01X1706880D02*
X1742440D01*
G01X1765300D02*
X1785620D01*
G01X1465580Y2420620D02*
X1508760D01*
G01X1597660D02*
X1658620D01*
G01X1709420D02*
X1739900D01*
G01X1765300D02*
X1785620D01*
G01X1465580Y2418080D02*
X1516380D01*
G01X1610360D02*
X1663700D01*
G01X1711960D02*
X1737360D01*
G01X1765300D02*
X1785620D01*
G01X1800860D02*
X1892300D01*
G01X1465580Y2415540D02*
X1521460D01*
G01X1617980D02*
X1668780D01*
G01X1719580D02*
X1732280D01*
G01X1767840D02*
X1882140D01*
G01X1465580Y2413000D02*
X1526540D01*
G01X1625600D02*
X1671320D01*
G01X1767840D02*
X1889760D01*
G01X1465580Y2410460D02*
X1529080D01*
G01X1633220D02*
X1676400D01*
G01X1767840D02*
X1897380D01*
G01X1465580Y2407920D02*
X1534160D01*
G01X1638300D02*
X1681480D01*
G01X1770380D02*
X1902460D01*
G01X1465580Y2405380D02*
X1539240D01*
G01X1645920D02*
X1684020D01*
G01X1772920D02*
X1907540D01*
G01X1465580Y2402840D02*
X1541780D01*
G01X1651000D02*
X1689100D01*
G01X1775460D02*
X1828800D01*
G01X1468120Y2400300D02*
X1546860D01*
G01X1656080D02*
X1691640D01*
G01X1780540D02*
X1808480D01*
G01X1468120Y2397760D02*
X1551940D01*
G01X1658620D02*
X1694180D01*
G01X1470660Y2395220D02*
X1557020D01*
G01X1663700D02*
X1696720D01*
G01X1470660Y2392680D02*
X1559560D01*
G01X1666240D02*
X1699260D01*
G01X1470660Y2390140D02*
X1562100D01*
G01X1671320D02*
X1701800D01*
G01X1473200Y2387600D02*
X1564640D01*
G01X1671320D02*
X1704340D01*
G01X1473200Y2385060D02*
X1569720D01*
G01X1676400D02*
X1706880D01*
G01X1473200Y2382520D02*
X1572260D01*
G01X1678940D02*
X1709420D01*
G01X1473200Y2379980D02*
X1577340D01*
G01X1681480D02*
X1711960D01*
G01X1473200Y2377440D02*
X1579880D01*
G01X1686560D02*
X1714500D01*
G01X1475740Y2374900D02*
X1584960D01*
G01X1689100D02*
X1714500D01*
G01X1475740Y2372360D02*
X1587500D01*
G01X1691640D02*
X1717040D01*
G01X1478280Y2369820D02*
X1590040D01*
G01X1694180D02*
X1719580D01*
G01X1478280Y2367280D02*
X1595120D01*
G01X1694180D02*
X1722120D01*
G01X1480820Y2364740D02*
X1597660D01*
G01X1699260D02*
X1724660D01*
G01X1480820Y2362200D02*
X1600200D01*
G01X1699260D02*
X1724660D01*
G01X1480820Y2359660D02*
X1605280D01*
G01X1701800D02*
X1727200D01*
G01X1483360Y2357120D02*
X1607820D01*
G01X1704340D02*
X1729740D01*
G01X1485900Y2354580D02*
X1610360D01*
G01X1704340D02*
X1732280D01*
G01X1488440Y2352040D02*
X1612900D01*
G01X1706880D02*
X1732280D01*
G01X1488440Y2349500D02*
X1615440D01*
G01X1709420D02*
X1732280D01*
G01X1488440Y2346960D02*
X1617980D01*
G01X1709420D02*
X1734820D01*
G01X1488440Y2344420D02*
X1620520D01*
G01X1711960D02*
X1737360D01*
G01X1488440Y2341880D02*
X1623060D01*
G01X1714500D02*
X1737360D01*
G01X1488440Y2339340D02*
X1625600D01*
G01X1714500D02*
X1739900D01*
G01X1490980Y2336800D02*
X1628140D01*
G01X1717040D02*
X1739900D01*
G01X1490980Y2334260D02*
X1630680D01*
G01X1719580D02*
X1742440D01*
G01X1490980Y2331720D02*
X1633220D01*
G01X1719580D02*
X1742440D01*
G01X1493520Y2329180D02*
X1635760D01*
G01X1722120D02*
X1742440D01*
G01X1496060Y2326640D02*
X1638300D01*
G01X1722120D02*
X1744980D01*
G01X1496060Y2324100D02*
X1640840D01*
G01X1724660D02*
X1744980D01*
G01X1498600Y2321560D02*
X1643380D01*
G01X1724660D02*
X1747520D01*
G01X1498600Y2319020D02*
X1645920D01*
G01X1727200D02*
X1747520D01*
G01X1501140Y2316480D02*
X1648460D01*
G01X1727200D02*
X1747520D01*
G01X1501140Y2313940D02*
X1648460D01*
G01X1727200D02*
X1750060D01*
G01X1503680Y2311400D02*
X1651000D01*
G01X1729740D02*
X1750060D01*
G01X1506220Y2308860D02*
X1651000D01*
G01X1729740D02*
X1750060D01*
G01X1508760Y2306320D02*
X1653540D01*
G01X1729740D02*
X1752600D01*
G01X1511300Y2303780D02*
X1656080D01*
G01X1732280D02*
X1752600D01*
G01X1511300Y2301240D02*
X1658620D01*
G01X1732280D02*
X1752600D01*
G01X1511300Y2298700D02*
X1658620D01*
G01X1732280D02*
X1752600D01*
G01X1493520Y2296160D02*
X1661160D01*
G01X1734820D02*
X1755140D01*
G01X1465580Y2293620D02*
X1663700D01*
G01X1734820D02*
X1755140D01*
G01X1457960Y2291080D02*
X1663700D01*
G01X1734820D02*
X1755140D01*
G01X1737360Y2288540D02*
X1757680D01*
G01X1737360Y2286000D02*
X1757680D01*
G01X1737360Y2283460D02*
X1757680D01*
G01X1737360Y2280920D02*
X1757680D01*
G01X1739900Y2278380D02*
X1757680D01*
G01X1739900Y2275840D02*
X1757680D01*
G01X1549400Y2273300D02*
X1673860D01*
G01X1739900D02*
X1760220D01*
G01X1567180Y2270760D02*
X1676400D01*
G01X1739900D02*
X1760220D01*
G01X1587500Y2268220D02*
X1676400D01*
G01X1739900D02*
X1760220D01*
G01X1602740Y2265680D02*
X1676400D01*
G01X1739900D02*
X1762760D01*
G01X1620520Y2263140D02*
X1678940D01*
G01X1742440D02*
X1762760D01*
G01X1633220Y2260600D02*
X1678940D01*
G01X1742440D02*
X1762760D01*
G01X1648460Y2258060D02*
X1681480D01*
G01X1742440D02*
X1762760D01*
G01X1658620Y2255520D02*
X1681480D01*
G01X1742440D02*
X1762760D01*
G01X1668780Y2252980D02*
X1681480D01*
G01X1742440D02*
X1765300D01*
G01X1742440Y2250440D02*
X1765300D01*
G01X1742440Y2247900D02*
X1765300D01*
G01X1744980Y2245360D02*
X1765300D01*
G01X1744980Y2242820D02*
X1765300D01*
G01X1744980Y2240280D02*
X1765300D01*
G01X1744980Y2237740D02*
X1765300D01*
G01X1744980Y2235200D02*
X1765300D01*
G01X1744980Y2232660D02*
X1765300D01*
G01X1744980Y2230120D02*
X1765300D01*
G01X1744980Y2227580D02*
X1765300D01*
G01X1744980Y2225040D02*
X1765300D01*
G01X1744980Y2222500D02*
X1765300D01*
G01X1744980Y2219960D02*
X1765300D01*
G01X1744980Y2217420D02*
X1765300D01*
G01X1744980Y2214880D02*
X1765300D01*
G01X1744980Y2212340D02*
X1765300D01*
G01X1744980Y2209800D02*
X1765300D01*
G01X1744980Y2207260D02*
X1765300D01*
G01X1744980Y2204720D02*
X1765300D01*
G01X1744980Y2202180D02*
X1765300D01*
G01X1744980Y2199640D02*
X1765300D01*
G01X1744980Y2197100D02*
X1765300D01*
G01X1744980Y2194560D02*
X1765300D01*
G01X1744980Y2192020D02*
X1765300D01*
G01X1744980Y2189480D02*
X1765300D01*
G01X1457960Y2186940D02*
X1503680D01*
G01X1744980D02*
X1765300D01*
G01X1463040Y2184400D02*
X1508760D01*
G01X1744980D02*
X1765300D01*
G01X1470660Y2181860D02*
X1513840D01*
G01X1744980D02*
X1765300D01*
G01X1473200Y2179320D02*
X1518920D01*
G01X1744980D02*
X1765300D01*
G01X1475740Y2176780D02*
X1524000D01*
G01X1744980D02*
X1765300D01*
G01X1480820Y2174240D02*
X1529080D01*
G01X1744980D02*
X1765300D01*
G01X1483360Y2171700D02*
X1534160D01*
G01X1744980D02*
X1765300D01*
G01X1488440Y2169160D02*
X1541780D01*
G01X1744980D02*
X1765300D01*
G01X1490980Y2166620D02*
X1546860D01*
G01X1744980D02*
X1765300D01*
G01X1498600Y2164080D02*
X1554480D01*
G01X1744980D02*
X1765300D01*
G01X1506220Y2161540D02*
X1562100D01*
G01X1744980D02*
X1765300D01*
G01X1508760Y2159000D02*
X1569720D01*
G01X1742440D02*
X1765300D01*
G01X1508760Y2156460D02*
X1572260D01*
G01X1742440D02*
X1765300D01*
G01X1508760Y2153920D02*
X1582420D01*
G01X1742440D02*
X1765300D01*
G01X1508760Y2151380D02*
X1590040D01*
G01X1742440D02*
X1762760D01*
G01X1508760Y2148840D02*
X1602740D01*
G01X1742440D02*
X1762760D01*
G01X1744980Y2837180D02*
X1836420D01*
G01X1739900Y2834640D02*
X1841500D01*
G01X1737360Y2832100D02*
X1846580D01*
G01X1734820Y2829560D02*
X1849120D01*
G01X1732280Y2827020D02*
X1854200D01*
G01X1729740Y2824480D02*
X1856740D01*
G01X1727200Y2821940D02*
X1765300D01*
G01X1724660Y2819400D02*
X1757680D01*
G01X1724660Y2816860D02*
X1755140D01*
G01X1722120Y2814320D02*
X1750060D01*
G01X1719580Y2811780D02*
X1747520D01*
G01X1719580Y2809240D02*
X1747520D01*
G01X1719580Y2806700D02*
X1744980D01*
G01X1714500Y2804160D02*
X1744980D01*
G01X1714500Y2801620D02*
X1742440D01*
G01X1714500Y2799080D02*
X1739900D01*
G01X1711960Y2796540D02*
X1737360D01*
G01X1711960Y2794000D02*
X1737360D01*
G01X1711960Y2791460D02*
X1737360D01*
G01X1711960Y2788920D02*
X1737360D01*
G01X1709420Y2786380D02*
X1734820D01*
G01X1709420Y2783840D02*
X1734820D01*
G01X1706880Y2781300D02*
X1734820D01*
G01X1706880Y2778760D02*
X1734820D01*
G01X1704340Y2776220D02*
X1734820D01*
G01X1704340Y2773680D02*
X1734820D01*
G01X1701800Y2771140D02*
X1734820D01*
G01X1701800Y2768600D02*
X1732280D01*
G01X1701800Y2766060D02*
X1732280D01*
G01X1701800Y2763520D02*
X1729740D01*
G01X1701800Y2760980D02*
X1729740D01*
G01X1701800Y2758440D02*
X1729740D01*
G01X1704340Y2755900D02*
X1729740D01*
G01X1701800Y2753360D02*
X1729740D01*
G01X1701800Y2750820D02*
X1729740D01*
G01X1701800Y2748280D02*
X1729740D01*
G01X1701800Y2745740D02*
X1729740D01*
G01X1701800Y2743200D02*
X1729740D01*
G01X1701800Y2740660D02*
X1729740D01*
G01X1701800Y2738120D02*
X1729740D01*
G01X1701800Y2735580D02*
X1729740D01*
G01X1701800Y2733040D02*
X1729740D01*
G01X1701800Y2730500D02*
X1729740D01*
G01X1701800Y2727960D02*
X1729740D01*
G01X1701800Y2725420D02*
X1729740D01*
G01X1701800Y2722880D02*
X1729740D01*
G01X1701800Y2720340D02*
X1729740D01*
G01X1701800Y2717800D02*
X1729740D01*
G01X1701800Y2715260D02*
X1729740D01*
G01X1701800Y2712720D02*
X1729740D01*
G01X1701800Y2710180D02*
X1729740D01*
G01X1701800Y2707640D02*
X1729740D01*
G01X1701800Y2705100D02*
X1729740D01*
G01X1701800Y2702560D02*
X1729740D01*
G01X1701800Y2700020D02*
X1729740D01*
G01X1701800Y2697480D02*
X1729740D01*
G01X1701800Y2694940D02*
X1729740D01*
G01X1701800Y2692400D02*
X1729740D01*
G01X1701800Y2689860D02*
X1729740D01*
G01X1701800Y2687320D02*
X1729740D01*
G01X1701800Y2684780D02*
X1729740D01*
G01X1701800Y2682240D02*
X1729740D01*
G01X1701800Y2679700D02*
X1729740D01*
G01X1701800Y2677160D02*
X1729740D01*
G01X1795780D02*
X1912620D01*
G01X1701800Y2674620D02*
X1732280D01*
G01X1780540D02*
X1932940D01*
G01X1701800Y2672080D02*
X1732280D01*
G01X1775460D02*
X1948180D01*
G01X1701800Y2669540D02*
X1732280D01*
G01X1767840D02*
X1963420D01*
G01X1701800Y2667000D02*
X1734820D01*
G01X1762760D02*
X1976120D01*
G01X1701800Y2664460D02*
X1734820D01*
G01X1760220D02*
X1978660D01*
G01X1704340Y2661920D02*
X1734820D01*
G01X1752600D02*
X1993900D01*
G01X1704340Y2659380D02*
X1734820D01*
G01X1742440D02*
X2001520D01*
G01X1704340Y2656840D02*
X1734820D01*
G01X1742440D02*
X1838960D01*
G01X1704340Y2654300D02*
X1800860D01*
G01X1704340Y2651760D02*
X1790700D01*
G01X1706880Y2649220D02*
X1780540D01*
G01X1706880Y2646680D02*
X1772920D01*
G01X1706880Y2644140D02*
X1767840D01*
G01X1706880Y2641600D02*
X1757680D01*
G01X1706880Y2639060D02*
X1752600D01*
G01X1694180Y2636520D02*
X1696720D01*
G01X1701800D02*
X1747520D01*
G01X1694180Y2633980D02*
X1742440D01*
G01X1691640Y2631440D02*
X1737360D01*
G01X1689100Y2628900D02*
X1732280D01*
G01X1691640Y2626360D02*
X1729740D01*
G01X1684020Y2623820D02*
X1727200D01*
G01X1681480Y2621280D02*
X1722120D01*
G01X1678940Y2618740D02*
X1717040D01*
G01X1671320Y2616200D02*
X1714500D01*
G01X1666240Y2613660D02*
X1709420D01*
G01X1663700Y2611120D02*
X1706880D01*
G01X1661160Y2608580D02*
X1704340D01*
G01X1661160Y2606040D02*
X1699260D01*
G01X1658620Y2603500D02*
X1696720D01*
G01X1658620Y2600960D02*
X1694180D01*
G01X1656080Y2598420D02*
X1691640D01*
G01X1653540Y2595880D02*
X1689100D01*
G01X1651000Y2593340D02*
X1686560D01*
G01X1651000Y2590800D02*
X1684020D01*
G01X1648460Y2588260D02*
X1681480D01*
G01X1648460Y2585720D02*
X1676400D01*
G01X1648460Y2583180D02*
X1676400D01*
G01X1643380Y2580640D02*
X1673860D01*
G01X1640840Y2578100D02*
X1671320D01*
G01X1638300Y2575560D02*
X1668780D01*
G01X1638300Y2573020D02*
X1666240D01*
G01X1635760Y2570480D02*
X1663700D01*
G01X1630680Y2567940D02*
X1663700D01*
G01X1630680Y2565400D02*
X1661160D01*
G01X1628140Y2562860D02*
X1658620D01*
G01X1628140Y2560320D02*
X1656080D01*
G01X1625600Y2557780D02*
X1656080D01*
G01X1623060Y2555240D02*
X1653540D01*
G01X1620520Y2552700D02*
X1651000D01*
G01X1620520Y2550160D02*
X1648460D01*
G01X1617980Y2547620D02*
X1648460D01*
G01X1617980Y2545080D02*
X1645920D01*
G01X1617980Y2542540D02*
X1645920D01*
G01X1615440Y2540000D02*
X1643380D01*
G01X1612900Y2537460D02*
X1640840D01*
G01X1610360Y2534920D02*
X1640840D01*
G01X1610360Y2532380D02*
X1638300D01*
G01X1610360Y2529840D02*
X1638300D01*
G01X1607820Y2527300D02*
X1635760D01*
G01X1651000D02*
X1666240D01*
G01X1607820Y2524760D02*
X1633220D01*
G01X1635760D02*
X1681480D01*
G01X1607820Y2522220D02*
X1689100D01*
G01X1605280Y2519680D02*
X1696720D01*
G01X1602740Y2517140D02*
X1701800D01*
G01X1602740Y2514600D02*
X1704340D01*
G01X1600200Y2512060D02*
X1709420D01*
G01X1600200Y2509520D02*
X1711960D01*
G01X1600200Y2506980D02*
X1648460D01*
G01X1666240D02*
X1714500D01*
G01X1597660Y2504440D02*
X1635760D01*
G01X1678940D02*
X1717040D01*
G01X1597660Y2501900D02*
X1628140D01*
G01X1686560D02*
X1722120D01*
G01X1597660Y2499360D02*
X1623060D01*
G01X1671320D02*
X1684020D01*
G01X1691640D02*
X1724660D01*
G01X1595120Y2496820D02*
X1620520D01*
G01X1666240D02*
X1689100D01*
G01X1696720D02*
X1727200D01*
G01X1592580Y2494280D02*
X1617980D01*
G01X1663700D02*
X1691640D01*
G01X1699260D02*
X1729740D01*
G01X1765300Y2849880D02*
X1785620D01*
G01X1765300Y2847340D02*
X1795780D01*
G01X1757680Y2844800D02*
X1821180D01*
G01X1752600Y2842260D02*
X1826260D01*
G01X1750060Y2839720D02*
X1828800D01*
G01X2052320Y1996440D02*
X2077720D01*
G01X2044700Y1993900D02*
X2085340D01*
G01X2042160Y1991360D02*
X2087880D01*
G01X2039620Y1988820D02*
X2092960D01*
G01X2037080Y1986280D02*
X2098040D01*
G01X2034540Y1983740D02*
X2100580D01*
G01X1859280Y1981200D02*
X1866900D01*
G01X2034540D02*
X2103120D01*
G01X1854200Y1978660D02*
X1869440D01*
G01X2032000D02*
X2105660D01*
G01X1849120Y1976120D02*
X1871980D01*
G01X2029460D02*
X2057400D01*
G01X2067560D02*
X2108200D01*
G01X1846580Y1973580D02*
X1874520D01*
G01X2029460D02*
X2057400D01*
G01X2075180D02*
X2110740D01*
G01X1844040Y1971040D02*
X1877060D01*
G01X2029460D02*
X2057400D01*
G01X2077720D02*
X2113280D01*
G01X1838960Y1968500D02*
X1879600D01*
G01X2026920D02*
X2052320D01*
G01X2082800D02*
X2115820D01*
G01X1833880Y1965960D02*
X1879600D01*
G01X2026920D02*
X2052320D01*
G01X2087880D02*
X2118360D01*
G01X1831340Y1963420D02*
X1882140D01*
G01X2024380D02*
X2052320D01*
G01X2090420D02*
X2120900D01*
G01X1831340Y1960880D02*
X1884680D01*
G01X2024380D02*
X2047240D01*
G01X2092960D02*
X2120900D01*
G01X1826260Y1958340D02*
X1887220D01*
G01X2021840D02*
X2047240D01*
G01X2095500D02*
X2123440D01*
G01X1823720Y1955800D02*
X1889760D01*
G01X2021840D02*
X2047240D01*
G01X2098040D02*
X2123440D01*
G01X1821180Y1953260D02*
X1892300D01*
G01X2019300D02*
X2047240D01*
G01X2098040D02*
X2125980D01*
G01X1818640Y1950720D02*
X1854200D01*
G01X1864360D02*
X1894840D01*
G01X2019300D02*
X2044700D01*
G01X2100580D02*
X2128520D01*
G01X1816100Y1948180D02*
X1849120D01*
G01X1864360D02*
X1897380D01*
G01X2016760D02*
X2044700D01*
G01X2100580D02*
X2131060D01*
G01X1813560Y1945640D02*
X1849120D01*
G01X1869440D02*
X1899920D01*
G01X2014220D02*
X2042160D01*
G01X2103120D02*
X2133600D01*
G01X1811020Y1943100D02*
X1846580D01*
G01X1871980D02*
X1902460D01*
G01X2011680D02*
X2042160D01*
G01X2105660D02*
X2138680D01*
G01X1808480Y1940560D02*
X1838960D01*
G01X1871980D02*
X1905000D01*
G01X2009140D02*
X2037080D01*
G01X2110740D02*
X2143760D01*
G01X1805940Y1938020D02*
X1838960D01*
G01X1874520D02*
X1907540D01*
G01X2006600D02*
X2037080D01*
G01X2110740D02*
X2209800D01*
G01X1874520Y1935480D02*
X1910080D01*
G01X2004060D02*
X2037080D01*
G01X2113280D02*
X2207260D01*
G01X1877060Y1932940D02*
X1915160D01*
G01X2001520D02*
X2034540D01*
G01X2115820D02*
X2204720D01*
G01X1879600Y1930400D02*
X1917700D01*
G01X1996440D02*
X2032000D01*
G01X2120900D02*
X2194560D01*
G01X1882140Y1927860D02*
X1920240D01*
G01X1993900D02*
X2029460D01*
G01X2120900D02*
X2194560D01*
G01X1884680Y1925320D02*
X1925320D01*
G01X1988820D02*
X2026920D01*
G01X2125980D02*
X2189480D01*
G01X1889760Y1922780D02*
X1925320D01*
G01X1988820D02*
X2024380D01*
G01X2136140D02*
X2176780D01*
G01X1892300Y1920240D02*
X1932940D01*
G01X1981200D02*
X2021840D01*
G01X2141220D02*
X2174240D01*
G01X1894840Y1917700D02*
X1938020D01*
G01X1976120D02*
X2019300D01*
G01X1897380Y1915160D02*
X1943100D01*
G01X1971040D02*
X2016760D01*
G01X1899920Y1912620D02*
X1953260D01*
G01X1960880D02*
X2016760D01*
G01X1902460Y1910080D02*
X2009140D01*
G01X1910080Y1907540D02*
X2006600D01*
G01X1910080Y1905000D02*
X2001520D01*
G01X1912620Y1902460D02*
X1996440D01*
G01X1917700Y1899920D02*
X1993900D01*
G01X1922780Y1897380D02*
X1986280D01*
G01X1930400Y1894840D02*
X1983740D01*
G01X1935480Y1892300D02*
X1973580D01*
G01X1945640Y1889760D02*
X1960880D01*
G01X1836420Y2479040D02*
X1877060D01*
G01X1826260Y2476500D02*
X1889760D01*
G01X1818640Y2473960D02*
X1899920D01*
G01X1811020Y2471420D02*
X1907540D01*
G01X1808480Y2468880D02*
X1910080D01*
G01X1803400Y2466340D02*
X1915160D01*
G01X1877060Y2458720D02*
X1930400D01*
G01X1889760Y2456180D02*
X1932940D01*
G01X1897380Y2453640D02*
X1935480D01*
G01X1902460Y2451100D02*
X1940560D01*
G01X1871980Y2448560D02*
X1889760D01*
G01X1907540D02*
X1943100D01*
G01X1866900Y2446020D02*
X1894840D01*
G01X1912620D02*
X1945640D01*
G01X1864360Y2443480D02*
X1897380D01*
G01X1917700D02*
X1948180D01*
G01X1861820Y2440940D02*
X1899920D01*
G01X1920240D02*
X1950720D01*
G01X1861820Y2438400D02*
X1899920D01*
G01X1922780D02*
X1953260D01*
G01X1861820Y2435860D02*
X1902460D01*
G01X1927860D02*
X1955800D01*
G01X1861820Y2433320D02*
X1902460D01*
G01X1930400D02*
X1955800D01*
G01X1861820Y2430780D02*
X1902460D01*
G01X1932940D02*
X1958340D01*
G01X1861820Y2428240D02*
X1902460D01*
G01X1935480D02*
X1960880D01*
G01X1861820Y2425700D02*
X1899920D01*
G01X1938020D02*
X1960880D01*
G01X1864360Y2423160D02*
X1899920D01*
G01X1940560D02*
X1963420D01*
G01X1818640Y2420620D02*
X1864360D01*
G01X1866900D02*
X1897380D01*
G01X1940560D02*
X1965960D01*
G01X1943100Y2418080D02*
X1965960D01*
G01X1945640Y2415540D02*
X1968500D01*
G01X1948180Y2413000D02*
X1971040D01*
G01X1948180Y2410460D02*
X1971040D01*
G01X1950720Y2407920D02*
X1973580D01*
G01X1950720Y2405380D02*
X1973580D01*
G01X1854200Y2402840D02*
X1910080D01*
G01X1953260D02*
X1973580D01*
G01X1869440Y2400300D02*
X1915160D01*
G01X1953260D02*
X1976120D01*
G01X1877060Y2397760D02*
X1917700D01*
G01X1955800D02*
X1976120D01*
G01X1882140Y2395220D02*
X1920240D01*
G01X1955800D02*
X1976120D01*
G01X1889760Y2392680D02*
X1922780D01*
G01X1955800D02*
X1976120D01*
G01X1894840Y2390140D02*
X1925320D01*
G01X1958340D02*
X1976120D01*
G01X1897380Y2387600D02*
X1930400D01*
G01X1958340D02*
X1978660D01*
G01X1899920Y2385060D02*
X1932940D01*
G01X1958340D02*
X1978660D01*
G01X1905000Y2382520D02*
X1935480D01*
G01X1958340D02*
X1978660D01*
G01X1907540Y2379980D02*
X1938020D01*
G01X1958340D02*
X1978660D01*
G01X1910080Y2377440D02*
X1940560D01*
G01X1958340D02*
X1978660D01*
G01X1915160Y2374900D02*
X1945640D01*
G01X1958340D02*
X1978660D01*
G01X1917700Y2372360D02*
X1948180D01*
G01X1958340D02*
X1978660D01*
G01X1920240Y2369820D02*
X1953260D01*
G01X1955800D02*
X1976120D01*
G01X1922780Y2367280D02*
X1976120D01*
G01X1927860Y2364740D02*
X1976120D01*
G01X1930400Y2362200D02*
X1976120D01*
G01X1932940Y2359660D02*
X1973580D01*
G01X1935480Y2357120D02*
X1971040D01*
G01X1940560Y2354580D02*
X1965960D01*
G01X1945640Y2352040D02*
X1960880D01*
G01X1950720Y2349500D02*
X1958340D01*
G01X1805940Y2821940D02*
X1859280D01*
G01X1805940Y2819400D02*
X1864360D01*
G01X1813560Y2816860D02*
X1866900D01*
G01X1978660D02*
X1993900D01*
G01X1821180Y2814320D02*
X1869440D01*
G01X1973580D02*
X1998980D01*
G01X1826260Y2811780D02*
X1877060D01*
G01X1940560D02*
X2014220D01*
G01X1831340Y2809240D02*
X1879600D01*
G01X1932940D02*
X2019300D01*
G01X1836420Y2806700D02*
X1889760D01*
G01X1927860D02*
X2024380D01*
G01X1841500Y2804160D02*
X1892300D01*
G01X1920240D02*
X2026920D01*
G01X1849120Y2801620D02*
X2034540D01*
G01X1854200Y2799080D02*
X2039620D01*
G01X1856740Y2796540D02*
X2042160D01*
G01X1856740Y2794000D02*
X2047240D01*
G01X1859280Y2791460D02*
X1965960D01*
G01X2006600D02*
X2049780D01*
G01X1864360Y2788920D02*
X1955800D01*
G01X2014220D02*
X2049780D01*
G01X1866900Y2786380D02*
X1948180D01*
G01X2019300D02*
X2052320D01*
G01X1871980Y2783840D02*
X1940560D01*
G01X2019300D02*
X2054860D01*
G01X1879600Y2781300D02*
X1912620D01*
G01X2024380D02*
X2057400D01*
G01X1884680Y2778760D02*
X1889760D01*
G01X1892300D02*
X1912620D01*
G01X2026920D02*
X2057400D01*
G01X2029460Y2776220D02*
X2059940D01*
G01X2032000Y2773680D02*
X2059940D01*
G01X2034540Y2771140D02*
X2062480D01*
G01X2034540Y2768600D02*
X2065020D01*
G01X2034540Y2766060D02*
X2065020D01*
G01X2037080Y2763520D02*
X2065020D01*
G01X2039620Y2760980D02*
X2065020D01*
G01X2042160Y2758440D02*
X2067560D01*
G01X2044700Y2755900D02*
X2067560D01*
G01X2044700Y2753360D02*
X2070100D01*
G01X2044700Y2750820D02*
X2070100D01*
G01X2044700Y2748280D02*
X2070100D01*
G01X2044700Y2745740D02*
X2070100D01*
G01X2044700Y2743200D02*
X2070100D01*
G01X2047240Y2740660D02*
X2072640D01*
G01X2047240Y2738120D02*
X2072640D01*
G01X2047240Y2735580D02*
X2072640D01*
G01X2047240Y2733040D02*
X2080260D01*
G01X2049780Y2730500D02*
X2080260D01*
G01X2049780Y2727960D02*
X2095500D01*
G01X2049780Y2725420D02*
X2103120D01*
G01X2052320Y2722880D02*
X2110740D01*
G01X2052320Y2720340D02*
X2110740D01*
G01X2054860Y2717800D02*
X2131060D01*
G01X2062480Y2715260D02*
X2143760D01*
G01X2062480Y2712720D02*
X2151380D01*
G01X2070100Y2710180D02*
X2153920D01*
G01X2077720Y2707640D02*
X2161540D01*
G01X2077720Y2705100D02*
X2166620D01*
G01X2085340Y2702560D02*
X2166620D01*
G01X2090420Y2700020D02*
X2095500D01*
G01X2098040D02*
X2169160D01*
G01X2103120Y2697480D02*
X2169160D01*
G01X2120900Y2694940D02*
X2171700D01*
G01X2123440Y2692400D02*
X2174240D01*
G01X2136140Y2689860D02*
X2138680D01*
G01X2141220D02*
X2176780D01*
G01X2141220Y2687320D02*
X2179320D01*
G01X2146300Y2684780D02*
X2181860D01*
G01X1879600Y2679700D02*
X1889760D01*
G01X1859280Y2656840D02*
X2004060D01*
G01X1910080Y2654300D02*
X2016760D01*
G01X1930400Y2651760D02*
X2029460D01*
G01X1945640Y2649220D02*
X2034540D01*
G01X1960880Y2646680D02*
X2037080D01*
G01X1973580Y2644140D02*
X2042160D01*
G01X1983740Y2641600D02*
X2054860D01*
G01X1993900Y2639060D02*
X2057400D01*
G01X2001520Y2636520D02*
X2062480D01*
G01X2011680Y2633980D02*
X2070100D01*
G01X2019300Y2631440D02*
X2075180D01*
G01X2026920Y2628900D02*
X2080260D01*
G01X2032000Y2626360D02*
X2077720D01*
G01X2034540Y2623820D02*
X2087880D01*
G01X2042160Y2621280D02*
X2087880D01*
G01X2047240Y2618740D02*
X2090420D01*
G01X2052320Y2616200D02*
X2098040D01*
G01X2059940Y2613660D02*
X2103120D01*
G01X2062480Y2611120D02*
X2105660D01*
G01X2067560Y2608580D02*
X2108200D01*
G01X2072640Y2606040D02*
X2110740D01*
G01X2146300D02*
X2179320D01*
G01X2075180Y2603500D02*
X2115820D01*
G01X2143760D02*
X2176780D01*
G01X2080260Y2600960D02*
X2120900D01*
G01X2143760D02*
X2174240D01*
G01X2085340Y2598420D02*
X2123440D01*
G01X2141220D02*
X2171700D01*
G01X2087880Y2595880D02*
X2123440D01*
G01X2141220D02*
X2171700D01*
G01X2092960Y2593340D02*
X2128520D01*
G01X2141220D02*
X2169160D01*
G01X2095500Y2590800D02*
X2131060D01*
G01X2136140D02*
X2166620D01*
G01X2100580Y2588260D02*
X2164080D01*
G01X2103120Y2585720D02*
X2164080D01*
G01X2105660Y2583180D02*
X2164080D01*
G01X2108200Y2580640D02*
X2161540D01*
G01X2110740Y2578100D02*
X2159000D01*
G01X2113280Y2575560D02*
X2156460D01*
G01X2115820Y2573020D02*
X2156460D01*
G01X2118360Y2570480D02*
X2153920D01*
G01X2120900Y2567940D02*
X2153920D01*
G01X2123440Y2565400D02*
X2153920D01*
G01X2125980Y2562860D02*
X2156460D01*
G01X2128520Y2560320D02*
X2159000D01*
G01X2131060Y2557780D02*
X2161540D01*
G01X2133600Y2555240D02*
X2164080D01*
G01X2136140Y2552700D02*
X2164080D01*
G01X2138680Y2550160D02*
X2166620D01*
G01X2141220Y2547620D02*
X2166620D01*
G01X2141220Y2545080D02*
X2166620D01*
G01X2143760Y2542540D02*
X2169160D01*
G01X2146300Y2540000D02*
X2171700D01*
G01X2146300Y2537460D02*
X2174240D01*
G01X2242820Y2146300D02*
X2265680D01*
G01X2242820Y2143760D02*
X2265680D01*
G01X2242820Y2141220D02*
X2265680D01*
G01X2242820Y2138680D02*
X2265680D01*
G01X2242820Y2136140D02*
X2265680D01*
G01X2242820Y2133600D02*
X2265680D01*
G01X2242820Y2131060D02*
X2265680D01*
G01X2242820Y2128520D02*
X2265680D01*
G01X2242820Y2125980D02*
X2265680D01*
G01X2242820Y2123440D02*
X2268220D01*
G01X2242820Y2120900D02*
X2268220D01*
G01X2242820Y2118360D02*
X2268220D01*
G01X2242820Y2115820D02*
X2268220D01*
G01X2242820Y2113280D02*
X2268220D01*
G01X2242820Y2110740D02*
X2268220D01*
G01X2242820Y2108200D02*
X2265680D01*
G01X2242820Y2105660D02*
X2265680D01*
G01X2242820Y2103120D02*
X2265680D01*
G01X2242820Y2100580D02*
X2265680D01*
G01X2242820Y2098040D02*
X2265680D01*
G01X2240280Y2095500D02*
X2265680D01*
G01X2240280Y2092960D02*
X2265680D01*
G01X2240280Y2090420D02*
X2265680D01*
G01X2240280Y2087880D02*
X2265680D01*
G01X2240280Y2085340D02*
X2265680D01*
G01X2240280Y2082800D02*
X2265680D01*
G01X2240280Y2080260D02*
X2265680D01*
G01X2240280Y2077720D02*
X2263140D01*
G01X2240280Y2075180D02*
X2263140D01*
G01X2237740Y2072640D02*
X2263140D01*
G01X2237740Y2070100D02*
X2263140D01*
G01X2237740Y2067560D02*
X2263140D01*
G01X2237740Y2065020D02*
X2263140D01*
G01X2237740Y2062480D02*
X2263140D01*
G01X2237740Y2059940D02*
X2260600D01*
G01X2237740Y2057400D02*
X2260600D01*
G01X2237740Y2054860D02*
X2258060D01*
G01X2235200Y2052320D02*
X2258060D01*
G01X2235200Y2049780D02*
X2258060D01*
G01X2235200Y2047240D02*
X2258060D01*
G01X2235200Y2044700D02*
X2258060D01*
G01X2235200Y2042160D02*
X2258060D01*
G01X2232660Y2039620D02*
X2258060D01*
G01X2232660Y2037080D02*
X2258060D01*
G01X2232660Y2034540D02*
X2255520D01*
G01X2232660Y2032000D02*
X2255520D01*
G01X2232660Y2029460D02*
X2255520D01*
G01X2230120Y2026920D02*
X2255520D01*
G01X2230120Y2024380D02*
X2252980D01*
G01X2230120Y2021840D02*
X2252980D01*
G01X2230120Y2019300D02*
X2252980D01*
G01X2227580Y2016760D02*
X2252980D01*
G01X2227580Y2014220D02*
X2252980D01*
G01X2227580Y2011680D02*
X2252980D01*
G01X2225040Y2009140D02*
X2250440D01*
G01X2225040Y2006600D02*
X2250440D01*
G01X2225040Y2004060D02*
X2247900D01*
G01X2225040Y2001520D02*
X2247900D01*
G01X2222500Y1998980D02*
X2247900D01*
G01X2222500Y1996440D02*
X2247900D01*
G01X2219960Y1993900D02*
X2247900D01*
G01X2219960Y1991360D02*
X2247900D01*
G01X2219960Y1988820D02*
X2245360D01*
G01X2217420Y1986280D02*
X2245360D01*
G01X2214880Y1983740D02*
X2242820D01*
G01X2214880Y1981200D02*
X2240280D01*
G01X2212340Y1978660D02*
X2240280D01*
G01X2209800Y1976120D02*
X2240280D01*
G01X2209800Y1973580D02*
X2240280D01*
G01X2207260Y1971040D02*
X2235200D01*
G01X2204720Y1968500D02*
X2235200D01*
G01X2204720Y1965960D02*
X2232660D01*
G01X2202180Y1963420D02*
X2232660D01*
G01X2199640Y1960880D02*
X2227580D01*
G01X2197100Y1958340D02*
X2227580D01*
G01X2194560Y1955800D02*
X2227580D01*
G01X2192020Y1953260D02*
X2227580D01*
G01X2189480Y1950720D02*
X2225040D01*
G01X2184400Y1948180D02*
X2222500D01*
G01X2181860Y1945640D02*
X2222500D01*
G01X2176780Y1943100D02*
X2217420D01*
G01X2169160Y1940560D02*
X2212340D01*
G01X2148840Y1917700D02*
X2169160D01*
G01X2176780Y2491740D02*
X2202180D01*
G01X2179320Y2489200D02*
X2204720D01*
G01X2179320Y2486660D02*
X2204720D01*
G01X2181860Y2484120D02*
X2204720D01*
G01X2181860Y2481580D02*
X2207260D01*
G01X2184400Y2479040D02*
X2207260D01*
G01X2184400Y2476500D02*
X2209800D01*
G01X2186940Y2473960D02*
X2209800D01*
G01X2186940Y2471420D02*
X2212340D01*
G01X2189480Y2468880D02*
X2212340D01*
G01X2189480Y2466340D02*
X2212340D01*
G01X2189480Y2463800D02*
X2214880D01*
G01X2192020Y2461260D02*
X2214880D01*
G01X2192020Y2458720D02*
X2214880D01*
G01X2194560Y2456180D02*
X2217420D01*
G01X2194560Y2453640D02*
X2219960D01*
G01X2197100Y2451100D02*
X2222500D01*
G01X2197100Y2448560D02*
X2222500D01*
G01X2197100Y2446020D02*
X2225040D01*
G01X2199640Y2443480D02*
X2225040D01*
G01X2199640Y2440940D02*
X2227580D01*
G01X2199640Y2438400D02*
X2227580D01*
G01X2202180Y2435860D02*
X2227580D01*
G01X2202180Y2433320D02*
X2230120D01*
G01X2204720Y2430780D02*
X2227580D01*
G01X2204720Y2428240D02*
X2230120D01*
G01X2204720Y2425700D02*
X2232660D01*
G01X2204720Y2423160D02*
X2232660D01*
G01X2207260Y2420620D02*
X2235200D01*
G01X2207260Y2418080D02*
X2235200D01*
G01X2209800Y2415540D02*
X2235200D01*
G01X2209800Y2413000D02*
X2235200D01*
G01X2209800Y2410460D02*
X2237740D01*
G01X2212340Y2407920D02*
X2237740D01*
G01X2212340Y2405380D02*
X2237740D01*
G01X2212340Y2402840D02*
X2237740D01*
G01X2214880Y2400300D02*
X2237740D01*
G01X2214880Y2397760D02*
X2237740D01*
G01X2214880Y2395220D02*
X2237740D01*
G01X2214880Y2392680D02*
X2240280D01*
G01X2217420Y2390140D02*
X2240280D01*
G01X2217420Y2387600D02*
X2240280D01*
G01X2219960Y2385060D02*
X2240280D01*
G01X2219960Y2382520D02*
X2242820D01*
G01X2219960Y2379980D02*
X2242820D01*
G01X2219960Y2377440D02*
X2242820D01*
G01X2222500Y2374900D02*
X2242820D01*
G01X2222500Y2372360D02*
X2245360D01*
G01X2222500Y2369820D02*
X2245360D01*
G01X2225040Y2367280D02*
X2245360D01*
G01X2225040Y2364740D02*
X2245360D01*
G01X2225040Y2362200D02*
X2247900D01*
G01X2225040Y2359660D02*
X2247900D01*
G01X2225040Y2357120D02*
X2247900D01*
G01X2227580Y2354580D02*
X2247900D01*
G01X2227580Y2352040D02*
X2247900D01*
G01X2227580Y2349500D02*
X2250440D01*
G01X2227580Y2346960D02*
X2250440D01*
G01X2230120Y2344420D02*
X2250440D01*
G01X2230120Y2341880D02*
X2250440D01*
G01X2230120Y2339340D02*
X2250440D01*
G01X2230120Y2336800D02*
X2252980D01*
G01X2230120Y2334260D02*
X2252980D01*
G01X2230120Y2331720D02*
X2252980D01*
G01X2232660Y2329180D02*
X2255520D01*
G01X2232660Y2326640D02*
X2255520D01*
G01X2232660Y2324100D02*
X2255520D01*
G01X2232660Y2321560D02*
X2258060D01*
G01X2232660Y2319020D02*
X2258060D01*
G01X2235200Y2316480D02*
X2258060D01*
G01X2235200Y2313940D02*
X2258060D01*
G01X2235200Y2311400D02*
X2258060D01*
G01X2235200Y2308860D02*
X2258060D01*
G01X2235200Y2306320D02*
X2258060D01*
G01X2235200Y2303780D02*
X2258060D01*
G01X2237740Y2301240D02*
X2258060D01*
G01X2237740Y2298700D02*
X2258060D01*
G01X2237740Y2296160D02*
X2258060D01*
G01X2237740Y2293620D02*
X2258060D01*
G01X2237740Y2291080D02*
X2258060D01*
G01X2237740Y2288540D02*
X2263140D01*
G01X2237740Y2286000D02*
X2263140D01*
G01X2237740Y2283460D02*
X2263140D01*
G01X2237740Y2280920D02*
X2263140D01*
G01X2237740Y2278380D02*
X2263140D01*
G01X2240280Y2275840D02*
X2263140D01*
G01X2240280Y2273300D02*
X2263140D01*
G01X2240280Y2270760D02*
X2265680D01*
G01X2240280Y2268220D02*
X2265680D01*
G01X2240280Y2265680D02*
X2265680D01*
G01X2240280Y2263140D02*
X2265680D01*
G01X2240280Y2260600D02*
X2265680D01*
G01X2240280Y2258060D02*
X2265680D01*
G01X2240280Y2255520D02*
X2265680D01*
G01X2240280Y2252980D02*
X2265680D01*
G01X2240280Y2250440D02*
X2265680D01*
G01X2240280Y2247900D02*
X2265680D01*
G01X2242820Y2245360D02*
X2265680D01*
G01X2242820Y2242820D02*
X2265680D01*
G01X2242820Y2240280D02*
X2265680D01*
G01X2242820Y2237740D02*
X2265680D01*
G01X2242820Y2235200D02*
X2265680D01*
G01X2242820Y2232660D02*
X2265680D01*
G01X2242820Y2230120D02*
X2265680D01*
G01X2242820Y2227580D02*
X2268220D01*
G01X2242820Y2225040D02*
X2268220D01*
G01X2242820Y2222500D02*
X2268220D01*
G01X2242820Y2219960D02*
X2268220D01*
G01X2242820Y2217420D02*
X2265680D01*
G01X2242820Y2214880D02*
X2268220D01*
G01X2242820Y2212340D02*
X2268220D01*
G01X2242820Y2209800D02*
X2268220D01*
G01X2242820Y2207260D02*
X2265680D01*
G01X2242820Y2204720D02*
X2268220D01*
G01X2242820Y2202180D02*
X2268220D01*
G01X2242820Y2199640D02*
X2268220D01*
G01X2242820Y2197100D02*
X2268220D01*
G01X2242820Y2194560D02*
X2268220D01*
G01X2242820Y2192020D02*
X2268220D01*
G01X2242820Y2189480D02*
X2268220D01*
G01X2245360Y2186940D02*
X2268220D01*
G01X2245360Y2184400D02*
X2268220D01*
G01X2245360Y2181860D02*
X2265680D01*
G01X2245360Y2179320D02*
X2265680D01*
G01X2245360Y2176780D02*
X2268220D01*
G01X2245360Y2174240D02*
X2268220D01*
G01X2245360Y2171700D02*
X2265680D01*
G01X2245360Y2169160D02*
X2265680D01*
G01X2245360Y2166620D02*
X2265680D01*
G01X2245360Y2164080D02*
X2265680D01*
G01X2245360Y2161540D02*
X2265680D01*
G01X2245360Y2159000D02*
X2265680D01*
G01X2245360Y2156460D02*
X2265680D01*
G01X2245360Y2153920D02*
X2265680D01*
G01X2245360Y2151380D02*
X2265680D01*
G01X2245360Y2148840D02*
X2265680D01*
G01X2148840Y2682240D02*
X2184400D01*
G01X2151380Y2679700D02*
X2184400D01*
G01X2156460Y2677160D02*
X2186940D01*
G01X2156460Y2674620D02*
X2186940D01*
G01X2159000Y2672080D02*
X2186940D01*
G01X2161540Y2669540D02*
X2186940D01*
G01X2161540Y2667000D02*
X2189480D01*
G01X2161540Y2664460D02*
X2189480D01*
G01X2164080Y2661920D02*
X2189480D01*
G01X2164080Y2659380D02*
X2189480D01*
G01X2164080Y2656840D02*
X2192020D01*
G01X2164080Y2654300D02*
X2192020D01*
G01X2164080Y2651760D02*
X2194560D01*
G01X2164080Y2649220D02*
X2194560D01*
G01X2166620Y2646680D02*
X2194560D01*
G01X2164080Y2644140D02*
X2194560D01*
G01X2164080Y2641600D02*
X2192020D01*
G01X2164080Y2639060D02*
X2192020D01*
G01X2164080Y2636520D02*
X2192020D01*
G01X2161540Y2633980D02*
X2192020D01*
G01X2161540Y2631440D02*
X2192020D01*
G01X2161540Y2628900D02*
X2189480D01*
G01X2161540Y2626360D02*
X2189480D01*
G01X2156460Y2623820D02*
X2189480D01*
G01X2156460Y2621280D02*
X2184400D01*
G01X2153920Y2618740D02*
X2184400D01*
G01X2153920Y2616200D02*
X2184400D01*
G01X2151380Y2613660D02*
X2184400D01*
G01X2148840Y2611120D02*
X2181860D01*
G01X2148840Y2608580D02*
X2181860D01*
G01X2148840Y2534920D02*
X2179320D01*
G01X2151380Y2532380D02*
X2179320D01*
G01X2153920Y2529840D02*
X2181860D01*
G01X2153920Y2527300D02*
X2181860D01*
G01X2156460Y2524760D02*
X2184400D01*
G01X2159000Y2522220D02*
X2184400D01*
G01X2159000Y2519680D02*
X2186940D01*
G01X2161540Y2517140D02*
X2189480D01*
G01X2164080Y2514600D02*
X2189480D01*
G01X2164080Y2512060D02*
X2192020D01*
G01X2166620Y2509520D02*
X2192020D01*
G01X2166620Y2506980D02*
X2194560D01*
G01X2169160Y2504440D02*
X2194560D01*
G01X2169160Y2501900D02*
X2197100D01*
G01X2171700Y2499360D02*
X2197100D01*
G01X2171700Y2496820D02*
X2199640D01*
G01X2176780Y2494280D02*
X2202180D01*
M02*
