M48
INCH
T01C.011811
T02C.023622
;LEADER: 12 
;HEADER: 
;CODE  : ASCII 
;FILE  : PRISON_GOD_PCB_V230_DEBUG-1-4.drl for board C:/Ninfeion_Git/BBPrisonGod/hardware/pcb/allegro/#Taaaaah08140.tmp ... layers TOP and BOTTOM
;T01 Holesize 1. = 11.811024 Tolerance = +0.000000/-0.000000 PLATED MILS Quantity = 330
;T02 Holesize 2. = 23.622047 Tolerance = +0.000000/-0.000000 PLATED MILS Quantity = 2
%
G90
T01
X0000006699Y0000001592
X0000006699Y0000004151
X0000009061Y0000001592
X0000009061Y0000004151
X0000009061Y0000006710
X0000011620Y0000001592
X0000011620Y0000004151
X0000011620Y0000006710
X0000017515Y0000009054
X0000020095Y0000001672
X0000020095Y0000004231
X0000020095Y0000006790
X0000020074Y0000009054
X0000022654Y0000001672
X0000022654Y0000004231
X0000022654Y0000006790
X0000028100Y0000006700
X0000028112Y0000009411
X0000030700Y0000006700
X0000030671Y0000009411
X0000033230Y0000009411
X0000035789Y0000009411
X0000038348Y0000009411
X0000043194Y0000003457
X0000045753Y0000003457
X0000048312Y0000003457
X0000050871Y0000003457
X0000053430Y0000003457
X0000061100Y0000006900
X0000062717Y0000008283
X0000064500Y0000006900
X0000066691Y0000005000
X0000069898Y0000009898
X0000074000Y0000005000
X0000078000Y0000005000
X0000082102Y0000009831
X0000086000Y0000005000
X0000095202Y0000007000
X0000095202Y0000009600
X0000101513Y0000001572
X0000101552Y0000004946
X0000104072Y0000001572
X0000104111Y0000004946
X0000104608Y0000008200
X0000106631Y0000001572
X0000106670Y0000004946
X0000107167Y0000008200
X0000109229Y0000004946
X0000109726Y0000008200
X0000110144Y0000011217
X0000107585Y0000011217
X0000090000Y0000019000
X0000075917Y0000017735
X0000068200Y0000017400
X0000067652Y0000015185
X0000059986Y0000017478
X0000060041Y0000014519
X0000060008Y0000011208
X0000043366Y0000010700
X0000043341Y0000014660
X0000038348Y0000014529
X0000038348Y0000011970
X0000035789Y0000014529
X0000035789Y0000011970
X0000033230Y0000014529
X0000033230Y0000011970
X0000029600Y0000016200
X0000022715Y0000018938
X0000017991Y0000018938
X0000009700Y0000024800
X0000013756Y0000028200
X0000017991Y0000023663
X0000020353Y0000021300
X0000022715Y0000023663
X0000032019Y0000029400
X0000033100Y0000026700
X0000035400Y0000028700
X0000041500Y0000023400
X0000052187Y0000024683
X0000052187Y0000027242
X0000054746Y0000024683
X0000054746Y0000027242
X0000057811Y0000029700
X0000060008Y0000020900
X0000060600Y0000027400
X0000067000Y0000022000
X0000071000Y0000026900
X0000074500Y0000027000
X0000074600Y0000029900
X0000076100Y0000020000
X0000078000Y0000029900
X0000089667Y0000028833
X0000092500Y0000023500
X0000099000Y0000028000
X0000102400Y0000025400
X0000104047Y0000028000
X0000110000Y0000029000
X0000113969Y0000023969
X0000114000Y0000026000
X0000109458Y0000037604
X0000104734Y0000037604
X0000089800Y0000037500
X0000087000Y0000037500
X0000078000Y0000036000
X0000041000Y0000036000
X0000041000Y0000033000
X0000023454Y0000037480
X0000003500Y0000039300
X0000003500Y0000033500
X0000002700Y0000036200
X0000002700Y0000042400
X0000003000Y0000049000
X0000003597Y0000045500
X0000018987Y0000045303
X0000018987Y0000047862
X0000021546Y0000045303
X0000021546Y0000047862
X0000022300Y0000040400
X0000024105Y0000045303
X0000024105Y0000047862
X0000026766Y0000047804
X0000049000Y0000046728
X0000050740Y0000049260
X0000053000Y0000042000
X0000053000Y0000045000
X0000056100Y0000041100
X0000058500Y0000045500
X0000058749Y0000041000
X0000068000Y0000043000
X0000069060Y0000046060
X0000083000Y0000043000
X0000090150Y0000044500
X0000092900Y0000041000
X0000104734Y0000042328
X0000107096Y0000039966
X0000109458Y0000042328
X0000118000Y0000048000
X0000113000Y0000053000
X0000103800Y0000054900
X0000103000Y0000058600
X0000100600Y0000053000
X0000089000Y0000058600
X0000074000Y0000057000
X0000074004Y0000054600
X0000071728Y0000057000
X0000071732Y0000054599
X0000069457Y0000056986
X0000069470Y0000054613
X0000049000Y0000051791
X0000026866Y0000057746
X0000026766Y0000055424
X0000026766Y0000050363
X0000026704Y0000052865
X0000024207Y0000055424
X0000024145Y0000052865
X0000024105Y0000050421
X0000021586Y0000052865
X0000021546Y0000050421
X0000018987Y0000050421
X0000018000Y0000059154
X0000017887Y0000054713
X0000015500Y0000059900
X0000018300Y0000067100
X0000053100Y0000060000
X0000058900Y0000065300
X0000060700Y0000063746
X0000061200Y0000061200
X0000073000Y0000069000
X0000075000Y0000063000
X0000075000Y0000067000
X0000077000Y0000065000
X0000078000Y0000061000
X0000087000Y0000068000
X0000089400Y0000065900
X0000091800Y0000069200
X0000099589Y0000064416
X0000103800Y0000067400
X0000108800Y0000064700
X0000118000Y0000067000
X0000115000Y0000076200
X0000111800Y0000076200
X0000106500Y0000076200
X0000105500Y0000079283
X0000104000Y0000077000
X0000103600Y0000072000
X0000099800Y0000079800
X0000095400Y0000074500
X0000093080Y0000074500
X0000092968Y0000079928
X0000090400Y0000079400
X0000087700Y0000074100
X0000085500Y0000077000
X0000084000Y0000071000
X0000065685Y0000075700
X0000056000Y0000072000
X0000043150Y0000078975
X0000031987Y0000073763
X0000028880Y0000072646
X0000021900Y0000072700
X0000020600Y0000075400
X0000002800Y0000079000
X0000016700Y0000082500
X0000017146Y0000089600
X0000019000Y0000086013
X0000021119Y0000080000
X0000030600Y0000080000
X0000035026Y0000085874
X0000041000Y0000087600
X0000043625Y0000086200
X0000044950Y0000080950
X0000046000Y0000088000
X0000053700Y0000089700
X0000055253Y0000084900
X0000056935Y0000081900
X0000056943Y0000086890
X0000065000Y0000084000
X0000065000Y0000089000
X0000065784Y0000086700
X0000065964Y0000081833
X0000076000Y0000087800
X0000088522Y0000081078
X0000094245Y0000081927
X0000098613Y0000081737
X0000102400Y0000083100
X0000103200Y0000080400
X0000110500Y0000089200
X0000113979Y0000087505
X0000116538Y0000087505
X0000116538Y0000090064
X0000113979Y0000090064
X0000109169Y0000091831
X0000108790Y0000096390
X0000107790Y0000094200
X0000106759Y0000091923
X0000104411Y0000091589
X0000095782Y0000097577
X0000095782Y0000094428
X0000095782Y0000091278
X0000092633Y0000097577
X0000092633Y0000094428
X0000092633Y0000091278
X0000089483Y0000097577
X0000089483Y0000094428
X0000089483Y0000091278
X0000086333Y0000097577
X0000086333Y0000094428
X0000086333Y0000091278
X0000076189Y0000093021
X0000074448Y0000094632
X0000069050Y0000097250
X0000066700Y0000099900
X0000065800Y0000097200
X0000065600Y0000091700
X0000065200Y0000094600
X0000059500Y0000094700
X0000058100Y0000098120
X0000050408Y0000099937
X0000050408Y0000096000
X0000048439Y0000097968
X0000046471Y0000099937
X0000046471Y0000096000
X0000038600Y0000098600
X0000037900Y0000090100
X0000034500Y0000096000
X0000032600Y0000094100
X0000020715Y0000099315
X0000010000Y0000100000
X0000018000Y0000100500
X0000018000Y0000108500
X0000027300Y0000104900
X0000031400Y0000104500
X0000032539Y0000108800
X0000036000Y0000109000
X0000051000Y0000107600
X0000058440Y0000104040
X0000059500Y0000107900
X0000060613Y0000104704
X0000068000Y0000107900
X0000070000Y0000106000
X0000072000Y0000104000
X0000074500Y0000103200
X0000077000Y0000104500
X0000078100Y0000107000
X0000086333Y0000100727
X0000089483Y0000100727
X0000092633Y0000100727
X0000095782Y0000100727
X0000100849Y0000108586
X0000100886Y0000106314
X0000106801Y0000106604
X0000113244Y0000101200
X0000116953Y0000108368
X0000111516Y0000117468
X0000103084Y0000113237
X0000101900Y0000117900
X0000099600Y0000117100
X0000096800Y0000117000
X0000096512Y0000110000
X0000094300Y0000117000
X0000093900Y0000110054
X0000089400Y0000112100
X0000086700Y0000111900
X0000074350Y0000119600
X0000064000Y0000111900
X0000047000Y0000117000
X0000044100Y0000119000
X0000040377Y0000118214
X0000040377Y0000115655
X0000037818Y0000118214
X0000037818Y0000115655
X0000035259Y0000118214
X0000035259Y0000115655
X0000029165Y0000118292
X0000029165Y0000115733
X0000026606Y0000118292
X0000026606Y0000115733
X0000024047Y0000118292
X0000024047Y0000115733
X0000023600Y0000110200
X0000021488Y0000118292
X0000021488Y0000115733
X0000020715Y0000110115
X0000006620Y0000118880
X0000012900Y0000120200
X0000015000Y0000121900
X0000053600Y0000127600
X0000064500Y0000123200
X0000064500Y0000127600
X0000079100Y0000127848
X0000083100Y0000127848
T02
X0000094493Y0000014017
X0000110241Y0000014017
M30
